  0
SECTION
  2
BLOCKS
  0
ENDSEC
  0
SECTION
  2
ENTITIES
  0
LINE
  8
0
 10
156
 20
185
 11
164
 21
185
  0
LINE
  8
0
 10
164
 20
185
 11
164
 21
189
  0
LINE
  8
0
 10
164
 20
189
 11
160
 21
189
  0
LINE
  8
0
 10
160
 20
189
 11
160
 21
193
  0
LINE
  8
0
 10
160
 20
193
 11
164
 21
193
  0
LINE
  8
0
 10
164
 20
193
 11
164
 21
197
  0
LINE
  8
0
 10
164
 20
197
 11
160
 21
197
  0
LINE
  8
0
 10
160
 20
197
 11
160
 21
201
  0
LINE
  8
0
 10
160
 20
201
 11
164
 21
201
  0
LINE
  8
0
 10
164
 20
201
 11
164
 21
205
  0
LINE
  8
0
 10
164
 20
205
 11
160
 21
205
  0
LINE
  8
0
 10
160
 20
205
 11
160
 21
209
  0
LINE
  8
0
 10
160
 20
209
 11
164
 21
209
  0
LINE
  8
0
 10
164
 20
209
 11
164
 21
213
  0
LINE
  8
0
 10
164
 20
213
 11
160
 21
213
  0
LINE
  8
0
 10
160
 20
213
 11
160
 21
217
  0
LINE
  8
0
 10
160
 20
217
 11
164
 21
217
  0
LINE
  8
0
 10
164
 20
217
 11
164
 21
221
  0
LINE
  8
0
 10
164
 20
221
 11
160
 21
221
  0
LINE
  8
0
 10
160
 20
221
 11
160
 21
225
  0
LINE
  8
0
 10
160
 20
225
 11
164
 21
225
  0
LINE
  8
0
 10
164
 20
225
 11
164
 21
229
  0
LINE
  8
0
 10
164
 20
229
 11
160
 21
229
  0
LINE
  8
0
 10
160
 20
229
 11
160
 21
233
  0
LINE
  8
0
 10
160
 20
233
 11
-4
 21
233
  0
LINE
  8
0
 10
-4
 20
233
 11
-4
 21
229
  0
LINE
  8
0
 10
-4
 20
229
 11
0
 21
229
  0
LINE
  8
0
 10
0
 20
229
 11
0
 21
225
  0
LINE
  8
0
 10
0
 20
225
 11
-4
 21
225
  0
LINE
  8
0
 10
-4
 20
225
 11
-4
 21
221
  0
LINE
  8
0
 10
-4
 20
221
 11
0
 21
221
  0
LINE
  8
0
 10
0
 20
221
 11
0
 21
217
  0
LINE
  8
0
 10
0
 20
217
 11
-4
 21
217
  0
LINE
  8
0
 10
-4
 20
217
 11
-4
 21
213
  0
LINE
  8
0
 10
-4
 20
213
 11
0
 21
213
  0
LINE
  8
0
 10
0
 20
213
 11
0
 21
209
  0
LINE
  8
0
 10
0
 20
209
 11
-4
 21
209
  0
LINE
  8
0
 10
-4
 20
209
 11
-4
 21
205
  0
LINE
  8
0
 10
-4
 20
205
 11
0
 21
205
  0
LINE
  8
0
 10
0
 20
205
 11
0
 21
201
  0
LINE
  8
0
 10
0
 20
201
 11
-4
 21
201
  0
LINE
  8
0
 10
-4
 20
201
 11
-4
 21
197
  0
LINE
  8
0
 10
-4
 20
197
 11
0
 21
197
  0
LINE
  8
0
 10
0
 20
197
 11
0
 21
193
  0
LINE
  8
0
 10
0
 20
193
 11
-4
 21
193
  0
LINE
  8
0
 10
-4
 20
193
 11
-4
 21
189
  0
LINE
  8
0
 10
-4
 20
189
 11
0
 21
189
  0
LINE
  8
0
 10
0
 20
189
 11
0
 21
185
  0
LINE
  8
0
 10
0
 20
185
 11
-4
 21
185
  0
LINE
  8
0
 10
-4
 20
185
 11
-4
 21
181
  0
LINE
  8
0
 10
-4
 20
181
 11
0
 21
181
  0
LINE
  8
0
 10
0
 20
181
 11
0
 21
177
  0
LINE
  8
0
 10
0
 20
177
 11
-4
 21
177
  0
LINE
  8
0
 10
-4
 20
177
 11
-4
 21
173
  0
LINE
  8
0
 10
-4
 20
173
 11
0
 21
173
  0
LINE
  8
0
 10
0
 20
173
 11
0
 21
169
  0
LINE
  8
0
 10
0
 20
169
 11
-4
 21
169
  0
LINE
  8
0
 10
-4
 20
169
 11
-4
 21
165
  0
LINE
  8
0
 10
-4
 20
165
 11
0
 21
165
  0
LINE
  8
0
 10
0
 20
165
 11
0
 21
161
  0
LINE
  8
0
 10
0
 20
161
 11
-4
 21
161
  0
LINE
  8
0
 10
-4
 20
161
 11
-4
 21
157
  0
LINE
  8
0
 10
-4
 20
157
 11
0
 21
157
  0
LINE
  8
0
 10
0
 20
157
 11
0
 21
153
  0
LINE
  8
0
 10
0
 20
153
 11
-4
 21
153
  0
LINE
  8
0
 10
-4
 20
153
 11
-4
 21
149
  0
LINE
  8
0
 10
-4
 20
149
 11
0
 21
149
  0
LINE
  8
0
 10
0
 20
149
 11
0
 21
145
  0
LINE
  8
0
 10
0
 20
145
 11
-4
 21
145
  0
LINE
  8
0
 10
-4
 20
145
 11
-4
 21
141
  0
LINE
  8
0
 10
-4
 20
141
 11
0
 21
141
  0
LINE
  8
0
 10
0
 20
141
 11
0
 21
137
  0
LINE
  8
0
 10
0
 20
137
 11
164
 21
137
  0
LINE
  8
0
 10
164
 20
137
 11
164
 21
141
  0
LINE
  8
0
 10
164
 20
141
 11
160
 21
141
  0
LINE
  8
0
 10
160
 20
141
 11
160
 21
145
  0
LINE
  8
0
 10
160
 20
145
 11
164
 21
145
  0
LINE
  8
0
 10
164
 20
145
 11
164
 21
149
  0
LINE
  8
0
 10
164
 20
149
 11
160
 21
149
  0
LINE
  8
0
 10
160
 20
149
 11
160
 21
153
  0
LINE
  8
0
 10
160
 20
153
 11
164
 21
153
  0
LINE
  8
0
 10
164
 20
153
 11
164
 21
157
  0
LINE
  8
0
 10
164
 20
157
 11
160
 21
157
  0
LINE
  8
0
 10
160
 20
157
 11
160
 21
161
  0
LINE
  8
0
 10
160
 20
161
 11
164
 21
161
  0
LINE
  8
0
 10
164
 20
161
 11
164
 21
165
  0
LINE
  8
0
 10
164
 20
165
 11
160
 21
165
  0
LINE
  8
0
 10
160
 20
165
 11
160
 21
169
  0
LINE
  8
0
 10
160
 20
169
 11
164
 21
169
  0
LINE
  8
0
 10
164
 20
169
 11
164
 21
173
  0
LINE
  8
0
 10
164
 20
173
 11
160
 21
173
  0
LINE
  8
0
 10
160
 20
173
 11
160
 21
177
  0
LINE
  8
0
 10
160
 20
177
 11
164
 21
177
  0
LINE
  8
0
 10
164
 20
177
 11
164
 21
181
  0
LINE
  8
0
 10
164
 20
181
 11
156
 21
181
  0
LINE
  8
0
 10
156
 20
181
 11
156
 21
185
  0
LINE
  8
0
 10
4
 20
181
 11
4
 21
185
  0
LINE
  8
0
 10
4
 20
185
 11
8
 21
185
  0
LINE
  8
0
 10
8
 20
185
 11
8
 21
181
  0
LINE
  8
0
 10
8
 20
181
 11
4
 21
181
  0
LINE
  8
0
 10
148
 20
181
 11
148
 21
185
  0
LINE
  8
0
 10
148
 20
185
 11
152
 21
185
  0
LINE
  8
0
 10
152
 20
185
 11
152
 21
181
  0
LINE
  8
0
 10
152
 20
181
 11
148
 21
181
  0
LINE
  8
0
 10
140
 20
181
 11
140
 21
185
  0
LINE
  8
0
 10
140
 20
185
 11
144
 21
185
  0
LINE
  8
0
 10
144
 20
185
 11
144
 21
181
  0
LINE
  8
0
 10
144
 20
181
 11
140
 21
181
  0
LINE
  8
0
 10
132
 20
181
 11
132
 21
185
  0
LINE
  8
0
 10
132
 20
185
 11
136
 21
185
  0
LINE
  8
0
 10
136
 20
185
 11
136
 21
181
  0
LINE
  8
0
 10
136
 20
181
 11
132
 21
181
  0
LINE
  8
0
 10
124
 20
181
 11
124
 21
185
  0
LINE
  8
0
 10
124
 20
185
 11
128
 21
185
  0
LINE
  8
0
 10
128
 20
185
 11
128
 21
181
  0
LINE
  8
0
 10
128
 20
181
 11
124
 21
181
  0
LINE
  8
0
 10
116
 20
181
 11
116
 21
185
  0
LINE
  8
0
 10
116
 20
185
 11
120
 21
185
  0
LINE
  8
0
 10
120
 20
185
 11
120
 21
181
  0
LINE
  8
0
 10
120
 20
181
 11
116
 21
181
  0
LINE
  8
0
 10
108
 20
181
 11
108
 21
185
  0
LINE
  8
0
 10
108
 20
185
 11
112
 21
185
  0
LINE
  8
0
 10
112
 20
185
 11
112
 21
181
  0
LINE
  8
0
 10
112
 20
181
 11
108
 21
181
  0
LINE
  8
0
 10
100
 20
181
 11
100
 21
185
  0
LINE
  8
0
 10
100
 20
185
 11
104
 21
185
  0
LINE
  8
0
 10
104
 20
185
 11
104
 21
181
  0
LINE
  8
0
 10
104
 20
181
 11
100
 21
181
  0
LINE
  8
0
 10
92
 20
181
 11
92
 21
185
  0
LINE
  8
0
 10
92
 20
185
 11
96
 21
185
  0
LINE
  8
0
 10
96
 20
185
 11
96
 21
181
  0
LINE
  8
0
 10
96
 20
181
 11
92
 21
181
  0
LINE
  8
0
 10
76
 20
181
 11
76
 21
185
  0
LINE
  8
0
 10
76
 20
185
 11
80
 21
185
  0
LINE
  8
0
 10
80
 20
185
 11
80
 21
181
  0
LINE
  8
0
 10
80
 20
181
 11
76
 21
181
  0
LINE
  8
0
 10
68
 20
181
 11
68
 21
185
  0
LINE
  8
0
 10
68
 20
185
 11
72
 21
185
  0
LINE
  8
0
 10
72
 20
185
 11
72
 21
181
  0
LINE
  8
0
 10
72
 20
181
 11
68
 21
181
  0
LINE
  8
0
 10
60
 20
181
 11
60
 21
185
  0
LINE
  8
0
 10
60
 20
185
 11
64
 21
185
  0
LINE
  8
0
 10
64
 20
185
 11
64
 21
181
  0
LINE
  8
0
 10
64
 20
181
 11
60
 21
181
  0
LINE
  8
0
 10
52
 20
181
 11
52
 21
185
  0
LINE
  8
0
 10
52
 20
185
 11
56
 21
185
  0
LINE
  8
0
 10
56
 20
185
 11
56
 21
181
  0
LINE
  8
0
 10
56
 20
181
 11
52
 21
181
  0
LINE
  8
0
 10
44
 20
181
 11
44
 21
185
  0
LINE
  8
0
 10
44
 20
185
 11
48
 21
185
  0
LINE
  8
0
 10
48
 20
185
 11
48
 21
181
  0
LINE
  8
0
 10
48
 20
181
 11
44
 21
181
  0
LINE
  8
0
 10
36
 20
181
 11
36
 21
185
  0
LINE
  8
0
 10
36
 20
185
 11
40
 21
185
  0
LINE
  8
0
 10
40
 20
185
 11
40
 21
181
  0
LINE
  8
0
 10
40
 20
181
 11
36
 21
181
  0
LINE
  8
0
 10
28
 20
181
 11
28
 21
185
  0
LINE
  8
0
 10
28
 20
185
 11
32
 21
185
  0
LINE
  8
0
 10
32
 20
185
 11
32
 21
181
  0
LINE
  8
0
 10
32
 20
181
 11
28
 21
181
  0
LINE
  8
0
 10
20
 20
181
 11
20
 21
185
  0
LINE
  8
0
 10
20
 20
185
 11
24
 21
185
  0
LINE
  8
0
 10
24
 20
185
 11
24
 21
181
  0
LINE
  8
0
 10
24
 20
181
 11
20
 21
181
  0
LINE
  8
0
 10
12
 20
181
 11
12
 21
185
  0
LINE
  8
0
 10
12
 20
185
 11
16
 21
185
  0
LINE
  8
0
 10
16
 20
185
 11
16
 21
181
  0
LINE
  8
0
 10
16
 20
181
 11
12
 21
181
  0
LINE
  8
0
 10
84
 20
181
 11
84
 21
185
  0
LINE
  8
0
 10
84
 20
185
 11
88
 21
185
  0
LINE
  8
0
 10
88
 20
185
 11
88
 21
181
  0
LINE
  8
0
 10
88
 20
181
 11
84
 21
181
  0
LINE
  8
0
 10
-57
 20
124
 11
-57
 21
132
  0
LINE
  8
0
 10
-57
 20
132
 11
-61
 21
132
  0
LINE
  8
0
 10
-61
 20
132
 11
-61
 21
128
  0
LINE
  8
0
 10
-61
 20
128
 11
-65
 21
128
  0
LINE
  8
0
 10
-65
 20
128
 11
-65
 21
132
  0
LINE
  8
0
 10
-65
 20
132
 11
-69
 21
132
  0
LINE
  8
0
 10
-69
 20
132
 11
-69
 21
128
  0
LINE
  8
0
 10
-69
 20
128
 11
-73
 21
128
  0
LINE
  8
0
 10
-73
 20
128
 11
-73
 21
132
  0
LINE
  8
0
 10
-73
 20
132
 11
-77
 21
132
  0
LINE
  8
0
 10
-77
 20
132
 11
-77
 21
128
  0
LINE
  8
0
 10
-77
 20
128
 11
-81
 21
128
  0
LINE
  8
0
 10
-81
 20
128
 11
-81
 21
132
  0
LINE
  8
0
 10
-81
 20
132
 11
-85
 21
132
  0
LINE
  8
0
 10
-85
 20
132
 11
-85
 21
128
  0
LINE
  8
0
 10
-85
 20
128
 11
-89
 21
128
  0
LINE
  8
0
 10
-89
 20
128
 11
-89
 21
132
  0
LINE
  8
0
 10
-89
 20
132
 11
-93
 21
132
  0
LINE
  8
0
 10
-93
 20
132
 11
-93
 21
128
  0
LINE
  8
0
 10
-93
 20
128
 11
-97
 21
128
  0
LINE
  8
0
 10
-97
 20
128
 11
-97
 21
132
  0
LINE
  8
0
 10
-97
 20
132
 11
-101
 21
132
  0
LINE
  8
0
 10
-101
 20
132
 11
-101
 21
128
  0
LINE
  8
0
 10
-101
 20
128
 11
-105
 21
128
  0
LINE
  8
0
 10
-105
 20
128
 11
-105
 21
-4
  0
LINE
  8
0
 10
-105
 20
-4
 11
-101
 21
-4
  0
LINE
  8
0
 10
-101
 20
-4
 11
-101
 21
0
  0
LINE
  8
0
 10
-101
 20
0
 11
-97
 21
0
  0
LINE
  8
0
 10
-97
 20
0
 11
-97
 21
-4
  0
LINE
  8
0
 10
-97
 20
-4
 11
-93
 21
-4
  0
LINE
  8
0
 10
-93
 20
-4
 11
-93
 21
0
  0
LINE
  8
0
 10
-93
 20
0
 11
-89
 21
0
  0
LINE
  8
0
 10
-89
 20
0
 11
-89
 21
-4
  0
LINE
  8
0
 10
-89
 20
-4
 11
-85
 21
-4
  0
LINE
  8
0
 10
-85
 20
-4
 11
-85
 21
0
  0
LINE
  8
0
 10
-85
 20
0
 11
-81
 21
0
  0
LINE
  8
0
 10
-81
 20
0
 11
-81
 21
-4
  0
LINE
  8
0
 10
-81
 20
-4
 11
-77
 21
-4
  0
LINE
  8
0
 10
-77
 20
-4
 11
-77
 21
0
  0
LINE
  8
0
 10
-77
 20
0
 11
-73
 21
0
  0
LINE
  8
0
 10
-73
 20
0
 11
-73
 21
-4
  0
LINE
  8
0
 10
-73
 20
-4
 11
-69
 21
-4
  0
LINE
  8
0
 10
-69
 20
-4
 11
-69
 21
0
  0
LINE
  8
0
 10
-69
 20
0
 11
-65
 21
0
  0
LINE
  8
0
 10
-65
 20
0
 11
-65
 21
-4
  0
LINE
  8
0
 10
-65
 20
-4
 11
-61
 21
-4
  0
LINE
  8
0
 10
-61
 20
-4
 11
-61
 21
0
  0
LINE
  8
0
 10
-61
 20
0
 11
-57
 21
0
  0
LINE
  8
0
 10
-57
 20
0
 11
-57
 21
-4
  0
LINE
  8
0
 10
-57
 20
-4
 11
-53
 21
-4
  0
LINE
  8
0
 10
-53
 20
-4
 11
-53
 21
0
  0
LINE
  8
0
 10
-53
 20
0
 11
-49
 21
0
  0
LINE
  8
0
 10
-49
 20
0
 11
-49
 21
-4
  0
LINE
  8
0
 10
-49
 20
-4
 11
-45
 21
-4
  0
LINE
  8
0
 10
-45
 20
-4
 11
-45
 21
0
  0
LINE
  8
0
 10
-45
 20
0
 11
-41
 21
0
  0
LINE
  8
0
 10
-41
 20
0
 11
-41
 21
-4
  0
LINE
  8
0
 10
-41
 20
-4
 11
-37
 21
-4
  0
LINE
  8
0
 10
-37
 20
-4
 11
-37
 21
0
  0
LINE
  8
0
 10
-37
 20
0
 11
-33
 21
0
  0
LINE
  8
0
 10
-33
 20
0
 11
-33
 21
-4
  0
LINE
  8
0
 10
-33
 20
-4
 11
-29
 21
-4
  0
LINE
  8
0
 10
-29
 20
-4
 11
-29
 21
0
  0
LINE
  8
0
 10
-29
 20
0
 11
-25
 21
0
  0
LINE
  8
0
 10
-25
 20
0
 11
-25
 21
-4
  0
LINE
  8
0
 10
-25
 20
-4
 11
-21
 21
-4
  0
LINE
  8
0
 10
-21
 20
-4
 11
-21
 21
0
  0
LINE
  8
0
 10
-21
 20
0
 11
-17
 21
0
  0
LINE
  8
0
 10
-17
 20
0
 11
-17
 21
-4
  0
LINE
  8
0
 10
-17
 20
-4
 11
-13
 21
-4
  0
LINE
  8
0
 10
-13
 20
-4
 11
-13
 21
0
  0
LINE
  8
0
 10
-13
 20
0
 11
-9
 21
0
  0
LINE
  8
0
 10
-9
 20
0
 11
-9
 21
132
  0
LINE
  8
0
 10
-9
 20
132
 11
-13
 21
132
  0
LINE
  8
0
 10
-13
 20
132
 11
-13
 21
128
  0
LINE
  8
0
 10
-13
 20
128
 11
-17
 21
128
  0
LINE
  8
0
 10
-17
 20
128
 11
-17
 21
132
  0
LINE
  8
0
 10
-17
 20
132
 11
-21
 21
132
  0
LINE
  8
0
 10
-21
 20
132
 11
-21
 21
128
  0
LINE
  8
0
 10
-21
 20
128
 11
-25
 21
128
  0
LINE
  8
0
 10
-25
 20
128
 11
-25
 21
132
  0
LINE
  8
0
 10
-25
 20
132
 11
-29
 21
132
  0
LINE
  8
0
 10
-29
 20
132
 11
-29
 21
128
  0
LINE
  8
0
 10
-29
 20
128
 11
-33
 21
128
  0
LINE
  8
0
 10
-33
 20
128
 11
-33
 21
132
  0
LINE
  8
0
 10
-33
 20
132
 11
-37
 21
132
  0
LINE
  8
0
 10
-37
 20
132
 11
-37
 21
128
  0
LINE
  8
0
 10
-37
 20
128
 11
-41
 21
128
  0
LINE
  8
0
 10
-41
 20
128
 11
-41
 21
132
  0
LINE
  8
0
 10
-41
 20
132
 11
-45
 21
132
  0
LINE
  8
0
 10
-45
 20
132
 11
-45
 21
128
  0
LINE
  8
0
 10
-45
 20
128
 11
-49
 21
128
  0
LINE
  8
0
 10
-49
 20
128
 11
-49
 21
132
  0
LINE
  8
0
 10
-49
 20
132
 11
-53
 21
132
  0
LINE
  8
0
 10
-53
 20
132
 11
-53
 21
124
  0
LINE
  8
0
 10
-53
 20
124
 11
-57
 21
124
  0
LINE
  8
0
 10
-57
 20
116
 11
-57
 21
120
  0
LINE
  8
0
 10
-57
 20
120
 11
-53
 21
120
  0
LINE
  8
0
 10
-53
 20
120
 11
-53
 21
116
  0
LINE
  8
0
 10
-53
 20
116
 11
-57
 21
116
  0
LINE
  8
0
 10
-57
 20
108
 11
-57
 21
112
  0
LINE
  8
0
 10
-57
 20
112
 11
-53
 21
112
  0
LINE
  8
0
 10
-53
 20
112
 11
-53
 21
108
  0
LINE
  8
0
 10
-53
 20
108
 11
-57
 21
108
  0
LINE
  8
0
 10
-57
 20
100
 11
-57
 21
104
  0
LINE
  8
0
 10
-57
 20
104
 11
-53
 21
104
  0
LINE
  8
0
 10
-53
 20
104
 11
-53
 21
100
  0
LINE
  8
0
 10
-53
 20
100
 11
-57
 21
100
  0
LINE
  8
0
 10
-57
 20
92
 11
-57
 21
96
  0
LINE
  8
0
 10
-57
 20
96
 11
-53
 21
96
  0
LINE
  8
0
 10
-53
 20
96
 11
-53
 21
92
  0
LINE
  8
0
 10
-53
 20
92
 11
-57
 21
92
  0
LINE
  8
0
 10
-57
 20
84
 11
-57
 21
88
  0
LINE
  8
0
 10
-57
 20
88
 11
-53
 21
88
  0
LINE
  8
0
 10
-53
 20
88
 11
-53
 21
84
  0
LINE
  8
0
 10
-53
 20
84
 11
-57
 21
84
  0
LINE
  8
0
 10
-57
 20
76
 11
-57
 21
80
  0
LINE
  8
0
 10
-57
 20
80
 11
-53
 21
80
  0
LINE
  8
0
 10
-53
 20
80
 11
-53
 21
76
  0
LINE
  8
0
 10
-53
 20
76
 11
-57
 21
76
  0
LINE
  8
0
 10
-57
 20
68
 11
-57
 21
72
  0
LINE
  8
0
 10
-57
 20
72
 11
-53
 21
72
  0
LINE
  8
0
 10
-53
 20
72
 11
-53
 21
68
  0
LINE
  8
0
 10
-53
 20
68
 11
-57
 21
68
  0
LINE
  8
0
 10
-57
 20
60
 11
-57
 21
64
  0
LINE
  8
0
 10
-57
 20
64
 11
-53
 21
64
  0
LINE
  8
0
 10
-53
 20
64
 11
-53
 21
60
  0
LINE
  8
0
 10
-53
 20
60
 11
-57
 21
60
  0
LINE
  8
0
 10
-57
 20
52
 11
-57
 21
56
  0
LINE
  8
0
 10
-57
 20
56
 11
-53
 21
56
  0
LINE
  8
0
 10
-53
 20
56
 11
-53
 21
52
  0
LINE
  8
0
 10
-53
 20
52
 11
-57
 21
52
  0
LINE
  8
0
 10
-57
 20
44
 11
-57
 21
48
  0
LINE
  8
0
 10
-57
 20
48
 11
-53
 21
48
  0
LINE
  8
0
 10
-53
 20
48
 11
-53
 21
44
  0
LINE
  8
0
 10
-53
 20
44
 11
-57
 21
44
  0
LINE
  8
0
 10
-57
 20
36
 11
-57
 21
40
  0
LINE
  8
0
 10
-57
 20
40
 11
-53
 21
40
  0
LINE
  8
0
 10
-53
 20
40
 11
-53
 21
36
  0
LINE
  8
0
 10
-53
 20
36
 11
-57
 21
36
  0
LINE
  8
0
 10
-57
 20
28
 11
-57
 21
32
  0
LINE
  8
0
 10
-57
 20
32
 11
-53
 21
32
  0
LINE
  8
0
 10
-53
 20
32
 11
-53
 21
28
  0
LINE
  8
0
 10
-53
 20
28
 11
-57
 21
28
  0
LINE
  8
0
 10
-57
 20
20
 11
-57
 21
24
  0
LINE
  8
0
 10
-57
 20
24
 11
-53
 21
24
  0
LINE
  8
0
 10
-53
 20
24
 11
-53
 21
20
  0
LINE
  8
0
 10
-53
 20
20
 11
-57
 21
20
  0
LINE
  8
0
 10
-57
 20
12
 11
-57
 21
16
  0
LINE
  8
0
 10
-57
 20
16
 11
-53
 21
16
  0
LINE
  8
0
 10
-53
 20
16
 11
-53
 21
12
  0
LINE
  8
0
 10
-53
 20
12
 11
-57
 21
12
  0
LINE
  8
0
 10
-57
 20
4
 11
-57
 21
8
  0
LINE
  8
0
 10
-57
 20
8
 11
-53
 21
8
  0
LINE
  8
0
 10
-53
 20
8
 11
-53
 21
4
  0
LINE
  8
0
 10
-53
 20
4
 11
-57
 21
4
  0
LINE
  8
0
 10
377
 20
0
 11
441
 21
0
  0
LINE
  8
0
 10
441
 20
0
 11
441
 21
50
  0
LINE
  8
0
 10
441
 20
50
 11
445
 21
50
  0
LINE
  8
0
 10
445
 20
50
 11
445
 21
78
  0
LINE
  8
0
 10
445
 20
78
 11
441
 21
78
  0
LINE
  8
0
 10
441
 20
78
 11
441
 21
128
  0
LINE
  8
0
 10
441
 20
128
 11
377
 21
128
  0
LINE
  8
0
 10
377
 20
128
 11
377
 21
132
  0
LINE
  8
0
 10
377
 20
132
 11
337
 21
132
  0
LINE
  8
0
 10
337
 20
132
 11
337
 21
128
  0
LINE
  8
0
 10
337
 20
128
 11
277
 21
128
  0
LINE
  8
0
 10
277
 20
128
 11
277
 21
124
  0
LINE
  8
0
 10
277
 20
124
 11
273
 21
124
  0
LINE
  8
0
 10
273
 20
124
 11
273
 21
120
  0
LINE
  8
0
 10
273
 20
120
 11
277
 21
120
  0
LINE
  8
0
 10
277
 20
120
 11
277
 21
116
  0
LINE
  8
0
 10
277
 20
116
 11
273
 21
116
  0
LINE
  8
0
 10
273
 20
116
 11
273
 21
112
  0
LINE
  8
0
 10
273
 20
112
 11
277
 21
112
  0
LINE
  8
0
 10
277
 20
112
 11
277
 21
108
  0
LINE
  8
0
 10
277
 20
108
 11
273
 21
108
  0
LINE
  8
0
 10
273
 20
108
 11
273
 21
104
  0
LINE
  8
0
 10
273
 20
104
 11
277
 21
104
  0
LINE
  8
0
 10
277
 20
104
 11
277
 21
24
  0
LINE
  8
0
 10
277
 20
24
 11
273
 21
24
  0
LINE
  8
0
 10
273
 20
24
 11
273
 21
20
  0
LINE
  8
0
 10
273
 20
20
 11
277
 21
20
  0
LINE
  8
0
 10
277
 20
20
 11
277
 21
16
  0
LINE
  8
0
 10
277
 20
16
 11
273
 21
16
  0
LINE
  8
0
 10
273
 20
16
 11
273
 21
12
  0
LINE
  8
0
 10
273
 20
12
 11
277
 21
12
  0
LINE
  8
0
 10
277
 20
12
 11
277
 21
8
  0
LINE
  8
0
 10
277
 20
8
 11
273
 21
8
  0
LINE
  8
0
 10
273
 20
8
 11
273
 21
4
  0
LINE
  8
0
 10
273
 20
4
 11
277
 21
4
  0
LINE
  8
0
 10
277
 20
4
 11
277
 21
0
  0
LINE
  8
0
 10
277
 20
0
 11
337
 21
0
  0
LINE
  8
0
 10
337
 20
0
 11
337
 21
-4
  0
LINE
  8
0
 10
337
 20
-4
 11
377
 21
-4
  0
LINE
  8
0
 10
377
 20
-4
 11
377
 21
0
  0
LINE
  8
0
 10
111
 20
0
 11
115
 21
0
  0
LINE
  8
0
 10
115
 20
0
 11
115
 21
-4
  0
LINE
  8
0
 10
115
 20
-4
 11
119
 21
-4
  0
LINE
  8
0
 10
119
 20
-4
 11
119
 21
0
  0
LINE
  8
0
 10
119
 20
0
 11
123
 21
0
  0
LINE
  8
0
 10
123
 20
0
 11
123
 21
-4
  0
LINE
  8
0
 10
123
 20
-4
 11
127
 21
-4
  0
LINE
  8
0
 10
127
 20
-4
 11
127
 21
0
  0
LINE
  8
0
 10
127
 20
0
 11
131
 21
0
  0
LINE
  8
0
 10
131
 20
0
 11
131
 21
-4
  0
LINE
  8
0
 10
131
 20
-4
 11
135
 21
-4
  0
LINE
  8
0
 10
135
 20
-4
 11
135
 21
0
  0
LINE
  8
0
 10
135
 20
0
 11
139
 21
0
  0
LINE
  8
0
 10
139
 20
0
 11
139
 21
-4
  0
LINE
  8
0
 10
139
 20
-4
 11
143
 21
-4
  0
LINE
  8
0
 10
143
 20
-4
 11
143
 21
0
  0
LINE
  8
0
 10
143
 20
0
 11
147
 21
0
  0
LINE
  8
0
 10
147
 20
0
 11
147
 21
-4
  0
LINE
  8
0
 10
147
 20
-4
 11
151
 21
-4
  0
LINE
  8
0
 10
151
 20
-4
 11
151
 21
0
  0
LINE
  8
0
 10
151
 20
0
 11
155
 21
0
  0
LINE
  8
0
 10
155
 20
0
 11
155
 21
-4
  0
LINE
  8
0
 10
155
 20
-4
 11
159
 21
-4
  0
LINE
  8
0
 10
159
 20
-4
 11
159
 21
0
  0
LINE
  8
0
 10
159
 20
0
 11
163
 21
0
  0
LINE
  8
0
 10
163
 20
0
 11
163
 21
-4
  0
LINE
  8
0
 10
163
 20
-4
 11
167
 21
-4
  0
LINE
  8
0
 10
167
 20
-4
 11
167
 21
0
  0
LINE
  8
0
 10
167
 20
0
 11
171
 21
0
  0
LINE
  8
0
 10
171
 20
0
 11
171
 21
-4
  0
LINE
  8
0
 10
171
 20
-4
 11
175
 21
-4
  0
LINE
  8
0
 10
175
 20
-4
 11
175
 21
0
  0
LINE
  8
0
 10
175
 20
0
 11
179
 21
0
  0
LINE
  8
0
 10
179
 20
0
 11
179
 21
-4
  0
LINE
  8
0
 10
179
 20
-4
 11
183
 21
-4
  0
LINE
  8
0
 10
183
 20
-4
 11
183
 21
0
  0
LINE
  8
0
 10
183
 20
0
 11
187
 21
0
  0
LINE
  8
0
 10
187
 20
0
 11
187
 21
-4
  0
LINE
  8
0
 10
187
 20
-4
 11
191
 21
-4
  0
LINE
  8
0
 10
191
 20
-4
 11
191
 21
0
  0
LINE
  8
0
 10
191
 20
0
 11
195
 21
0
  0
LINE
  8
0
 10
195
 20
0
 11
195
 21
-4
  0
LINE
  8
0
 10
195
 20
-4
 11
199
 21
-4
  0
LINE
  8
0
 10
199
 20
-4
 11
199
 21
0
  0
LINE
  8
0
 10
199
 20
0
 11
203
 21
0
  0
LINE
  8
0
 10
203
 20
0
 11
203
 21
-4
  0
LINE
  8
0
 10
203
 20
-4
 11
207
 21
-4
  0
LINE
  8
0
 10
207
 20
-4
 11
207
 21
0
  0
LINE
  8
0
 10
207
 20
0
 11
211
 21
0
  0
LINE
  8
0
 10
211
 20
0
 11
211
 21
-4
  0
LINE
  8
0
 10
211
 20
-4
 11
215
 21
-4
  0
LINE
  8
0
 10
215
 20
-4
 11
215
 21
0
  0
LINE
  8
0
 10
215
 20
0
 11
219
 21
0
  0
LINE
  8
0
 10
219
 20
0
 11
219
 21
-4
  0
LINE
  8
0
 10
219
 20
-4
 11
223
 21
-4
  0
LINE
  8
0
 10
223
 20
-4
 11
223
 21
0
  0
LINE
  8
0
 10
223
 20
0
 11
227
 21
0
  0
LINE
  8
0
 10
227
 20
0
 11
227
 21
-4
  0
LINE
  8
0
 10
227
 20
-4
 11
231
 21
-4
  0
LINE
  8
0
 10
231
 20
-4
 11
231
 21
0
  0
LINE
  8
0
 10
231
 20
0
 11
235
 21
0
  0
LINE
  8
0
 10
235
 20
0
 11
235
 21
-4
  0
LINE
  8
0
 10
235
 20
-4
 11
239
 21
-4
  0
LINE
  8
0
 10
239
 20
-4
 11
239
 21
0
  0
LINE
  8
0
 10
239
 20
0
 11
243
 21
0
  0
LINE
  8
0
 10
243
 20
0
 11
243
 21
-4
  0
LINE
  8
0
 10
243
 20
-4
 11
247
 21
-4
  0
LINE
  8
0
 10
247
 20
-4
 11
247
 21
0
  0
LINE
  8
0
 10
247
 20
0
 11
251
 21
0
  0
LINE
  8
0
 10
251
 20
0
 11
251
 21
-4
  0
LINE
  8
0
 10
251
 20
-4
 11
255
 21
-4
  0
LINE
  8
0
 10
255
 20
-4
 11
255
 21
0
  0
LINE
  8
0
 10
255
 20
0
 11
259
 21
0
  0
LINE
  8
0
 10
259
 20
0
 11
259
 21
-4
  0
LINE
  8
0
 10
259
 20
-4
 11
263
 21
-4
  0
LINE
  8
0
 10
263
 20
-4
 11
263
 21
4
  0
LINE
  8
0
 10
263
 20
4
 11
267
 21
4
  0
LINE
  8
0
 10
267
 20
4
 11
267
 21
8
  0
LINE
  8
0
 10
267
 20
8
 11
263
 21
8
  0
LINE
  8
0
 10
263
 20
8
 11
263
 21
12
  0
LINE
  8
0
 10
263
 20
12
 11
267
 21
12
  0
LINE
  8
0
 10
267
 20
12
 11
267
 21
16
  0
LINE
  8
0
 10
267
 20
16
 11
263
 21
16
  0
LINE
  8
0
 10
263
 20
16
 11
263
 21
20
  0
LINE
  8
0
 10
263
 20
20
 11
267
 21
20
  0
LINE
  8
0
 10
267
 20
20
 11
267
 21
24
  0
LINE
  8
0
 10
267
 20
24
 11
263
 21
24
  0
LINE
  8
0
 10
263
 20
24
 11
263
 21
28
  0
LINE
  8
0
 10
263
 20
28
 11
267
 21
28
  0
LINE
  8
0
 10
267
 20
28
 11
267
 21
32
  0
LINE
  8
0
 10
267
 20
32
 11
263
 21
32
  0
LINE
  8
0
 10
263
 20
32
 11
263
 21
36
  0
LINE
  8
0
 10
263
 20
36
 11
267
 21
36
  0
LINE
  8
0
 10
267
 20
36
 11
267
 21
40
  0
LINE
  8
0
 10
267
 20
40
 11
263
 21
40
  0
LINE
  8
0
 10
263
 20
40
 11
263
 21
44
  0
LINE
  8
0
 10
263
 20
44
 11
267
 21
44
  0
LINE
  8
0
 10
267
 20
44
 11
267
 21
48
  0
LINE
  8
0
 10
267
 20
48
 11
263
 21
48
  0
LINE
  8
0
 10
263
 20
48
 11
263
 21
52
  0
LINE
  8
0
 10
263
 20
52
 11
267
 21
52
  0
LINE
  8
0
 10
267
 20
52
 11
267
 21
56
  0
LINE
  8
0
 10
267
 20
56
 11
263
 21
56
  0
LINE
  8
0
 10
263
 20
56
 11
263
 21
60
  0
LINE
  8
0
 10
263
 20
60
 11
267
 21
60
  0
LINE
  8
0
 10
267
 20
60
 11
267
 21
64
  0
LINE
  8
0
 10
267
 20
64
 11
263
 21
64
  0
LINE
  8
0
 10
263
 20
64
 11
263
 21
68
  0
LINE
  8
0
 10
263
 20
68
 11
267
 21
68
  0
LINE
  8
0
 10
267
 20
68
 11
267
 21
72
  0
LINE
  8
0
 10
267
 20
72
 11
263
 21
72
  0
LINE
  8
0
 10
263
 20
72
 11
263
 21
76
  0
LINE
  8
0
 10
263
 20
76
 11
267
 21
76
  0
LINE
  8
0
 10
267
 20
76
 11
267
 21
80
  0
LINE
  8
0
 10
267
 20
80
 11
263
 21
80
  0
LINE
  8
0
 10
263
 20
80
 11
263
 21
84
  0
LINE
  8
0
 10
263
 20
84
 11
267
 21
84
  0
LINE
  8
0
 10
267
 20
84
 11
267
 21
88
  0
LINE
  8
0
 10
267
 20
88
 11
263
 21
88
  0
LINE
  8
0
 10
263
 20
88
 11
263
 21
92
  0
LINE
  8
0
 10
263
 20
92
 11
267
 21
92
  0
LINE
  8
0
 10
267
 20
92
 11
267
 21
96
  0
LINE
  8
0
 10
267
 20
96
 11
263
 21
96
  0
LINE
  8
0
 10
263
 20
96
 11
263
 21
100
  0
LINE
  8
0
 10
263
 20
100
 11
267
 21
100
  0
LINE
  8
0
 10
267
 20
100
 11
267
 21
104
  0
LINE
  8
0
 10
267
 20
104
 11
263
 21
104
  0
LINE
  8
0
 10
263
 20
104
 11
263
 21
108
  0
LINE
  8
0
 10
263
 20
108
 11
267
 21
108
  0
LINE
  8
0
 10
267
 20
108
 11
267
 21
112
  0
LINE
  8
0
 10
267
 20
112
 11
263
 21
112
  0
LINE
  8
0
 10
263
 20
112
 11
263
 21
116
  0
LINE
  8
0
 10
263
 20
116
 11
267
 21
116
  0
LINE
  8
0
 10
267
 20
116
 11
267
 21
120
  0
LINE
  8
0
 10
267
 20
120
 11
263
 21
120
  0
LINE
  8
0
 10
263
 20
120
 11
263
 21
124
  0
LINE
  8
0
 10
263
 20
124
 11
267
 21
124
  0
LINE
  8
0
 10
267
 20
124
 11
267
 21
128
  0
LINE
  8
0
 10
267
 20
128
 11
263
 21
128
  0
LINE
  8
0
 10
263
 20
128
 11
263
 21
132
  0
LINE
  8
0
 10
263
 20
132
 11
259
 21
132
  0
LINE
  8
0
 10
259
 20
132
 11
259
 21
128
  0
LINE
  8
0
 10
259
 20
128
 11
255
 21
128
  0
LINE
  8
0
 10
255
 20
128
 11
255
 21
132
  0
LINE
  8
0
 10
255
 20
132
 11
251
 21
132
  0
LINE
  8
0
 10
251
 20
132
 11
251
 21
128
  0
LINE
  8
0
 10
251
 20
128
 11
247
 21
128
  0
LINE
  8
0
 10
247
 20
128
 11
247
 21
132
  0
LINE
  8
0
 10
247
 20
132
 11
243
 21
132
  0
LINE
  8
0
 10
243
 20
132
 11
243
 21
128
  0
LINE
  8
0
 10
243
 20
128
 11
239
 21
128
  0
LINE
  8
0
 10
239
 20
128
 11
239
 21
132
  0
LINE
  8
0
 10
239
 20
132
 11
235
 21
132
  0
LINE
  8
0
 10
235
 20
132
 11
235
 21
128
  0
LINE
  8
0
 10
235
 20
128
 11
231
 21
128
  0
LINE
  8
0
 10
231
 20
128
 11
231
 21
132
  0
LINE
  8
0
 10
231
 20
132
 11
227
 21
132
  0
LINE
  8
0
 10
227
 20
132
 11
227
 21
128
  0
LINE
  8
0
 10
227
 20
128
 11
223
 21
128
  0
LINE
  8
0
 10
223
 20
128
 11
223
 21
132
  0
LINE
  8
0
 10
223
 20
132
 11
219
 21
132
  0
LINE
  8
0
 10
219
 20
132
 11
219
 21
128
  0
LINE
  8
0
 10
219
 20
128
 11
215
 21
128
  0
LINE
  8
0
 10
215
 20
128
 11
215
 21
132
  0
LINE
  8
0
 10
215
 20
132
 11
211
 21
132
  0
LINE
  8
0
 10
211
 20
132
 11
211
 21
128
  0
LINE
  8
0
 10
211
 20
128
 11
207
 21
128
  0
LINE
  8
0
 10
207
 20
128
 11
207
 21
132
  0
LINE
  8
0
 10
207
 20
132
 11
203
 21
132
  0
LINE
  8
0
 10
203
 20
132
 11
203
 21
128
  0
LINE
  8
0
 10
203
 20
128
 11
199
 21
128
  0
LINE
  8
0
 10
199
 20
128
 11
199
 21
132
  0
LINE
  8
0
 10
199
 20
132
 11
195
 21
132
  0
LINE
  8
0
 10
195
 20
132
 11
195
 21
128
  0
LINE
  8
0
 10
195
 20
128
 11
191
 21
128
  0
LINE
  8
0
 10
191
 20
128
 11
191
 21
132
  0
LINE
  8
0
 10
191
 20
132
 11
187
 21
132
  0
LINE
  8
0
 10
187
 20
132
 11
187
 21
128
  0
LINE
  8
0
 10
187
 20
128
 11
183
 21
128
  0
LINE
  8
0
 10
183
 20
128
 11
183
 21
132
  0
LINE
  8
0
 10
183
 20
132
 11
179
 21
132
  0
LINE
  8
0
 10
179
 20
132
 11
179
 21
128
  0
LINE
  8
0
 10
179
 20
128
 11
175
 21
128
  0
LINE
  8
0
 10
175
 20
128
 11
175
 21
132
  0
LINE
  8
0
 10
175
 20
132
 11
171
 21
132
  0
LINE
  8
0
 10
171
 20
132
 11
171
 21
128
  0
LINE
  8
0
 10
171
 20
128
 11
167
 21
128
  0
LINE
  8
0
 10
167
 20
128
 11
167
 21
132
  0
LINE
  8
0
 10
167
 20
132
 11
163
 21
132
  0
LINE
  8
0
 10
163
 20
132
 11
163
 21
128
  0
LINE
  8
0
 10
163
 20
128
 11
159
 21
128
  0
LINE
  8
0
 10
159
 20
128
 11
159
 21
132
  0
LINE
  8
0
 10
159
 20
132
 11
155
 21
132
  0
LINE
  8
0
 10
155
 20
132
 11
155
 21
128
  0
LINE
  8
0
 10
155
 20
128
 11
151
 21
128
  0
LINE
  8
0
 10
151
 20
128
 11
151
 21
132
  0
LINE
  8
0
 10
151
 20
132
 11
147
 21
132
  0
LINE
  8
0
 10
147
 20
132
 11
147
 21
128
  0
LINE
  8
0
 10
147
 20
128
 11
143
 21
128
  0
LINE
  8
0
 10
143
 20
128
 11
143
 21
132
  0
LINE
  8
0
 10
143
 20
132
 11
139
 21
132
  0
LINE
  8
0
 10
139
 20
132
 11
139
 21
128
  0
LINE
  8
0
 10
139
 20
128
 11
135
 21
128
  0
LINE
  8
0
 10
135
 20
128
 11
135
 21
132
  0
LINE
  8
0
 10
135
 20
132
 11
131
 21
132
  0
LINE
  8
0
 10
131
 20
132
 11
131
 21
128
  0
LINE
  8
0
 10
131
 20
128
 11
127
 21
128
  0
LINE
  8
0
 10
127
 20
128
 11
127
 21
132
  0
LINE
  8
0
 10
127
 20
132
 11
123
 21
132
  0
LINE
  8
0
 10
123
 20
132
 11
123
 21
128
  0
LINE
  8
0
 10
123
 20
128
 11
119
 21
128
  0
LINE
  8
0
 10
119
 20
128
 11
119
 21
132
  0
LINE
  8
0
 10
119
 20
132
 11
115
 21
132
  0
LINE
  8
0
 10
115
 20
132
 11
115
 21
128
  0
LINE
  8
0
 10
115
 20
128
 11
111
 21
128
  0
LINE
  8
0
 10
111
 20
128
 11
111
 21
132
  0
LINE
  8
0
 10
111
 20
132
 11
107
 21
132
  0
LINE
  8
0
 10
107
 20
132
 11
107
 21
128
  0
LINE
  8
0
 10
107
 20
128
 11
103
 21
128
  0
LINE
  8
0
 10
103
 20
128
 11
103
 21
124
  0
LINE
  8
0
 10
103
 20
124
 11
99
 21
124
  0
LINE
  8
0
 10
99
 20
124
 11
99
 21
120
  0
LINE
  8
0
 10
99
 20
120
 11
103
 21
120
  0
LINE
  8
0
 10
103
 20
120
 11
103
 21
116
  0
LINE
  8
0
 10
103
 20
116
 11
99
 21
116
  0
LINE
  8
0
 10
99
 20
116
 11
99
 21
112
  0
LINE
  8
0
 10
99
 20
112
 11
103
 21
112
  0
LINE
  8
0
 10
103
 20
112
 11
103
 21
108
  0
LINE
  8
0
 10
103
 20
108
 11
99
 21
108
  0
LINE
  8
0
 10
99
 20
108
 11
99
 21
104
  0
LINE
  8
0
 10
99
 20
104
 11
103
 21
104
  0
LINE
  8
0
 10
103
 20
104
 11
103
 21
100
  0
LINE
  8
0
 10
103
 20
100
 11
99
 21
100
  0
LINE
  8
0
 10
99
 20
100
 11
99
 21
96
  0
LINE
  8
0
 10
99
 20
96
 11
103
 21
96
  0
LINE
  8
0
 10
103
 20
96
 11
103
 21
92
  0
LINE
  8
0
 10
103
 20
92
 11
99
 21
92
  0
LINE
  8
0
 10
99
 20
92
 11
99
 21
88
  0
LINE
  8
0
 10
99
 20
88
 11
103
 21
88
  0
LINE
  8
0
 10
103
 20
88
 11
103
 21
84
  0
LINE
  8
0
 10
103
 20
84
 11
99
 21
84
  0
LINE
  8
0
 10
99
 20
84
 11
99
 21
80
  0
LINE
  8
0
 10
99
 20
80
 11
103
 21
80
  0
LINE
  8
0
 10
103
 20
80
 11
103
 21
76
  0
LINE
  8
0
 10
103
 20
76
 11
99
 21
76
  0
LINE
  8
0
 10
99
 20
76
 11
99
 21
72
  0
LINE
  8
0
 10
99
 20
72
 11
103
 21
72
  0
LINE
  8
0
 10
103
 20
72
 11
103
 21
68
  0
LINE
  8
0
 10
103
 20
68
 11
99
 21
68
  0
LINE
  8
0
 10
99
 20
68
 11
99
 21
64
  0
LINE
  8
0
 10
99
 20
64
 11
103
 21
64
  0
LINE
  8
0
 10
103
 20
64
 11
103
 21
60
  0
LINE
  8
0
 10
103
 20
60
 11
99
 21
60
  0
LINE
  8
0
 10
99
 20
60
 11
99
 21
56
  0
LINE
  8
0
 10
99
 20
56
 11
103
 21
56
  0
LINE
  8
0
 10
103
 20
56
 11
103
 21
52
  0
LINE
  8
0
 10
103
 20
52
 11
99
 21
52
  0
LINE
  8
0
 10
99
 20
52
 11
99
 21
48
  0
LINE
  8
0
 10
99
 20
48
 11
103
 21
48
  0
LINE
  8
0
 10
103
 20
48
 11
103
 21
44
  0
LINE
  8
0
 10
103
 20
44
 11
99
 21
44
  0
LINE
  8
0
 10
99
 20
44
 11
99
 21
40
  0
LINE
  8
0
 10
99
 20
40
 11
103
 21
40
  0
LINE
  8
0
 10
103
 20
40
 11
103
 21
36
  0
LINE
  8
0
 10
103
 20
36
 11
99
 21
36
  0
LINE
  8
0
 10
99
 20
36
 11
99
 21
32
  0
LINE
  8
0
 10
99
 20
32
 11
103
 21
32
  0
LINE
  8
0
 10
103
 20
32
 11
103
 21
28
  0
LINE
  8
0
 10
103
 20
28
 11
99
 21
28
  0
LINE
  8
0
 10
99
 20
28
 11
99
 21
24
  0
LINE
  8
0
 10
99
 20
24
 11
103
 21
24
  0
LINE
  8
0
 10
103
 20
24
 11
103
 21
20
  0
LINE
  8
0
 10
103
 20
20
 11
99
 21
20
  0
LINE
  8
0
 10
99
 20
20
 11
99
 21
16
  0
LINE
  8
0
 10
99
 20
16
 11
103
 21
16
  0
LINE
  8
0
 10
103
 20
16
 11
103
 21
12
  0
LINE
  8
0
 10
103
 20
12
 11
99
 21
12
  0
LINE
  8
0
 10
99
 20
12
 11
99
 21
8
  0
LINE
  8
0
 10
99
 20
8
 11
103
 21
8
  0
LINE
  8
0
 10
103
 20
8
 11
103
 21
4
  0
LINE
  8
0
 10
103
 20
4
 11
99
 21
4
  0
LINE
  8
0
 10
99
 20
4
 11
99
 21
0
  0
LINE
  8
0
 10
99
 20
0
 11
107
 21
0
  0
LINE
  8
0
 10
107
 20
0
 11
107
 21
-4
  0
LINE
  8
0
 10
107
 20
-4
 11
111
 21
-4
  0
LINE
  8
0
 10
111
 20
-4
 11
111
 21
0
  0
LINE
  8
0
 10
52
 20
-4
 11
52
 21
0
  0
LINE
  8
0
 10
52
 20
0
 11
56
 21
0
  0
LINE
  8
0
 10
56
 20
0
 11
56
 21
-4
  0
LINE
  8
0
 10
56
 20
-4
 11
60
 21
-4
  0
LINE
  8
0
 10
60
 20
-4
 11
60
 21
0
  0
LINE
  8
0
 10
60
 20
0
 11
64
 21
0
  0
LINE
  8
0
 10
64
 20
0
 11
64
 21
-4
  0
LINE
  8
0
 10
64
 20
-4
 11
68
 21
-4
  0
LINE
  8
0
 10
68
 20
-4
 11
68
 21
0
  0
LINE
  8
0
 10
68
 20
0
 11
72
 21
0
  0
LINE
  8
0
 10
72
 20
0
 11
72
 21
-4
  0
LINE
  8
0
 10
72
 20
-4
 11
76
 21
-4
  0
LINE
  8
0
 10
76
 20
-4
 11
76
 21
0
  0
LINE
  8
0
 10
76
 20
0
 11
80
 21
0
  0
LINE
  8
0
 10
80
 20
0
 11
80
 21
-4
  0
LINE
  8
0
 10
80
 20
-4
 11
84
 21
-4
  0
LINE
  8
0
 10
84
 20
-4
 11
84
 21
0
  0
LINE
  8
0
 10
84
 20
0
 11
88
 21
0
  0
LINE
  8
0
 10
88
 20
0
 11
88
 21
-4
  0
LINE
  8
0
 10
88
 20
-4
 11
92
 21
-4
  0
LINE
  8
0
 10
92
 20
-4
 11
92
 21
0
  0
LINE
  8
0
 10
92
 20
0
 11
96
 21
0
  0
LINE
  8
0
 10
96
 20
0
 11
96
 21
132
  0
LINE
  8
0
 10
96
 20
132
 11
92
 21
132
  0
LINE
  8
0
 10
92
 20
132
 11
92
 21
128
  0
LINE
  8
0
 10
92
 20
128
 11
88
 21
128
  0
LINE
  8
0
 10
88
 20
128
 11
88
 21
132
  0
LINE
  8
0
 10
88
 20
132
 11
84
 21
132
  0
LINE
  8
0
 10
84
 20
132
 11
84
 21
128
  0
LINE
  8
0
 10
84
 20
128
 11
80
 21
128
  0
LINE
  8
0
 10
80
 20
128
 11
80
 21
132
  0
LINE
  8
0
 10
80
 20
132
 11
76
 21
132
  0
LINE
  8
0
 10
76
 20
132
 11
76
 21
128
  0
LINE
  8
0
 10
76
 20
128
 11
72
 21
128
  0
LINE
  8
0
 10
72
 20
128
 11
72
 21
132
  0
LINE
  8
0
 10
72
 20
132
 11
68
 21
132
  0
LINE
  8
0
 10
68
 20
132
 11
68
 21
128
  0
LINE
  8
0
 10
68
 20
128
 11
64
 21
128
  0
LINE
  8
0
 10
64
 20
128
 11
64
 21
132
  0
LINE
  8
0
 10
64
 20
132
 11
60
 21
132
  0
LINE
  8
0
 10
60
 20
132
 11
60
 21
128
  0
LINE
  8
0
 10
60
 20
128
 11
56
 21
128
  0
LINE
  8
0
 10
56
 20
128
 11
56
 21
132
  0
LINE
  8
0
 10
56
 20
132
 11
52
 21
132
  0
LINE
  8
0
 10
52
 20
132
 11
52
 21
128
  0
LINE
  8
0
 10
52
 20
128
 11
48
 21
128
  0
LINE
  8
0
 10
48
 20
128
 11
48
 21
132
  0
LINE
  8
0
 10
48
 20
132
 11
44
 21
132
  0
LINE
  8
0
 10
44
 20
132
 11
44
 21
128
  0
LINE
  8
0
 10
44
 20
128
 11
40
 21
128
  0
LINE
  8
0
 10
40
 20
128
 11
40
 21
132
  0
LINE
  8
0
 10
40
 20
132
 11
36
 21
132
  0
LINE
  8
0
 10
36
 20
132
 11
36
 21
128
  0
LINE
  8
0
 10
36
 20
128
 11
32
 21
128
  0
LINE
  8
0
 10
32
 20
128
 11
32
 21
132
  0
LINE
  8
0
 10
32
 20
132
 11
28
 21
132
  0
LINE
  8
0
 10
28
 20
132
 11
28
 21
128
  0
LINE
  8
0
 10
28
 20
128
 11
24
 21
128
  0
LINE
  8
0
 10
24
 20
128
 11
24
 21
132
  0
LINE
  8
0
 10
24
 20
132
 11
20
 21
132
  0
LINE
  8
0
 10
20
 20
132
 11
20
 21
128
  0
LINE
  8
0
 10
20
 20
128
 11
16
 21
128
  0
LINE
  8
0
 10
16
 20
128
 11
16
 21
132
  0
LINE
  8
0
 10
16
 20
132
 11
12
 21
132
  0
LINE
  8
0
 10
12
 20
132
 11
12
 21
128
  0
LINE
  8
0
 10
12
 20
128
 11
8
 21
128
  0
LINE
  8
0
 10
8
 20
128
 11
8
 21
132
  0
LINE
  8
0
 10
8
 20
132
 11
4
 21
132
  0
LINE
  8
0
 10
4
 20
132
 11
4
 21
128
  0
LINE
  8
0
 10
4
 20
128
 11
-4
 21
128
  0
LINE
  8
0
 10
-4
 20
128
 11
-4
 21
124
  0
LINE
  8
0
 10
-4
 20
124
 11
0
 21
124
  0
LINE
  8
0
 10
0
 20
124
 11
0
 21
120
  0
LINE
  8
0
 10
0
 20
120
 11
-4
 21
120
  0
LINE
  8
0
 10
-4
 20
120
 11
-4
 21
116
  0
LINE
  8
0
 10
-4
 20
116
 11
0
 21
116
  0
LINE
  8
0
 10
0
 20
116
 11
0
 21
112
  0
LINE
  8
0
 10
0
 20
112
 11
-4
 21
112
  0
LINE
  8
0
 10
-4
 20
112
 11
-4
 21
108
  0
LINE
  8
0
 10
-4
 20
108
 11
0
 21
108
  0
LINE
  8
0
 10
0
 20
108
 11
0
 21
104
  0
LINE
  8
0
 10
0
 20
104
 11
-4
 21
104
  0
LINE
  8
0
 10
-4
 20
104
 11
-4
 21
100
  0
LINE
  8
0
 10
-4
 20
100
 11
0
 21
100
  0
LINE
  8
0
 10
0
 20
100
 11
0
 21
28
  0
LINE
  8
0
 10
0
 20
28
 11
-4
 21
28
  0
LINE
  8
0
 10
-4
 20
28
 11
-4
 21
24
  0
LINE
  8
0
 10
-4
 20
24
 11
0
 21
24
  0
LINE
  8
0
 10
0
 20
24
 11
0
 21
20
  0
LINE
  8
0
 10
0
 20
20
 11
-4
 21
20
  0
LINE
  8
0
 10
-4
 20
20
 11
-4
 21
16
  0
LINE
  8
0
 10
-4
 20
16
 11
0
 21
16
  0
LINE
  8
0
 10
0
 20
16
 11
0
 21
12
  0
LINE
  8
0
 10
0
 20
12
 11
-4
 21
12
  0
LINE
  8
0
 10
-4
 20
12
 11
-4
 21
8
  0
LINE
  8
0
 10
-4
 20
8
 11
0
 21
8
  0
LINE
  8
0
 10
0
 20
8
 11
0
 21
4
  0
LINE
  8
0
 10
0
 20
4
 11
-4
 21
4
  0
LINE
  8
0
 10
-4
 20
4
 11
-4
 21
0
  0
LINE
  8
0
 10
-4
 20
0
 11
0
 21
0
  0
LINE
  8
0
 10
0
 20
0
 11
0
 21
-4
  0
LINE
  8
0
 10
0
 20
-4
 11
4
 21
-4
  0
LINE
  8
0
 10
4
 20
-4
 11
4
 21
0
  0
LINE
  8
0
 10
4
 20
0
 11
8
 21
0
  0
LINE
  8
0
 10
8
 20
0
 11
8
 21
-4
  0
LINE
  8
0
 10
8
 20
-4
 11
12
 21
-4
  0
LINE
  8
0
 10
12
 20
-4
 11
12
 21
0
  0
LINE
  8
0
 10
12
 20
0
 11
16
 21
0
  0
LINE
  8
0
 10
16
 20
0
 11
16
 21
-4
  0
LINE
  8
0
 10
16
 20
-4
 11
20
 21
-4
  0
LINE
  8
0
 10
20
 20
-4
 11
20
 21
0
  0
LINE
  8
0
 10
20
 20
0
 11
24
 21
0
  0
LINE
  8
0
 10
24
 20
0
 11
24
 21
-4
  0
LINE
  8
0
 10
24
 20
-4
 11
28
 21
-4
  0
LINE
  8
0
 10
28
 20
-4
 11
28
 21
0
  0
LINE
  8
0
 10
28
 20
0
 11
32
 21
0
  0
LINE
  8
0
 10
32
 20
0
 11
32
 21
-4
  0
LINE
  8
0
 10
32
 20
-4
 11
36
 21
-4
  0
LINE
  8
0
 10
36
 20
-4
 11
36
 21
0
  0
LINE
  8
0
 10
36
 20
0
 11
40
 21
0
  0
LINE
  8
0
 10
40
 20
0
 11
40
 21
-4
  0
LINE
  8
0
 10
40
 20
-4
 11
44
 21
-4
  0
LINE
  8
0
 10
44
 20
-4
 11
44
 21
4
  0
LINE
  8
0
 10
44
 20
4
 11
48
 21
4
  0
LINE
  8
0
 10
48
 20
4
 11
48
 21
-4
  0
LINE
  8
0
 10
48
 20
-4
 11
52
 21
-4
  0
LINE
  8
0
 10
44
 20
120
 11
44
 21
124
  0
LINE
  8
0
 10
44
 20
124
 11
48
 21
124
  0
LINE
  8
0
 10
48
 20
124
 11
48
 21
120
  0
LINE
  8
0
 10
48
 20
120
 11
44
 21
120
  0
LINE
  8
0
 10
44
 20
112
 11
44
 21
116
  0
LINE
  8
0
 10
44
 20
116
 11
48
 21
116
  0
LINE
  8
0
 10
48
 20
116
 11
48
 21
112
  0
LINE
  8
0
 10
48
 20
112
 11
44
 21
112
  0
LINE
  8
0
 10
44
 20
104
 11
44
 21
108
  0
LINE
  8
0
 10
44
 20
108
 11
48
 21
108
  0
LINE
  8
0
 10
48
 20
108
 11
48
 21
104
  0
LINE
  8
0
 10
48
 20
104
 11
44
 21
104
  0
LINE
  8
0
 10
44
 20
96
 11
44
 21
100
  0
LINE
  8
0
 10
44
 20
100
 11
48
 21
100
  0
LINE
  8
0
 10
48
 20
100
 11
48
 21
96
  0
LINE
  8
0
 10
48
 20
96
 11
44
 21
96
  0
LINE
  8
0
 10
44
 20
88
 11
44
 21
92
  0
LINE
  8
0
 10
44
 20
92
 11
48
 21
92
  0
LINE
  8
0
 10
48
 20
92
 11
48
 21
88
  0
LINE
  8
0
 10
48
 20
88
 11
44
 21
88
  0
LINE
  8
0
 10
44
 20
80
 11
44
 21
84
  0
LINE
  8
0
 10
44
 20
84
 11
48
 21
84
  0
LINE
  8
0
 10
48
 20
84
 11
48
 21
80
  0
LINE
  8
0
 10
48
 20
80
 11
44
 21
80
  0
LINE
  8
0
 10
44
 20
72
 11
44
 21
76
  0
LINE
  8
0
 10
44
 20
76
 11
48
 21
76
  0
LINE
  8
0
 10
48
 20
76
 11
48
 21
72
  0
LINE
  8
0
 10
48
 20
72
 11
44
 21
72
  0
LINE
  8
0
 10
44
 20
64
 11
44
 21
68
  0
LINE
  8
0
 10
44
 20
68
 11
48
 21
68
  0
LINE
  8
0
 10
48
 20
68
 11
48
 21
64
  0
LINE
  8
0
 10
48
 20
64
 11
44
 21
64
  0
LINE
  8
0
 10
44
 20
56
 11
44
 21
60
  0
LINE
  8
0
 10
44
 20
60
 11
48
 21
60
  0
LINE
  8
0
 10
48
 20
60
 11
48
 21
56
  0
LINE
  8
0
 10
48
 20
56
 11
44
 21
56
  0
LINE
  8
0
 10
44
 20
48
 11
44
 21
52
  0
LINE
  8
0
 10
44
 20
52
 11
48
 21
52
  0
LINE
  8
0
 10
48
 20
52
 11
48
 21
48
  0
LINE
  8
0
 10
48
 20
48
 11
44
 21
48
  0
LINE
  8
0
 10
44
 20
40
 11
44
 21
44
  0
LINE
  8
0
 10
44
 20
44
 11
48
 21
44
  0
LINE
  8
0
 10
48
 20
44
 11
48
 21
40
  0
LINE
  8
0
 10
48
 20
40
 11
44
 21
40
  0
LINE
  8
0
 10
44
 20
32
 11
44
 21
36
  0
LINE
  8
0
 10
44
 20
36
 11
48
 21
36
  0
LINE
  8
0
 10
48
 20
36
 11
48
 21
32
  0
LINE
  8
0
 10
48
 20
32
 11
44
 21
32
  0
LINE
  8
0
 10
44
 20
24
 11
44
 21
28
  0
LINE
  8
0
 10
44
 20
28
 11
48
 21
28
  0
LINE
  8
0
 10
48
 20
28
 11
48
 21
24
  0
LINE
  8
0
 10
48
 20
24
 11
44
 21
24
  0
LINE
  8
0
 10
44
 20
16
 11
44
 21
20
  0
LINE
  8
0
 10
44
 20
20
 11
48
 21
20
  0
LINE
  8
0
 10
48
 20
20
 11
48
 21
16
  0
LINE
  8
0
 10
48
 20
16
 11
44
 21
16
  0
LINE
  8
0
 10
44
 20
8
 11
44
 21
12
  0
LINE
  8
0
 10
44
 20
12
 11
48
 21
12
  0
LINE
  8
0
 10
48
 20
12
 11
48
 21
8
  0
LINE
  8
0
 10
48
 20
8
 11
44
 21
8
  0
LINE
  8
0
 10
164
 20
-53
 11
160
 21
-53
  0
LINE
  8
0
 10
160
 20
-53
 11
160
 21
-49
  0
LINE
  8
0
 10
160
 20
-49
 11
164
 21
-49
  0
LINE
  8
0
 10
164
 20
-49
 11
164
 21
-45
  0
LINE
  8
0
 10
164
 20
-45
 11
160
 21
-45
  0
LINE
  8
0
 10
160
 20
-45
 11
160
 21
-41
  0
LINE
  8
0
 10
160
 20
-41
 11
164
 21
-41
  0
LINE
  8
0
 10
164
 20
-41
 11
164
 21
-37
  0
LINE
  8
0
 10
164
 20
-37
 11
160
 21
-37
  0
LINE
  8
0
 10
160
 20
-37
 11
160
 21
-33
  0
LINE
  8
0
 10
160
 20
-33
 11
164
 21
-33
  0
LINE
  8
0
 10
164
 20
-33
 11
164
 21
-29
  0
LINE
  8
0
 10
164
 20
-29
 11
160
 21
-29
  0
LINE
  8
0
 10
160
 20
-29
 11
160
 21
-25
  0
LINE
  8
0
 10
160
 20
-25
 11
164
 21
-25
  0
LINE
  8
0
 10
164
 20
-25
 11
164
 21
-21
  0
LINE
  8
0
 10
164
 20
-21
 11
160
 21
-21
  0
LINE
  8
0
 10
160
 20
-21
 11
160
 21
-17
  0
LINE
  8
0
 10
160
 20
-17
 11
164
 21
-17
  0
LINE
  8
0
 10
164
 20
-17
 11
164
 21
-13
  0
LINE
  8
0
 10
164
 20
-13
 11
160
 21
-13
  0
LINE
  8
0
 10
160
 20
-13
 11
160
 21
-9
  0
LINE
  8
0
 10
160
 20
-9
 11
-4
 21
-9
  0
LINE
  8
0
 10
-4
 20
-9
 11
-4
 21
-13
  0
LINE
  8
0
 10
-4
 20
-13
 11
0
 21
-13
  0
LINE
  8
0
 10
0
 20
-13
 11
0
 21
-17
  0
LINE
  8
0
 10
0
 20
-17
 11
-4
 21
-17
  0
LINE
  8
0
 10
-4
 20
-17
 11
-4
 21
-21
  0
LINE
  8
0
 10
-4
 20
-21
 11
0
 21
-21
  0
LINE
  8
0
 10
0
 20
-21
 11
0
 21
-25
  0
LINE
  8
0
 10
0
 20
-25
 11
-4
 21
-25
  0
LINE
  8
0
 10
-4
 20
-25
 11
-4
 21
-29
  0
LINE
  8
0
 10
-4
 20
-29
 11
0
 21
-29
  0
LINE
  8
0
 10
0
 20
-29
 11
0
 21
-33
  0
LINE
  8
0
 10
0
 20
-33
 11
-4
 21
-33
  0
LINE
  8
0
 10
-4
 20
-33
 11
-4
 21
-37
  0
LINE
  8
0
 10
-4
 20
-37
 11
0
 21
-37
  0
LINE
  8
0
 10
0
 20
-37
 11
0
 21
-41
  0
LINE
  8
0
 10
0
 20
-41
 11
-4
 21
-41
  0
LINE
  8
0
 10
-4
 20
-41
 11
-4
 21
-45
  0
LINE
  8
0
 10
-4
 20
-45
 11
0
 21
-45
  0
LINE
  8
0
 10
0
 20
-45
 11
0
 21
-49
  0
LINE
  8
0
 10
0
 20
-49
 11
-4
 21
-49
  0
LINE
  8
0
 10
-4
 20
-49
 11
-4
 21
-53
  0
LINE
  8
0
 10
-4
 20
-53
 11
0
 21
-53
  0
LINE
  8
0
 10
0
 20
-53
 11
0
 21
-57
  0
LINE
  8
0
 10
0
 20
-57
 11
-4
 21
-57
  0
LINE
  8
0
 10
-4
 20
-57
 11
-4
 21
-61
  0
LINE
  8
0
 10
-4
 20
-61
 11
0
 21
-61
  0
LINE
  8
0
 10
0
 20
-61
 11
0
 21
-65
  0
LINE
  8
0
 10
0
 20
-65
 11
-4
 21
-65
  0
LINE
  8
0
 10
-4
 20
-65
 11
-4
 21
-69
  0
LINE
  8
0
 10
-4
 20
-69
 11
0
 21
-69
  0
LINE
  8
0
 10
0
 20
-69
 11
0
 21
-73
  0
LINE
  8
0
 10
0
 20
-73
 11
-4
 21
-73
  0
LINE
  8
0
 10
-4
 20
-73
 11
-4
 21
-77
  0
LINE
  8
0
 10
-4
 20
-77
 11
0
 21
-77
  0
LINE
  8
0
 10
0
 20
-77
 11
0
 21
-81
  0
LINE
  8
0
 10
0
 20
-81
 11
-4
 21
-81
  0
LINE
  8
0
 10
-4
 20
-81
 11
-4
 21
-85
  0
LINE
  8
0
 10
-4
 20
-85
 11
0
 21
-85
  0
LINE
  8
0
 10
0
 20
-85
 11
0
 21
-89
  0
LINE
  8
0
 10
0
 20
-89
 11
-4
 21
-89
  0
LINE
  8
0
 10
-4
 20
-89
 11
-4
 21
-93
  0
LINE
  8
0
 10
-4
 20
-93
 11
0
 21
-93
  0
LINE
  8
0
 10
0
 20
-93
 11
0
 21
-97
  0
LINE
  8
0
 10
0
 20
-97
 11
-4
 21
-97
  0
LINE
  8
0
 10
-4
 20
-97
 11
-4
 21
-101
  0
LINE
  8
0
 10
-4
 20
-101
 11
0
 21
-101
  0
LINE
  8
0
 10
0
 20
-101
 11
0
 21
-105
  0
LINE
  8
0
 10
0
 20
-105
 11
164
 21
-105
  0
LINE
  8
0
 10
164
 20
-105
 11
164
 21
-101
  0
LINE
  8
0
 10
164
 20
-101
 11
160
 21
-101
  0
LINE
  8
0
 10
160
 20
-101
 11
160
 21
-97
  0
LINE
  8
0
 10
160
 20
-97
 11
164
 21
-97
  0
LINE
  8
0
 10
164
 20
-97
 11
164
 21
-93
  0
LINE
  8
0
 10
164
 20
-93
 11
160
 21
-93
  0
LINE
  8
0
 10
160
 20
-93
 11
160
 21
-89
  0
LINE
  8
0
 10
160
 20
-89
 11
164
 21
-89
  0
LINE
  8
0
 10
164
 20
-89
 11
164
 21
-85
  0
LINE
  8
0
 10
164
 20
-85
 11
160
 21
-85
  0
LINE
  8
0
 10
160
 20
-85
 11
160
 21
-81
  0
LINE
  8
0
 10
160
 20
-81
 11
164
 21
-81
  0
LINE
  8
0
 10
164
 20
-81
 11
164
 21
-77
  0
LINE
  8
0
 10
164
 20
-77
 11
160
 21
-77
  0
LINE
  8
0
 10
160
 20
-77
 11
160
 21
-73
  0
LINE
  8
0
 10
160
 20
-73
 11
164
 21
-73
  0
LINE
  8
0
 10
164
 20
-73
 11
164
 21
-69
  0
LINE
  8
0
 10
164
 20
-69
 11
160
 21
-69
  0
LINE
  8
0
 10
160
 20
-69
 11
160
 21
-65
  0
LINE
  8
0
 10
160
 20
-65
 11
164
 21
-65
  0
LINE
  8
0
 10
164
 20
-65
 11
164
 21
-61
  0
LINE
  8
0
 10
164
 20
-61
 11
160
 21
-61
  0
LINE
  8
0
 10
160
 20
-61
 11
160
 21
-57
  0
LINE
  8
0
 10
160
 20
-57
 11
156
 21
-57
  0
LINE
  8
0
 10
156
 20
-57
 11
156
 21
-53
  0
LINE
  8
0
 10
156
 20
-53
 11
160
 21
-53
  0
LINE
  8
0
 10
160
 20
-53
 11
160
 21
-57
  0
LINE
  8
0
 10
160
 20
-57
 11
164
 21
-57
  0
LINE
  8
0
 10
164
 20
-57
 11
164
 21
-53
  0
LINE
  8
0
 10
84
 20
-57
 11
84
 21
-53
  0
LINE
  8
0
 10
84
 20
-53
 11
88
 21
-53
  0
LINE
  8
0
 10
88
 20
-53
 11
88
 21
-57
  0
LINE
  8
0
 10
88
 20
-57
 11
84
 21
-57
  0
LINE
  8
0
 10
148
 20
-57
 11
148
 21
-53
  0
LINE
  8
0
 10
148
 20
-53
 11
152
 21
-53
  0
LINE
  8
0
 10
152
 20
-53
 11
152
 21
-57
  0
LINE
  8
0
 10
152
 20
-57
 11
148
 21
-57
  0
LINE
  8
0
 10
140
 20
-57
 11
140
 21
-53
  0
LINE
  8
0
 10
140
 20
-53
 11
144
 21
-53
  0
LINE
  8
0
 10
144
 20
-53
 11
144
 21
-57
  0
LINE
  8
0
 10
144
 20
-57
 11
140
 21
-57
  0
LINE
  8
0
 10
132
 20
-57
 11
132
 21
-53
  0
LINE
  8
0
 10
132
 20
-53
 11
136
 21
-53
  0
LINE
  8
0
 10
136
 20
-53
 11
136
 21
-57
  0
LINE
  8
0
 10
136
 20
-57
 11
132
 21
-57
  0
LINE
  8
0
 10
124
 20
-57
 11
124
 21
-53
  0
LINE
  8
0
 10
124
 20
-53
 11
128
 21
-53
  0
LINE
  8
0
 10
128
 20
-53
 11
128
 21
-57
  0
LINE
  8
0
 10
128
 20
-57
 11
124
 21
-57
  0
LINE
  8
0
 10
116
 20
-57
 11
116
 21
-53
  0
LINE
  8
0
 10
116
 20
-53
 11
120
 21
-53
  0
LINE
  8
0
 10
120
 20
-53
 11
120
 21
-57
  0
LINE
  8
0
 10
120
 20
-57
 11
116
 21
-57
  0
LINE
  8
0
 10
108
 20
-57
 11
108
 21
-53
  0
LINE
  8
0
 10
108
 20
-53
 11
112
 21
-53
  0
LINE
  8
0
 10
112
 20
-53
 11
112
 21
-57
  0
LINE
  8
0
 10
112
 20
-57
 11
108
 21
-57
  0
LINE
  8
0
 10
100
 20
-57
 11
100
 21
-53
  0
LINE
  8
0
 10
100
 20
-53
 11
104
 21
-53
  0
LINE
  8
0
 10
104
 20
-53
 11
104
 21
-57
  0
LINE
  8
0
 10
104
 20
-57
 11
100
 21
-57
  0
LINE
  8
0
 10
92
 20
-57
 11
92
 21
-53
  0
LINE
  8
0
 10
92
 20
-53
 11
96
 21
-53
  0
LINE
  8
0
 10
96
 20
-53
 11
96
 21
-57
  0
LINE
  8
0
 10
96
 20
-57
 11
92
 21
-57
  0
LINE
  8
0
 10
4
 20
-57
 11
4
 21
-53
  0
LINE
  8
0
 10
4
 20
-53
 11
8
 21
-53
  0
LINE
  8
0
 10
8
 20
-53
 11
8
 21
-57
  0
LINE
  8
0
 10
8
 20
-57
 11
4
 21
-57
  0
LINE
  8
0
 10
76
 20
-57
 11
76
 21
-53
  0
LINE
  8
0
 10
76
 20
-53
 11
80
 21
-53
  0
LINE
  8
0
 10
80
 20
-53
 11
80
 21
-57
  0
LINE
  8
0
 10
80
 20
-57
 11
76
 21
-57
  0
LINE
  8
0
 10
68
 20
-57
 11
68
 21
-53
  0
LINE
  8
0
 10
68
 20
-53
 11
72
 21
-53
  0
LINE
  8
0
 10
72
 20
-53
 11
72
 21
-57
  0
LINE
  8
0
 10
72
 20
-57
 11
68
 21
-57
  0
LINE
  8
0
 10
60
 20
-57
 11
60
 21
-53
  0
LINE
  8
0
 10
60
 20
-53
 11
64
 21
-53
  0
LINE
  8
0
 10
64
 20
-53
 11
64
 21
-57
  0
LINE
  8
0
 10
64
 20
-57
 11
60
 21
-57
  0
LINE
  8
0
 10
52
 20
-57
 11
52
 21
-53
  0
LINE
  8
0
 10
52
 20
-53
 11
56
 21
-53
  0
LINE
  8
0
 10
56
 20
-53
 11
56
 21
-57
  0
LINE
  8
0
 10
56
 20
-57
 11
52
 21
-57
  0
LINE
  8
0
 10
44
 20
-57
 11
44
 21
-53
  0
LINE
  8
0
 10
44
 20
-53
 11
48
 21
-53
  0
LINE
  8
0
 10
48
 20
-53
 11
48
 21
-57
  0
LINE
  8
0
 10
48
 20
-57
 11
44
 21
-57
  0
LINE
  8
0
 10
36
 20
-57
 11
36
 21
-53
  0
LINE
  8
0
 10
36
 20
-53
 11
40
 21
-53
  0
LINE
  8
0
 10
40
 20
-53
 11
40
 21
-57
  0
LINE
  8
0
 10
40
 20
-57
 11
36
 21
-57
  0
LINE
  8
0
 10
28
 20
-57
 11
28
 21
-53
  0
LINE
  8
0
 10
28
 20
-53
 11
32
 21
-53
  0
LINE
  8
0
 10
32
 20
-53
 11
32
 21
-57
  0
LINE
  8
0
 10
32
 20
-57
 11
28
 21
-57
  0
LINE
  8
0
 10
20
 20
-57
 11
20
 21
-53
  0
LINE
  8
0
 10
20
 20
-53
 11
24
 21
-53
  0
LINE
  8
0
 10
24
 20
-53
 11
24
 21
-57
  0
LINE
  8
0
 10
24
 20
-57
 11
20
 21
-57
  0
LINE
  8
0
 10
12
 20
-57
 11
12
 21
-53
  0
LINE
  8
0
 10
12
 20
-53
 11
16
 21
-53
  0
LINE
  8
0
 10
16
 20
-53
 11
16
 21
-57
  0
LINE
  8
0
 10
16
 20
-57
 11
12
 21
-57
  0
ENDSEC
  0
SECTION
  2
OBJECTS
  0
DICTIONARY
  0
ENDSEC
  0
EOF
