  0
SECTION
  2
BLOCKS
  0
ENDSEC
  0
SECTION
  2
ENTITIES
  0
LINE
  8
0
 10
4
 20
81
 11
8
 21
81
  0
LINE
  8
0
 10
8
 20
81
 11
8
 21
77
  0
LINE
  8
0
 10
8
 20
77
 11
12
 21
77
  0
LINE
  8
0
 10
12
 20
77
 11
12
 21
81
  0
LINE
  8
0
 10
12
 20
81
 11
16
 21
81
  0
LINE
  8
0
 10
16
 20
81
 11
16
 21
77
  0
LINE
  8
0
 10
16
 20
77
 11
20
 21
77
  0
LINE
  8
0
 10
20
 20
77
 11
20
 21
81
  0
LINE
  8
0
 10
20
 20
81
 11
24
 21
81
  0
LINE
  8
0
 10
24
 20
81
 11
24
 21
77
  0
LINE
  8
0
 10
24
 20
77
 11
28
 21
77
  0
LINE
  8
0
 10
28
 20
77
 11
28
 21
81
  0
LINE
  8
0
 10
28
 20
81
 11
32
 21
81
  0
LINE
  8
0
 10
32
 20
81
 11
32
 21
77
  0
LINE
  8
0
 10
32
 20
77
 11
36
 21
77
  0
LINE
  8
0
 10
36
 20
77
 11
36
 21
81
  0
LINE
  8
0
 10
36
 20
81
 11
40
 21
81
  0
LINE
  8
0
 10
40
 20
81
 11
40
 21
77
  0
LINE
  8
0
 10
40
 20
77
 11
44
 21
77
  0
LINE
  8
0
 10
44
 20
77
 11
44
 21
81
  0
LINE
  8
0
 10
44
 20
81
 11
48
 21
81
  0
LINE
  8
0
 10
48
 20
81
 11
48
 21
77
  0
LINE
  8
0
 10
48
 20
77
 11
52
 21
77
  0
LINE
  8
0
 10
52
 20
77
 11
52
 21
81
  0
LINE
  8
0
 10
52
 20
81
 11
56
 21
81
  0
LINE
  8
0
 10
56
 20
81
 11
56
 21
77
  0
LINE
  8
0
 10
56
 20
77
 11
60
 21
77
  0
LINE
  8
0
 10
60
 20
77
 11
60
 21
81
  0
LINE
  8
0
 10
60
 20
81
 11
64
 21
81
  0
LINE
  8
0
 10
64
 20
81
 11
64
 21
77
  0
LINE
  8
0
 10
64
 20
77
 11
68
 21
77
  0
LINE
  8
0
 10
68
 20
77
 11
68
 21
81
  0
LINE
  8
0
 10
68
 20
81
 11
76
 21
81
  0
LINE
  8
0
 10
76
 20
81
 11
76
 21
85
  0
LINE
  8
0
 10
76
 20
85
 11
72
 21
85
  0
LINE
  8
0
 10
72
 20
85
 11
72
 21
89
  0
LINE
  8
0
 10
72
 20
89
 11
76
 21
89
  0
LINE
  8
0
 10
76
 20
89
 11
76
 21
93
  0
LINE
  8
0
 10
76
 20
93
 11
72
 21
93
  0
LINE
  8
0
 10
72
 20
93
 11
72
 21
97
  0
LINE
  8
0
 10
72
 20
97
 11
76
 21
97
  0
LINE
  8
0
 10
76
 20
97
 11
76
 21
101
  0
LINE
  8
0
 10
76
 20
101
 11
72
 21
101
  0
LINE
  8
0
 10
72
 20
101
 11
72
 21
105
  0
LINE
  8
0
 10
72
 20
105
 11
76
 21
105
  0
LINE
  8
0
 10
76
 20
105
 11
76
 21
109
  0
LINE
  8
0
 10
76
 20
109
 11
72
 21
109
  0
LINE
  8
0
 10
72
 20
109
 11
72
 21
113
  0
LINE
  8
0
 10
72
 20
113
 11
76
 21
113
  0
LINE
  8
0
 10
76
 20
113
 11
76
 21
117
  0
LINE
  8
0
 10
76
 20
117
 11
72
 21
117
  0
LINE
  8
0
 10
72
 20
117
 11
72
 21
121
  0
LINE
  8
0
 10
72
 20
121
 11
76
 21
121
  0
LINE
  8
0
 10
76
 20
121
 11
76
 21
125
  0
LINE
  8
0
 10
76
 20
125
 11
72
 21
125
  0
LINE
  8
0
 10
72
 20
125
 11
72
 21
129
  0
LINE
  8
0
 10
72
 20
129
 11
76
 21
129
  0
LINE
  8
0
 10
76
 20
129
 11
76
 21
133
  0
LINE
  8
0
 10
76
 20
133
 11
72
 21
133
  0
LINE
  8
0
 10
72
 20
133
 11
72
 21
137
  0
LINE
  8
0
 10
72
 20
137
 11
-4
 21
137
  0
LINE
  8
0
 10
-4
 20
137
 11
-4
 21
133
  0
LINE
  8
0
 10
-4
 20
133
 11
0
 21
133
  0
LINE
  8
0
 10
0
 20
133
 11
0
 21
129
  0
LINE
  8
0
 10
0
 20
129
 11
-4
 21
129
  0
LINE
  8
0
 10
-4
 20
129
 11
-4
 21
125
  0
LINE
  8
0
 10
-4
 20
125
 11
0
 21
125
  0
LINE
  8
0
 10
0
 20
125
 11
0
 21
121
  0
LINE
  8
0
 10
0
 20
121
 11
-4
 21
121
  0
LINE
  8
0
 10
-4
 20
121
 11
-4
 21
117
  0
LINE
  8
0
 10
-4
 20
117
 11
0
 21
117
  0
LINE
  8
0
 10
0
 20
117
 11
0
 21
113
  0
LINE
  8
0
 10
0
 20
113
 11
-4
 21
113
  0
LINE
  8
0
 10
-4
 20
113
 11
-4
 21
109
  0
LINE
  8
0
 10
-4
 20
109
 11
0
 21
109
  0
LINE
  8
0
 10
0
 20
109
 11
0
 21
105
  0
LINE
  8
0
 10
0
 20
105
 11
-4
 21
105
  0
LINE
  8
0
 10
-4
 20
105
 11
-4
 21
101
  0
LINE
  8
0
 10
-4
 20
101
 11
0
 21
101
  0
LINE
  8
0
 10
0
 20
101
 11
0
 21
97
  0
LINE
  8
0
 10
0
 20
97
 11
-4
 21
97
  0
LINE
  8
0
 10
-4
 20
97
 11
-4
 21
93
  0
LINE
  8
0
 10
-4
 20
93
 11
0
 21
93
  0
LINE
  8
0
 10
0
 20
93
 11
0
 21
89
  0
LINE
  8
0
 10
0
 20
89
 11
-4
 21
89
  0
LINE
  8
0
 10
-4
 20
89
 11
-4
 21
85
  0
LINE
  8
0
 10
-4
 20
85
 11
0
 21
85
  0
LINE
  8
0
 10
0
 20
85
 11
0
 21
77
  0
LINE
  8
0
 10
0
 20
77
 11
4
 21
77
  0
LINE
  8
0
 10
4
 20
77
 11
4
 21
81
  0
LINE
  8
0
 10
85
 20
0
 11
89
 21
0
  0
LINE
  8
0
 10
89
 20
0
 11
89
 21
-4
  0
LINE
  8
0
 10
89
 20
-4
 11
93
 21
-4
  0
LINE
  8
0
 10
93
 20
-4
 11
93
 21
0
  0
LINE
  8
0
 10
93
 20
0
 11
97
 21
0
  0
LINE
  8
0
 10
97
 20
0
 11
97
 21
-4
  0
LINE
  8
0
 10
97
 20
-4
 11
101
 21
-4
  0
LINE
  8
0
 10
101
 20
-4
 11
101
 21
0
  0
LINE
  8
0
 10
101
 20
0
 11
105
 21
0
  0
LINE
  8
0
 10
105
 20
0
 11
105
 21
-4
  0
LINE
  8
0
 10
105
 20
-4
 11
109
 21
-4
  0
LINE
  8
0
 10
109
 20
-4
 11
109
 21
0
  0
LINE
  8
0
 10
109
 20
0
 11
113
 21
0
  0
LINE
  8
0
 10
113
 20
0
 11
113
 21
-4
  0
LINE
  8
0
 10
113
 20
-4
 11
117
 21
-4
  0
LINE
  8
0
 10
117
 20
-4
 11
117
 21
0
  0
LINE
  8
0
 10
117
 20
0
 11
121
 21
0
  0
LINE
  8
0
 10
121
 20
0
 11
121
 21
-4
  0
LINE
  8
0
 10
121
 20
-4
 11
125
 21
-4
  0
LINE
  8
0
 10
125
 20
-4
 11
125
 21
0
  0
LINE
  8
0
 10
125
 20
0
 11
129
 21
0
  0
LINE
  8
0
 10
129
 20
0
 11
129
 21
-4
  0
LINE
  8
0
 10
129
 20
-4
 11
133
 21
-4
  0
LINE
  8
0
 10
133
 20
-4
 11
133
 21
0
  0
LINE
  8
0
 10
133
 20
0
 11
137
 21
0
  0
LINE
  8
0
 10
137
 20
0
 11
137
 21
76
  0
LINE
  8
0
 10
137
 20
76
 11
133
 21
76
  0
LINE
  8
0
 10
133
 20
76
 11
133
 21
72
  0
LINE
  8
0
 10
133
 20
72
 11
129
 21
72
  0
LINE
  8
0
 10
129
 20
72
 11
129
 21
76
  0
LINE
  8
0
 10
129
 20
76
 11
125
 21
76
  0
LINE
  8
0
 10
125
 20
76
 11
125
 21
72
  0
LINE
  8
0
 10
125
 20
72
 11
121
 21
72
  0
LINE
  8
0
 10
121
 20
72
 11
121
 21
76
  0
LINE
  8
0
 10
121
 20
76
 11
117
 21
76
  0
LINE
  8
0
 10
117
 20
76
 11
117
 21
72
  0
LINE
  8
0
 10
117
 20
72
 11
113
 21
72
  0
LINE
  8
0
 10
113
 20
72
 11
113
 21
76
  0
LINE
  8
0
 10
113
 20
76
 11
109
 21
76
  0
LINE
  8
0
 10
109
 20
76
 11
109
 21
72
  0
LINE
  8
0
 10
109
 20
72
 11
105
 21
72
  0
LINE
  8
0
 10
105
 20
72
 11
105
 21
76
  0
LINE
  8
0
 10
105
 20
76
 11
101
 21
76
  0
LINE
  8
0
 10
101
 20
76
 11
101
 21
72
  0
LINE
  8
0
 10
101
 20
72
 11
97
 21
72
  0
LINE
  8
0
 10
97
 20
72
 11
97
 21
76
  0
LINE
  8
0
 10
97
 20
76
 11
93
 21
76
  0
LINE
  8
0
 10
93
 20
76
 11
93
 21
72
  0
LINE
  8
0
 10
93
 20
72
 11
89
 21
72
  0
LINE
  8
0
 10
89
 20
72
 11
89
 21
76
  0
LINE
  8
0
 10
89
 20
76
 11
85
 21
76
  0
LINE
  8
0
 10
85
 20
76
 11
85
 21
72
  0
LINE
  8
0
 10
85
 20
72
 11
77
 21
72
  0
LINE
  8
0
 10
77
 20
72
 11
77
 21
68
  0
LINE
  8
0
 10
77
 20
68
 11
81
 21
68
  0
LINE
  8
0
 10
81
 20
68
 11
81
 21
64
  0
LINE
  8
0
 10
81
 20
64
 11
77
 21
64
  0
LINE
  8
0
 10
77
 20
64
 11
77
 21
60
  0
LINE
  8
0
 10
77
 20
60
 11
81
 21
60
  0
LINE
  8
0
 10
81
 20
60
 11
81
 21
56
  0
LINE
  8
0
 10
81
 20
56
 11
77
 21
56
  0
LINE
  8
0
 10
77
 20
56
 11
77
 21
52
  0
LINE
  8
0
 10
77
 20
52
 11
81
 21
52
  0
LINE
  8
0
 10
81
 20
52
 11
81
 21
48
  0
LINE
  8
0
 10
81
 20
48
 11
77
 21
48
  0
LINE
  8
0
 10
77
 20
48
 11
77
 21
44
  0
LINE
  8
0
 10
77
 20
44
 11
81
 21
44
  0
LINE
  8
0
 10
81
 20
44
 11
81
 21
40
  0
LINE
  8
0
 10
81
 20
40
 11
77
 21
40
  0
LINE
  8
0
 10
77
 20
40
 11
77
 21
36
  0
LINE
  8
0
 10
77
 20
36
 11
81
 21
36
  0
LINE
  8
0
 10
81
 20
36
 11
81
 21
32
  0
LINE
  8
0
 10
81
 20
32
 11
77
 21
32
  0
LINE
  8
0
 10
77
 20
32
 11
77
 21
28
  0
LINE
  8
0
 10
77
 20
28
 11
81
 21
28
  0
LINE
  8
0
 10
81
 20
28
 11
81
 21
24
  0
LINE
  8
0
 10
81
 20
24
 11
77
 21
24
  0
LINE
  8
0
 10
77
 20
24
 11
77
 21
20
  0
LINE
  8
0
 10
77
 20
20
 11
81
 21
20
  0
LINE
  8
0
 10
81
 20
20
 11
81
 21
16
  0
LINE
  8
0
 10
81
 20
16
 11
77
 21
16
  0
LINE
  8
0
 10
77
 20
16
 11
77
 21
12
  0
LINE
  8
0
 10
77
 20
12
 11
81
 21
12
  0
LINE
  8
0
 10
81
 20
12
 11
81
 21
8
  0
LINE
  8
0
 10
81
 20
8
 11
77
 21
8
  0
LINE
  8
0
 10
77
 20
8
 11
77
 21
4
  0
LINE
  8
0
 10
77
 20
4
 11
81
 21
4
  0
LINE
  8
0
 10
81
 20
4
 11
81
 21
-4
  0
LINE
  8
0
 10
81
 20
-4
 11
85
 21
-4
  0
LINE
  8
0
 10
85
 20
-4
 11
85
 21
0
  0
LINE
  8
0
 10
-61
 20
0
 11
-57
 21
0
  0
LINE
  8
0
 10
-57
 20
0
 11
-57
 21
-4
  0
LINE
  8
0
 10
-57
 20
-4
 11
-53
 21
-4
  0
LINE
  8
0
 10
-53
 20
-4
 11
-53
 21
0
  0
LINE
  8
0
 10
-53
 20
0
 11
-49
 21
0
  0
LINE
  8
0
 10
-49
 20
0
 11
-49
 21
-4
  0
LINE
  8
0
 10
-49
 20
-4
 11
-45
 21
-4
  0
LINE
  8
0
 10
-45
 20
-4
 11
-45
 21
0
  0
LINE
  8
0
 10
-45
 20
0
 11
-41
 21
0
  0
LINE
  8
0
 10
-41
 20
0
 11
-41
 21
-4
  0
LINE
  8
0
 10
-41
 20
-4
 11
-37
 21
-4
  0
LINE
  8
0
 10
-37
 20
-4
 11
-37
 21
0
  0
LINE
  8
0
 10
-37
 20
0
 11
-33
 21
0
  0
LINE
  8
0
 10
-33
 20
0
 11
-33
 21
-4
  0
LINE
  8
0
 10
-33
 20
-4
 11
-29
 21
-4
  0
LINE
  8
0
 10
-29
 20
-4
 11
-29
 21
0
  0
LINE
  8
0
 10
-29
 20
0
 11
-25
 21
0
  0
LINE
  8
0
 10
-25
 20
0
 11
-25
 21
-4
  0
LINE
  8
0
 10
-25
 20
-4
 11
-21
 21
-4
  0
LINE
  8
0
 10
-21
 20
-4
 11
-21
 21
0
  0
LINE
  8
0
 10
-21
 20
0
 11
-17
 21
0
  0
LINE
  8
0
 10
-17
 20
0
 11
-17
 21
-4
  0
LINE
  8
0
 10
-17
 20
-4
 11
-13
 21
-4
  0
LINE
  8
0
 10
-13
 20
-4
 11
-13
 21
0
  0
LINE
  8
0
 10
-13
 20
0
 11
-5
 21
0
  0
LINE
  8
0
 10
-5
 20
0
 11
-5
 21
4
  0
LINE
  8
0
 10
-5
 20
4
 11
-9
 21
4
  0
LINE
  8
0
 10
-9
 20
4
 11
-9
 21
8
  0
LINE
  8
0
 10
-9
 20
8
 11
-5
 21
8
  0
LINE
  8
0
 10
-5
 20
8
 11
-5
 21
12
  0
LINE
  8
0
 10
-5
 20
12
 11
-9
 21
12
  0
LINE
  8
0
 10
-9
 20
12
 11
-9
 21
16
  0
LINE
  8
0
 10
-9
 20
16
 11
-5
 21
16
  0
LINE
  8
0
 10
-5
 20
16
 11
-5
 21
20
  0
LINE
  8
0
 10
-5
 20
20
 11
-9
 21
20
  0
LINE
  8
0
 10
-9
 20
20
 11
-9
 21
24
  0
LINE
  8
0
 10
-9
 20
24
 11
-5
 21
24
  0
LINE
  8
0
 10
-5
 20
24
 11
-5
 21
28
  0
LINE
  8
0
 10
-5
 20
28
 11
-9
 21
28
  0
LINE
  8
0
 10
-9
 20
28
 11
-9
 21
32
  0
LINE
  8
0
 10
-9
 20
32
 11
-5
 21
32
  0
LINE
  8
0
 10
-5
 20
32
 11
-5
 21
36
  0
LINE
  8
0
 10
-5
 20
36
 11
-9
 21
36
  0
LINE
  8
0
 10
-9
 20
36
 11
-9
 21
40
  0
LINE
  8
0
 10
-9
 20
40
 11
-5
 21
40
  0
LINE
  8
0
 10
-5
 20
40
 11
-5
 21
44
  0
LINE
  8
0
 10
-5
 20
44
 11
-9
 21
44
  0
LINE
  8
0
 10
-9
 20
44
 11
-9
 21
48
  0
LINE
  8
0
 10
-9
 20
48
 11
-5
 21
48
  0
LINE
  8
0
 10
-5
 20
48
 11
-5
 21
52
  0
LINE
  8
0
 10
-5
 20
52
 11
-9
 21
52
  0
LINE
  8
0
 10
-9
 20
52
 11
-9
 21
56
  0
LINE
  8
0
 10
-9
 20
56
 11
-5
 21
56
  0
LINE
  8
0
 10
-5
 20
56
 11
-5
 21
60
  0
LINE
  8
0
 10
-5
 20
60
 11
-9
 21
60
  0
LINE
  8
0
 10
-9
 20
60
 11
-9
 21
64
  0
LINE
  8
0
 10
-9
 20
64
 11
-5
 21
64
  0
LINE
  8
0
 10
-5
 20
64
 11
-5
 21
68
  0
LINE
  8
0
 10
-5
 20
68
 11
-9
 21
68
  0
LINE
  8
0
 10
-9
 20
68
 11
-9
 21
76
  0
LINE
  8
0
 10
-9
 20
76
 11
-13
 21
76
  0
LINE
  8
0
 10
-13
 20
76
 11
-13
 21
72
  0
LINE
  8
0
 10
-13
 20
72
 11
-17
 21
72
  0
LINE
  8
0
 10
-17
 20
72
 11
-17
 21
76
  0
LINE
  8
0
 10
-17
 20
76
 11
-21
 21
76
  0
LINE
  8
0
 10
-21
 20
76
 11
-21
 21
72
  0
LINE
  8
0
 10
-21
 20
72
 11
-25
 21
72
  0
LINE
  8
0
 10
-25
 20
72
 11
-25
 21
76
  0
LINE
  8
0
 10
-25
 20
76
 11
-29
 21
76
  0
LINE
  8
0
 10
-29
 20
76
 11
-29
 21
72
  0
LINE
  8
0
 10
-29
 20
72
 11
-33
 21
72
  0
LINE
  8
0
 10
-33
 20
72
 11
-33
 21
76
  0
LINE
  8
0
 10
-33
 20
76
 11
-37
 21
76
  0
LINE
  8
0
 10
-37
 20
76
 11
-37
 21
72
  0
LINE
  8
0
 10
-37
 20
72
 11
-41
 21
72
  0
LINE
  8
0
 10
-41
 20
72
 11
-41
 21
76
  0
LINE
  8
0
 10
-41
 20
76
 11
-45
 21
76
  0
LINE
  8
0
 10
-45
 20
76
 11
-45
 21
72
  0
LINE
  8
0
 10
-45
 20
72
 11
-49
 21
72
  0
LINE
  8
0
 10
-49
 20
72
 11
-49
 21
76
  0
LINE
  8
0
 10
-49
 20
76
 11
-53
 21
76
  0
LINE
  8
0
 10
-53
 20
76
 11
-53
 21
72
  0
LINE
  8
0
 10
-53
 20
72
 11
-57
 21
72
  0
LINE
  8
0
 10
-57
 20
72
 11
-57
 21
76
  0
LINE
  8
0
 10
-57
 20
76
 11
-61
 21
76
  0
LINE
  8
0
 10
-61
 20
76
 11
-61
 21
72
  0
LINE
  8
0
 10
-61
 20
72
 11
-65
 21
72
  0
LINE
  8
0
 10
-65
 20
72
 11
-65
 21
-4
  0
LINE
  8
0
 10
-65
 20
-4
 11
-61
 21
-4
  0
LINE
  8
0
 10
-61
 20
-4
 11
-61
 21
0
  0
LINE
  8
0
 10
4
 20
0
 11
8
 21
0
  0
LINE
  8
0
 10
8
 20
0
 11
8
 21
-4
  0
LINE
  8
0
 10
8
 20
-4
 11
12
 21
-4
  0
LINE
  8
0
 10
12
 20
-4
 11
12
 21
0
  0
LINE
  8
0
 10
12
 20
0
 11
16
 21
0
  0
LINE
  8
0
 10
16
 20
0
 11
16
 21
-4
  0
LINE
  8
0
 10
16
 20
-4
 11
20
 21
-4
  0
LINE
  8
0
 10
20
 20
-4
 11
20
 21
0
  0
LINE
  8
0
 10
20
 20
0
 11
24
 21
0
  0
LINE
  8
0
 10
24
 20
0
 11
24
 21
-4
  0
LINE
  8
0
 10
24
 20
-4
 11
28
 21
-4
  0
LINE
  8
0
 10
28
 20
-4
 11
28
 21
0
  0
LINE
  8
0
 10
28
 20
0
 11
32
 21
0
  0
LINE
  8
0
 10
32
 20
0
 11
32
 21
-4
  0
LINE
  8
0
 10
32
 20
-4
 11
36
 21
-4
  0
LINE
  8
0
 10
36
 20
-4
 11
36
 21
0
  0
LINE
  8
0
 10
36
 20
0
 11
40
 21
0
  0
LINE
  8
0
 10
40
 20
0
 11
40
 21
-4
  0
LINE
  8
0
 10
40
 20
-4
 11
44
 21
-4
  0
LINE
  8
0
 10
44
 20
-4
 11
44
 21
0
  0
LINE
  8
0
 10
44
 20
0
 11
48
 21
0
  0
LINE
  8
0
 10
48
 20
0
 11
48
 21
-4
  0
LINE
  8
0
 10
48
 20
-4
 11
52
 21
-4
  0
LINE
  8
0
 10
52
 20
-4
 11
52
 21
0
  0
LINE
  8
0
 10
52
 20
0
 11
56
 21
0
  0
LINE
  8
0
 10
56
 20
0
 11
56
 21
-4
  0
LINE
  8
0
 10
56
 20
-4
 11
60
 21
-4
  0
LINE
  8
0
 10
60
 20
-4
 11
60
 21
0
  0
LINE
  8
0
 10
60
 20
0
 11
64
 21
0
  0
LINE
  8
0
 10
64
 20
0
 11
64
 21
-4
  0
LINE
  8
0
 10
64
 20
-4
 11
68
 21
-4
  0
LINE
  8
0
 10
68
 20
-4
 11
68
 21
0
  0
LINE
  8
0
 10
68
 20
0
 11
76
 21
0
  0
LINE
  8
0
 10
76
 20
0
 11
76
 21
4
  0
LINE
  8
0
 10
76
 20
4
 11
72
 21
4
  0
LINE
  8
0
 10
72
 20
4
 11
72
 21
8
  0
LINE
  8
0
 10
72
 20
8
 11
76
 21
8
  0
LINE
  8
0
 10
76
 20
8
 11
76
 21
12
  0
LINE
  8
0
 10
76
 20
12
 11
72
 21
12
  0
LINE
  8
0
 10
72
 20
12
 11
72
 21
16
  0
LINE
  8
0
 10
72
 20
16
 11
76
 21
16
  0
LINE
  8
0
 10
76
 20
16
 11
76
 21
20
  0
LINE
  8
0
 10
76
 20
20
 11
72
 21
20
  0
LINE
  8
0
 10
72
 20
20
 11
72
 21
24
  0
LINE
  8
0
 10
72
 20
24
 11
76
 21
24
  0
LINE
  8
0
 10
76
 20
24
 11
76
 21
28
  0
LINE
  8
0
 10
76
 20
28
 11
72
 21
28
  0
LINE
  8
0
 10
72
 20
28
 11
72
 21
32
  0
LINE
  8
0
 10
72
 20
32
 11
76
 21
32
  0
LINE
  8
0
 10
76
 20
32
 11
76
 21
36
  0
LINE
  8
0
 10
76
 20
36
 11
72
 21
36
  0
LINE
  8
0
 10
72
 20
36
 11
72
 21
40
  0
LINE
  8
0
 10
72
 20
40
 11
76
 21
40
  0
LINE
  8
0
 10
76
 20
40
 11
76
 21
44
  0
LINE
  8
0
 10
76
 20
44
 11
72
 21
44
  0
LINE
  8
0
 10
72
 20
44
 11
72
 21
48
  0
LINE
  8
0
 10
72
 20
48
 11
76
 21
48
  0
LINE
  8
0
 10
76
 20
48
 11
76
 21
52
  0
LINE
  8
0
 10
76
 20
52
 11
72
 21
52
  0
LINE
  8
0
 10
72
 20
52
 11
72
 21
56
  0
LINE
  8
0
 10
72
 20
56
 11
76
 21
56
  0
LINE
  8
0
 10
76
 20
56
 11
76
 21
60
  0
LINE
  8
0
 10
76
 20
60
 11
72
 21
60
  0
LINE
  8
0
 10
72
 20
60
 11
72
 21
64
  0
LINE
  8
0
 10
72
 20
64
 11
76
 21
64
  0
LINE
  8
0
 10
76
 20
64
 11
76
 21
68
  0
LINE
  8
0
 10
76
 20
68
 11
72
 21
68
  0
LINE
  8
0
 10
72
 20
68
 11
72
 21
76
  0
LINE
  8
0
 10
72
 20
76
 11
68
 21
76
  0
LINE
  8
0
 10
68
 20
76
 11
68
 21
72
  0
LINE
  8
0
 10
68
 20
72
 11
64
 21
72
  0
LINE
  8
0
 10
64
 20
72
 11
64
 21
76
  0
LINE
  8
0
 10
64
 20
76
 11
60
 21
76
  0
LINE
  8
0
 10
60
 20
76
 11
60
 21
72
  0
LINE
  8
0
 10
60
 20
72
 11
56
 21
72
  0
LINE
  8
0
 10
56
 20
72
 11
56
 21
76
  0
LINE
  8
0
 10
56
 20
76
 11
52
 21
76
  0
LINE
  8
0
 10
52
 20
76
 11
52
 21
72
  0
LINE
  8
0
 10
52
 20
72
 11
48
 21
72
  0
LINE
  8
0
 10
48
 20
72
 11
48
 21
76
  0
LINE
  8
0
 10
48
 20
76
 11
44
 21
76
  0
LINE
  8
0
 10
44
 20
76
 11
44
 21
72
  0
LINE
  8
0
 10
44
 20
72
 11
40
 21
72
  0
LINE
  8
0
 10
40
 20
72
 11
40
 21
76
  0
LINE
  8
0
 10
40
 20
76
 11
36
 21
76
  0
LINE
  8
0
 10
36
 20
76
 11
36
 21
72
  0
LINE
  8
0
 10
36
 20
72
 11
32
 21
72
  0
LINE
  8
0
 10
32
 20
72
 11
32
 21
76
  0
LINE
  8
0
 10
32
 20
76
 11
28
 21
76
  0
LINE
  8
0
 10
28
 20
76
 11
28
 21
72
  0
LINE
  8
0
 10
28
 20
72
 11
24
 21
72
  0
LINE
  8
0
 10
24
 20
72
 11
24
 21
76
  0
LINE
  8
0
 10
24
 20
76
 11
20
 21
76
  0
LINE
  8
0
 10
20
 20
76
 11
20
 21
72
  0
LINE
  8
0
 10
20
 20
72
 11
16
 21
72
  0
LINE
  8
0
 10
16
 20
72
 11
16
 21
76
  0
LINE
  8
0
 10
16
 20
76
 11
12
 21
76
  0
LINE
  8
0
 10
12
 20
76
 11
12
 21
72
  0
LINE
  8
0
 10
12
 20
72
 11
8
 21
72
  0
LINE
  8
0
 10
8
 20
72
 11
8
 21
76
  0
LINE
  8
0
 10
8
 20
76
 11
4
 21
76
  0
LINE
  8
0
 10
4
 20
76
 11
4
 21
72
  0
LINE
  8
0
 10
4
 20
72
 11
-4
 21
72
  0
LINE
  8
0
 10
-4
 20
72
 11
-4
 21
68
  0
LINE
  8
0
 10
-4
 20
68
 11
0
 21
68
  0
LINE
  8
0
 10
0
 20
68
 11
0
 21
64
  0
LINE
  8
0
 10
0
 20
64
 11
-4
 21
64
  0
LINE
  8
0
 10
-4
 20
64
 11
-4
 21
60
  0
LINE
  8
0
 10
-4
 20
60
 11
0
 21
60
  0
LINE
  8
0
 10
0
 20
60
 11
0
 21
56
  0
LINE
  8
0
 10
0
 20
56
 11
-4
 21
56
  0
LINE
  8
0
 10
-4
 20
56
 11
-4
 21
52
  0
LINE
  8
0
 10
-4
 20
52
 11
0
 21
52
  0
LINE
  8
0
 10
0
 20
52
 11
0
 21
48
  0
LINE
  8
0
 10
0
 20
48
 11
-4
 21
48
  0
LINE
  8
0
 10
-4
 20
48
 11
-4
 21
44
  0
LINE
  8
0
 10
-4
 20
44
 11
0
 21
44
  0
LINE
  8
0
 10
0
 20
44
 11
0
 21
40
  0
LINE
  8
0
 10
0
 20
40
 11
-4
 21
40
  0
LINE
  8
0
 10
-4
 20
40
 11
-4
 21
36
  0
LINE
  8
0
 10
-4
 20
36
 11
0
 21
36
  0
LINE
  8
0
 10
0
 20
36
 11
0
 21
32
  0
LINE
  8
0
 10
0
 20
32
 11
-4
 21
32
  0
LINE
  8
0
 10
-4
 20
32
 11
-4
 21
28
  0
LINE
  8
0
 10
-4
 20
28
 11
0
 21
28
  0
LINE
  8
0
 10
0
 20
28
 11
0
 21
24
  0
LINE
  8
0
 10
0
 20
24
 11
-4
 21
24
  0
LINE
  8
0
 10
-4
 20
24
 11
-4
 21
20
  0
LINE
  8
0
 10
-4
 20
20
 11
0
 21
20
  0
LINE
  8
0
 10
0
 20
20
 11
0
 21
16
  0
LINE
  8
0
 10
0
 20
16
 11
-4
 21
16
  0
LINE
  8
0
 10
-4
 20
16
 11
-4
 21
12
  0
LINE
  8
0
 10
-4
 20
12
 11
0
 21
12
  0
LINE
  8
0
 10
0
 20
12
 11
0
 21
8
  0
LINE
  8
0
 10
0
 20
8
 11
-4
 21
8
  0
LINE
  8
0
 10
-4
 20
8
 11
-4
 21
4
  0
LINE
  8
0
 10
-4
 20
4
 11
0
 21
4
  0
LINE
  8
0
 10
0
 20
4
 11
0
 21
-4
  0
LINE
  8
0
 10
0
 20
-4
 11
4
 21
-4
  0
LINE
  8
0
 10
4
 20
-4
 11
4
 21
0
  0
LINE
  8
0
 10
76
 20
-61
 11
72
 21
-61
  0
LINE
  8
0
 10
72
 20
-61
 11
72
 21
-57
  0
LINE
  8
0
 10
72
 20
-57
 11
76
 21
-57
  0
LINE
  8
0
 10
76
 20
-57
 11
76
 21
-53
  0
LINE
  8
0
 10
76
 20
-53
 11
72
 21
-53
  0
LINE
  8
0
 10
72
 20
-53
 11
72
 21
-49
  0
LINE
  8
0
 10
72
 20
-49
 11
76
 21
-49
  0
LINE
  8
0
 10
76
 20
-49
 11
76
 21
-45
  0
LINE
  8
0
 10
76
 20
-45
 11
72
 21
-45
  0
LINE
  8
0
 10
72
 20
-45
 11
72
 21
-41
  0
LINE
  8
0
 10
72
 20
-41
 11
76
 21
-41
  0
LINE
  8
0
 10
76
 20
-41
 11
76
 21
-37
  0
LINE
  8
0
 10
76
 20
-37
 11
72
 21
-37
  0
LINE
  8
0
 10
72
 20
-37
 11
72
 21
-33
  0
LINE
  8
0
 10
72
 20
-33
 11
76
 21
-33
  0
LINE
  8
0
 10
76
 20
-33
 11
76
 21
-29
  0
LINE
  8
0
 10
76
 20
-29
 11
72
 21
-29
  0
LINE
  8
0
 10
72
 20
-29
 11
72
 21
-25
  0
LINE
  8
0
 10
72
 20
-25
 11
76
 21
-25
  0
LINE
  8
0
 10
76
 20
-25
 11
76
 21
-21
  0
LINE
  8
0
 10
76
 20
-21
 11
72
 21
-21
  0
LINE
  8
0
 10
72
 20
-21
 11
72
 21
-17
  0
LINE
  8
0
 10
72
 20
-17
 11
76
 21
-17
  0
LINE
  8
0
 10
76
 20
-17
 11
76
 21
-13
  0
LINE
  8
0
 10
76
 20
-13
 11
72
 21
-13
  0
LINE
  8
0
 10
72
 20
-13
 11
72
 21
-5
  0
LINE
  8
0
 10
72
 20
-5
 11
68
 21
-5
  0
LINE
  8
0
 10
68
 20
-5
 11
68
 21
-9
  0
LINE
  8
0
 10
68
 20
-9
 11
64
 21
-9
  0
LINE
  8
0
 10
64
 20
-9
 11
64
 21
-5
  0
LINE
  8
0
 10
64
 20
-5
 11
60
 21
-5
  0
LINE
  8
0
 10
60
 20
-5
 11
60
 21
-9
  0
LINE
  8
0
 10
60
 20
-9
 11
56
 21
-9
  0
LINE
  8
0
 10
56
 20
-9
 11
56
 21
-5
  0
LINE
  8
0
 10
56
 20
-5
 11
52
 21
-5
  0
LINE
  8
0
 10
52
 20
-5
 11
52
 21
-9
  0
LINE
  8
0
 10
52
 20
-9
 11
48
 21
-9
  0
LINE
  8
0
 10
48
 20
-9
 11
48
 21
-5
  0
LINE
  8
0
 10
48
 20
-5
 11
44
 21
-5
  0
LINE
  8
0
 10
44
 20
-5
 11
44
 21
-9
  0
LINE
  8
0
 10
44
 20
-9
 11
40
 21
-9
  0
LINE
  8
0
 10
40
 20
-9
 11
40
 21
-5
  0
LINE
  8
0
 10
40
 20
-5
 11
36
 21
-5
  0
LINE
  8
0
 10
36
 20
-5
 11
36
 21
-9
  0
LINE
  8
0
 10
36
 20
-9
 11
32
 21
-9
  0
LINE
  8
0
 10
32
 20
-9
 11
32
 21
-5
  0
LINE
  8
0
 10
32
 20
-5
 11
28
 21
-5
  0
LINE
  8
0
 10
28
 20
-5
 11
28
 21
-9
  0
LINE
  8
0
 10
28
 20
-9
 11
24
 21
-9
  0
LINE
  8
0
 10
24
 20
-9
 11
24
 21
-5
  0
LINE
  8
0
 10
24
 20
-5
 11
20
 21
-5
  0
LINE
  8
0
 10
20
 20
-5
 11
20
 21
-9
  0
LINE
  8
0
 10
20
 20
-9
 11
16
 21
-9
  0
LINE
  8
0
 10
16
 20
-9
 11
16
 21
-5
  0
LINE
  8
0
 10
16
 20
-5
 11
12
 21
-5
  0
LINE
  8
0
 10
12
 20
-5
 11
12
 21
-9
  0
LINE
  8
0
 10
12
 20
-9
 11
8
 21
-9
  0
LINE
  8
0
 10
8
 20
-9
 11
8
 21
-5
  0
LINE
  8
0
 10
8
 20
-5
 11
4
 21
-5
  0
LINE
  8
0
 10
4
 20
-5
 11
4
 21
-9
  0
LINE
  8
0
 10
4
 20
-9
 11
-4
 21
-9
  0
LINE
  8
0
 10
-4
 20
-9
 11
-4
 21
-13
  0
LINE
  8
0
 10
-4
 20
-13
 11
0
 21
-13
  0
LINE
  8
0
 10
0
 20
-13
 11
0
 21
-17
  0
LINE
  8
0
 10
0
 20
-17
 11
-4
 21
-17
  0
LINE
  8
0
 10
-4
 20
-17
 11
-4
 21
-21
  0
LINE
  8
0
 10
-4
 20
-21
 11
0
 21
-21
  0
LINE
  8
0
 10
0
 20
-21
 11
0
 21
-25
  0
LINE
  8
0
 10
0
 20
-25
 11
-4
 21
-25
  0
LINE
  8
0
 10
-4
 20
-25
 11
-4
 21
-29
  0
LINE
  8
0
 10
-4
 20
-29
 11
0
 21
-29
  0
LINE
  8
0
 10
0
 20
-29
 11
0
 21
-33
  0
LINE
  8
0
 10
0
 20
-33
 11
-4
 21
-33
  0
LINE
  8
0
 10
-4
 20
-33
 11
-4
 21
-37
  0
LINE
  8
0
 10
-4
 20
-37
 11
0
 21
-37
  0
LINE
  8
0
 10
0
 20
-37
 11
0
 21
-41
  0
LINE
  8
0
 10
0
 20
-41
 11
-4
 21
-41
  0
LINE
  8
0
 10
-4
 20
-41
 11
-4
 21
-45
  0
LINE
  8
0
 10
-4
 20
-45
 11
0
 21
-45
  0
LINE
  8
0
 10
0
 20
-45
 11
0
 21
-49
  0
LINE
  8
0
 10
0
 20
-49
 11
-4
 21
-49
  0
LINE
  8
0
 10
-4
 20
-49
 11
-4
 21
-53
  0
LINE
  8
0
 10
-4
 20
-53
 11
0
 21
-53
  0
LINE
  8
0
 10
0
 20
-53
 11
0
 21
-57
  0
LINE
  8
0
 10
0
 20
-57
 11
-4
 21
-57
  0
LINE
  8
0
 10
-4
 20
-57
 11
-4
 21
-61
  0
LINE
  8
0
 10
-4
 20
-61
 11
0
 21
-61
  0
LINE
  8
0
 10
0
 20
-61
 11
0
 21
-65
  0
LINE
  8
0
 10
0
 20
-65
 11
76
 21
-65
  0
LINE
  8
0
 10
76
 20
-65
 11
76
 21
-61
  0
ENDSEC
  0
SECTION
  2
OBJECTS
  0
DICTIONARY
  0
ENDSEC
  0
EOF
