  0
SECTION
  2
BLOCKS
  0
ENDSEC
  0
SECTION
  2
ENTITIES
  0
LINE
  8
0
 10
4
 20
41
 11
8
 21
41
  0
LINE
  8
0
 10
8
 20
41
 11
8
 21
37
  0
LINE
  8
0
 10
8
 20
37
 11
12
 21
37
  0
LINE
  8
0
 10
12
 20
37
 11
12
 21
41
  0
LINE
  8
0
 10
12
 20
41
 11
16
 21
41
  0
LINE
  8
0
 10
16
 20
41
 11
16
 21
37
  0
LINE
  8
0
 10
16
 20
37
 11
20
 21
37
  0
LINE
  8
0
 10
20
 20
37
 11
20
 21
41
  0
LINE
  8
0
 10
20
 20
41
 11
24
 21
41
  0
LINE
  8
0
 10
24
 20
41
 11
24
 21
37
  0
LINE
  8
0
 10
24
 20
37
 11
28
 21
37
  0
LINE
  8
0
 10
28
 20
37
 11
28
 21
41
  0
LINE
  8
0
 10
28
 20
41
 11
32
 21
41
  0
LINE
  8
0
 10
32
 20
41
 11
32
 21
37
  0
LINE
  8
0
 10
32
 20
37
 11
36
 21
37
  0
LINE
  8
0
 10
36
 20
37
 11
36
 21
41
  0
LINE
  8
0
 10
36
 20
41
 11
40
 21
41
  0
LINE
  8
0
 10
40
 20
41
 11
40
 21
37
  0
LINE
  8
0
 10
40
 20
37
 11
44
 21
37
  0
LINE
  8
0
 10
44
 20
37
 11
44
 21
41
  0
LINE
  8
0
 10
44
 20
41
 11
48
 21
41
  0
LINE
  8
0
 10
48
 20
41
 11
48
 21
37
  0
LINE
  8
0
 10
48
 20
37
 11
52
 21
37
  0
LINE
  8
0
 10
52
 20
37
 11
52
 21
41
  0
LINE
  8
0
 10
52
 20
41
 11
56
 21
41
  0
LINE
  8
0
 10
56
 20
41
 11
56
 21
37
  0
LINE
  8
0
 10
56
 20
37
 11
60
 21
37
  0
LINE
  8
0
 10
60
 20
37
 11
60
 21
41
  0
LINE
  8
0
 10
60
 20
41
 11
64
 21
41
  0
LINE
  8
0
 10
64
 20
41
 11
64
 21
37
  0
LINE
  8
0
 10
64
 20
37
 11
68
 21
37
  0
LINE
  8
0
 10
68
 20
37
 11
68
 21
41
  0
LINE
  8
0
 10
68
 20
41
 11
76
 21
41
  0
LINE
  8
0
 10
76
 20
41
 11
76
 21
45
  0
LINE
  8
0
 10
76
 20
45
 11
72
 21
45
  0
LINE
  8
0
 10
72
 20
45
 11
72
 21
49
  0
LINE
  8
0
 10
72
 20
49
 11
76
 21
49
  0
LINE
  8
0
 10
76
 20
49
 11
76
 21
53
  0
LINE
  8
0
 10
76
 20
53
 11
72
 21
53
  0
LINE
  8
0
 10
72
 20
53
 11
72
 21
57
  0
LINE
  8
0
 10
72
 20
57
 11
76
 21
57
  0
LINE
  8
0
 10
76
 20
57
 11
76
 21
61
  0
LINE
  8
0
 10
76
 20
61
 11
72
 21
61
  0
LINE
  8
0
 10
72
 20
61
 11
72
 21
65
  0
LINE
  8
0
 10
72
 20
65
 11
76
 21
65
  0
LINE
  8
0
 10
76
 20
65
 11
76
 21
69
  0
LINE
  8
0
 10
76
 20
69
 11
72
 21
69
  0
LINE
  8
0
 10
72
 20
69
 11
72
 21
72
  0
LINE
  8
0
 10
72
 20
72
 11
-4
 21
72
  0
LINE
  8
0
 10
-4
 20
72
 11
-4
 21
68
  0
LINE
  8
0
 10
-4
 20
68
 11
0
 21
68
  0
LINE
  8
0
 10
0
 20
68
 11
0
 21
64
  0
LINE
  8
0
 10
0
 20
64
 11
-4
 21
64
  0
LINE
  8
0
 10
-4
 20
64
 11
-4
 21
60
  0
LINE
  8
0
 10
-4
 20
60
 11
0
 21
60
  0
LINE
  8
0
 10
0
 20
60
 11
0
 21
56
  0
LINE
  8
0
 10
0
 20
56
 11
-4
 21
56
  0
LINE
  8
0
 10
-4
 20
56
 11
-4
 21
52
  0
LINE
  8
0
 10
-4
 20
52
 11
0
 21
52
  0
LINE
  8
0
 10
0
 20
52
 11
0
 21
48
  0
LINE
  8
0
 10
0
 20
48
 11
-4
 21
48
  0
LINE
  8
0
 10
-4
 20
48
 11
-4
 21
44
  0
LINE
  8
0
 10
-4
 20
44
 11
0
 21
44
  0
LINE
  8
0
 10
0
 20
44
 11
0
 21
37
  0
LINE
  8
0
 10
0
 20
37
 11
4
 21
37
  0
LINE
  8
0
 10
4
 20
37
 11
4
 21
41
  0
LINE
  8
0
 10
4
 20
0
 11
8
 21
0
  0
LINE
  8
0
 10
8
 20
0
 11
8
 21
-4
  0
LINE
  8
0
 10
8
 20
-4
 11
12
 21
-4
  0
LINE
  8
0
 10
12
 20
-4
 11
12
 21
0
  0
LINE
  8
0
 10
12
 20
0
 11
16
 21
0
  0
LINE
  8
0
 10
16
 20
0
 11
16
 21
-4
  0
LINE
  8
0
 10
16
 20
-4
 11
20
 21
-4
  0
LINE
  8
0
 10
20
 20
-4
 11
20
 21
0
  0
LINE
  8
0
 10
20
 20
0
 11
24
 21
0
  0
LINE
  8
0
 10
24
 20
0
 11
24
 21
-4
  0
LINE
  8
0
 10
24
 20
-4
 11
28
 21
-4
  0
LINE
  8
0
 10
28
 20
-4
 11
28
 21
0
  0
LINE
  8
0
 10
28
 20
0
 11
32
 21
0
  0
LINE
  8
0
 10
32
 20
0
 11
32
 21
-4
  0
LINE
  8
0
 10
32
 20
-4
 11
36
 21
-4
  0
LINE
  8
0
 10
36
 20
-4
 11
36
 21
0
  0
LINE
  8
0
 10
36
 20
0
 11
40
 21
0
  0
LINE
  8
0
 10
40
 20
0
 11
40
 21
-4
  0
LINE
  8
0
 10
40
 20
-4
 11
44
 21
-4
  0
LINE
  8
0
 10
44
 20
-4
 11
44
 21
0
  0
LINE
  8
0
 10
44
 20
0
 11
48
 21
0
  0
LINE
  8
0
 10
48
 20
0
 11
48
 21
-4
  0
LINE
  8
0
 10
48
 20
-4
 11
52
 21
-4
  0
LINE
  8
0
 10
52
 20
-4
 11
52
 21
0
  0
LINE
  8
0
 10
52
 20
0
 11
56
 21
0
  0
LINE
  8
0
 10
56
 20
0
 11
56
 21
-4
  0
LINE
  8
0
 10
56
 20
-4
 11
60
 21
-4
  0
LINE
  8
0
 10
60
 20
-4
 11
60
 21
0
  0
LINE
  8
0
 10
60
 20
0
 11
64
 21
0
  0
LINE
  8
0
 10
64
 20
0
 11
64
 21
-4
  0
LINE
  8
0
 10
64
 20
-4
 11
68
 21
-4
  0
LINE
  8
0
 10
68
 20
-4
 11
68
 21
0
  0
LINE
  8
0
 10
68
 20
0
 11
76
 21
0
  0
LINE
  8
0
 10
76
 20
0
 11
76
 21
4
  0
LINE
  8
0
 10
76
 20
4
 11
72
 21
4
  0
LINE
  8
0
 10
72
 20
4
 11
72
 21
8
  0
LINE
  8
0
 10
72
 20
8
 11
76
 21
8
  0
LINE
  8
0
 10
76
 20
8
 11
76
 21
12
  0
LINE
  8
0
 10
76
 20
12
 11
72
 21
12
  0
LINE
  8
0
 10
72
 20
12
 11
72
 21
16
  0
LINE
  8
0
 10
72
 20
16
 11
76
 21
16
  0
LINE
  8
0
 10
76
 20
16
 11
76
 21
20
  0
LINE
  8
0
 10
76
 20
20
 11
72
 21
20
  0
LINE
  8
0
 10
72
 20
20
 11
72
 21
24
  0
LINE
  8
0
 10
72
 20
24
 11
76
 21
24
  0
LINE
  8
0
 10
76
 20
24
 11
76
 21
28
  0
LINE
  8
0
 10
76
 20
28
 11
72
 21
28
  0
LINE
  8
0
 10
72
 20
28
 11
72
 21
36
  0
LINE
  8
0
 10
72
 20
36
 11
68
 21
36
  0
LINE
  8
0
 10
68
 20
36
 11
68
 21
32
  0
LINE
  8
0
 10
68
 20
32
 11
64
 21
32
  0
LINE
  8
0
 10
64
 20
32
 11
64
 21
36
  0
LINE
  8
0
 10
64
 20
36
 11
60
 21
36
  0
LINE
  8
0
 10
60
 20
36
 11
60
 21
32
  0
LINE
  8
0
 10
60
 20
32
 11
56
 21
32
  0
LINE
  8
0
 10
56
 20
32
 11
56
 21
36
  0
LINE
  8
0
 10
56
 20
36
 11
52
 21
36
  0
LINE
  8
0
 10
52
 20
36
 11
52
 21
32
  0
LINE
  8
0
 10
52
 20
32
 11
48
 21
32
  0
LINE
  8
0
 10
48
 20
32
 11
48
 21
36
  0
LINE
  8
0
 10
48
 20
36
 11
44
 21
36
  0
LINE
  8
0
 10
44
 20
36
 11
44
 21
32
  0
LINE
  8
0
 10
44
 20
32
 11
40
 21
32
  0
LINE
  8
0
 10
40
 20
32
 11
40
 21
36
  0
LINE
  8
0
 10
40
 20
36
 11
36
 21
36
  0
LINE
  8
0
 10
36
 20
36
 11
36
 21
32
  0
LINE
  8
0
 10
36
 20
32
 11
32
 21
32
  0
LINE
  8
0
 10
32
 20
32
 11
32
 21
36
  0
LINE
  8
0
 10
32
 20
36
 11
28
 21
36
  0
LINE
  8
0
 10
28
 20
36
 11
28
 21
32
  0
LINE
  8
0
 10
28
 20
32
 11
24
 21
32
  0
LINE
  8
0
 10
24
 20
32
 11
24
 21
36
  0
LINE
  8
0
 10
24
 20
36
 11
20
 21
36
  0
LINE
  8
0
 10
20
 20
36
 11
20
 21
32
  0
LINE
  8
0
 10
20
 20
32
 11
16
 21
32
  0
LINE
  8
0
 10
16
 20
32
 11
16
 21
36
  0
LINE
  8
0
 10
16
 20
36
 11
12
 21
36
  0
LINE
  8
0
 10
12
 20
36
 11
12
 21
32
  0
LINE
  8
0
 10
12
 20
32
 11
8
 21
32
  0
LINE
  8
0
 10
8
 20
32
 11
8
 21
36
  0
LINE
  8
0
 10
8
 20
36
 11
4
 21
36
  0
LINE
  8
0
 10
4
 20
36
 11
4
 21
32
  0
LINE
  8
0
 10
4
 20
32
 11
-4
 21
32
  0
LINE
  8
0
 10
-4
 20
32
 11
-4
 21
28
  0
LINE
  8
0
 10
-4
 20
28
 11
0
 21
28
  0
LINE
  8
0
 10
0
 20
28
 11
0
 21
24
  0
LINE
  8
0
 10
0
 20
24
 11
-4
 21
24
  0
LINE
  8
0
 10
-4
 20
24
 11
-4
 21
20
  0
LINE
  8
0
 10
-4
 20
20
 11
0
 21
20
  0
LINE
  8
0
 10
0
 20
20
 11
0
 21
16
  0
LINE
  8
0
 10
0
 20
16
 11
-4
 21
16
  0
LINE
  8
0
 10
-4
 20
16
 11
-4
 21
12
  0
LINE
  8
0
 10
-4
 20
12
 11
0
 21
12
  0
LINE
  8
0
 10
0
 20
12
 11
0
 21
8
  0
LINE
  8
0
 10
0
 20
8
 11
-4
 21
8
  0
LINE
  8
0
 10
-4
 20
8
 11
-4
 21
4
  0
LINE
  8
0
 10
-4
 20
4
 11
0
 21
4
  0
LINE
  8
0
 10
0
 20
4
 11
0
 21
-4
  0
LINE
  8
0
 10
0
 20
-4
 11
4
 21
-4
  0
LINE
  8
0
 10
4
 20
-4
 11
4
 21
0
  0
LINE
  8
0
 10
-36
 20
0
 11
-32
 21
0
  0
LINE
  8
0
 10
-32
 20
0
 11
-32
 21
-4
  0
LINE
  8
0
 10
-32
 20
-4
 11
-28
 21
-4
  0
LINE
  8
0
 10
-28
 20
-4
 11
-28
 21
0
  0
LINE
  8
0
 10
-28
 20
0
 11
-24
 21
0
  0
LINE
  8
0
 10
-24
 20
0
 11
-24
 21
-4
  0
LINE
  8
0
 10
-24
 20
-4
 11
-20
 21
-4
  0
LINE
  8
0
 10
-20
 20
-4
 11
-20
 21
0
  0
LINE
  8
0
 10
-20
 20
0
 11
-16
 21
0
  0
LINE
  8
0
 10
-16
 20
0
 11
-16
 21
-4
  0
LINE
  8
0
 10
-16
 20
-4
 11
-12
 21
-4
  0
LINE
  8
0
 10
-12
 20
-4
 11
-12
 21
0
  0
LINE
  8
0
 10
-12
 20
0
 11
-5
 21
0
  0
LINE
  8
0
 10
-5
 20
0
 11
-5
 21
4
  0
LINE
  8
0
 10
-5
 20
4
 11
-9
 21
4
  0
LINE
  8
0
 10
-9
 20
4
 11
-9
 21
8
  0
LINE
  8
0
 10
-9
 20
8
 11
-5
 21
8
  0
LINE
  8
0
 10
-5
 20
8
 11
-5
 21
12
  0
LINE
  8
0
 10
-5
 20
12
 11
-9
 21
12
  0
LINE
  8
0
 10
-9
 20
12
 11
-9
 21
16
  0
LINE
  8
0
 10
-9
 20
16
 11
-5
 21
16
  0
LINE
  8
0
 10
-5
 20
16
 11
-5
 21
20
  0
LINE
  8
0
 10
-5
 20
20
 11
-9
 21
20
  0
LINE
  8
0
 10
-9
 20
20
 11
-9
 21
24
  0
LINE
  8
0
 10
-9
 20
24
 11
-5
 21
24
  0
LINE
  8
0
 10
-5
 20
24
 11
-5
 21
28
  0
LINE
  8
0
 10
-5
 20
28
 11
-9
 21
28
  0
LINE
  8
0
 10
-9
 20
28
 11
-9
 21
36
  0
LINE
  8
0
 10
-9
 20
36
 11
-12
 21
36
  0
LINE
  8
0
 10
-12
 20
36
 11
-12
 21
32
  0
LINE
  8
0
 10
-12
 20
32
 11
-16
 21
32
  0
LINE
  8
0
 10
-16
 20
32
 11
-16
 21
36
  0
LINE
  8
0
 10
-16
 20
36
 11
-20
 21
36
  0
LINE
  8
0
 10
-20
 20
36
 11
-20
 21
32
  0
LINE
  8
0
 10
-20
 20
32
 11
-24
 21
32
  0
LINE
  8
0
 10
-24
 20
32
 11
-24
 21
36
  0
LINE
  8
0
 10
-24
 20
36
 11
-28
 21
36
  0
LINE
  8
0
 10
-28
 20
36
 11
-28
 21
32
  0
LINE
  8
0
 10
-28
 20
32
 11
-32
 21
32
  0
LINE
  8
0
 10
-32
 20
32
 11
-32
 21
36
  0
LINE
  8
0
 10
-32
 20
36
 11
-36
 21
36
  0
LINE
  8
0
 10
-36
 20
36
 11
-36
 21
32
  0
LINE
  8
0
 10
-36
 20
32
 11
-40
 21
32
  0
LINE
  8
0
 10
-40
 20
32
 11
-40
 21
-4
  0
LINE
  8
0
 10
-40
 20
-4
 11
-36
 21
-4
  0
LINE
  8
0
 10
-36
 20
-4
 11
-36
 21
0
  0
LINE
  8
0
 10
85
 20
0
 11
89
 21
0
  0
LINE
  8
0
 10
89
 20
0
 11
89
 21
-4
  0
LINE
  8
0
 10
89
 20
-4
 11
93
 21
-4
  0
LINE
  8
0
 10
93
 20
-4
 11
93
 21
0
  0
LINE
  8
0
 10
93
 20
0
 11
97
 21
0
  0
LINE
  8
0
 10
97
 20
0
 11
97
 21
-4
  0
LINE
  8
0
 10
97
 20
-4
 11
101
 21
-4
  0
LINE
  8
0
 10
101
 20
-4
 11
101
 21
0
  0
LINE
  8
0
 10
101
 20
0
 11
105
 21
0
  0
LINE
  8
0
 10
105
 20
0
 11
105
 21
-4
  0
LINE
  8
0
 10
105
 20
-4
 11
109
 21
-4
  0
LINE
  8
0
 10
109
 20
-4
 11
109
 21
0
  0
LINE
  8
0
 10
109
 20
0
 11
112
 21
0
  0
LINE
  8
0
 10
112
 20
0
 11
112
 21
36
  0
LINE
  8
0
 10
112
 20
36
 11
109
 21
36
  0
LINE
  8
0
 10
109
 20
36
 11
109
 21
32
  0
LINE
  8
0
 10
109
 20
32
 11
105
 21
32
  0
LINE
  8
0
 10
105
 20
32
 11
105
 21
36
  0
LINE
  8
0
 10
105
 20
36
 11
101
 21
36
  0
LINE
  8
0
 10
101
 20
36
 11
101
 21
32
  0
LINE
  8
0
 10
101
 20
32
 11
97
 21
32
  0
LINE
  8
0
 10
97
 20
32
 11
97
 21
36
  0
LINE
  8
0
 10
97
 20
36
 11
93
 21
36
  0
LINE
  8
0
 10
93
 20
36
 11
93
 21
32
  0
LINE
  8
0
 10
93
 20
32
 11
89
 21
32
  0
LINE
  8
0
 10
89
 20
32
 11
89
 21
36
  0
LINE
  8
0
 10
89
 20
36
 11
85
 21
36
  0
LINE
  8
0
 10
85
 20
36
 11
85
 21
32
  0
LINE
  8
0
 10
85
 20
32
 11
77
 21
32
  0
LINE
  8
0
 10
77
 20
32
 11
77
 21
28
  0
LINE
  8
0
 10
77
 20
28
 11
81
 21
28
  0
LINE
  8
0
 10
81
 20
28
 11
81
 21
24
  0
LINE
  8
0
 10
81
 20
24
 11
77
 21
24
  0
LINE
  8
0
 10
77
 20
24
 11
77
 21
20
  0
LINE
  8
0
 10
77
 20
20
 11
81
 21
20
  0
LINE
  8
0
 10
81
 20
20
 11
81
 21
16
  0
LINE
  8
0
 10
81
 20
16
 11
77
 21
16
  0
LINE
  8
0
 10
77
 20
16
 11
77
 21
12
  0
LINE
  8
0
 10
77
 20
12
 11
81
 21
12
  0
LINE
  8
0
 10
81
 20
12
 11
81
 21
8
  0
LINE
  8
0
 10
81
 20
8
 11
77
 21
8
  0
LINE
  8
0
 10
77
 20
8
 11
77
 21
4
  0
LINE
  8
0
 10
77
 20
4
 11
81
 21
4
  0
LINE
  8
0
 10
81
 20
4
 11
81
 21
-4
  0
LINE
  8
0
 10
81
 20
-4
 11
85
 21
-4
  0
LINE
  8
0
 10
85
 20
-4
 11
85
 21
0
  0
LINE
  8
0
 10
76
 20
-37
 11
72
 21
-37
  0
LINE
  8
0
 10
72
 20
-37
 11
72
 21
-33
  0
LINE
  8
0
 10
72
 20
-33
 11
76
 21
-33
  0
LINE
  8
0
 10
76
 20
-33
 11
76
 21
-29
  0
LINE
  8
0
 10
76
 20
-29
 11
72
 21
-29
  0
LINE
  8
0
 10
72
 20
-29
 11
72
 21
-25
  0
LINE
  8
0
 10
72
 20
-25
 11
76
 21
-25
  0
LINE
  8
0
 10
76
 20
-25
 11
76
 21
-21
  0
LINE
  8
0
 10
76
 20
-21
 11
72
 21
-21
  0
LINE
  8
0
 10
72
 20
-21
 11
72
 21
-17
  0
LINE
  8
0
 10
72
 20
-17
 11
76
 21
-17
  0
LINE
  8
0
 10
76
 20
-17
 11
76
 21
-13
  0
LINE
  8
0
 10
76
 20
-13
 11
72
 21
-13
  0
LINE
  8
0
 10
72
 20
-13
 11
72
 21
-5
  0
LINE
  8
0
 10
72
 20
-5
 11
68
 21
-5
  0
LINE
  8
0
 10
68
 20
-5
 11
68
 21
-9
  0
LINE
  8
0
 10
68
 20
-9
 11
64
 21
-9
  0
LINE
  8
0
 10
64
 20
-9
 11
64
 21
-5
  0
LINE
  8
0
 10
64
 20
-5
 11
60
 21
-5
  0
LINE
  8
0
 10
60
 20
-5
 11
60
 21
-9
  0
LINE
  8
0
 10
60
 20
-9
 11
56
 21
-9
  0
LINE
  8
0
 10
56
 20
-9
 11
56
 21
-5
  0
LINE
  8
0
 10
56
 20
-5
 11
52
 21
-5
  0
LINE
  8
0
 10
52
 20
-5
 11
52
 21
-9
  0
LINE
  8
0
 10
52
 20
-9
 11
48
 21
-9
  0
LINE
  8
0
 10
48
 20
-9
 11
48
 21
-5
  0
LINE
  8
0
 10
48
 20
-5
 11
44
 21
-5
  0
LINE
  8
0
 10
44
 20
-5
 11
44
 21
-9
  0
LINE
  8
0
 10
44
 20
-9
 11
40
 21
-9
  0
LINE
  8
0
 10
40
 20
-9
 11
40
 21
-5
  0
LINE
  8
0
 10
40
 20
-5
 11
36
 21
-5
  0
LINE
  8
0
 10
36
 20
-5
 11
36
 21
-9
  0
LINE
  8
0
 10
36
 20
-9
 11
32
 21
-9
  0
LINE
  8
0
 10
32
 20
-9
 11
32
 21
-5
  0
LINE
  8
0
 10
32
 20
-5
 11
28
 21
-5
  0
LINE
  8
0
 10
28
 20
-5
 11
28
 21
-9
  0
LINE
  8
0
 10
28
 20
-9
 11
24
 21
-9
  0
LINE
  8
0
 10
24
 20
-9
 11
24
 21
-5
  0
LINE
  8
0
 10
24
 20
-5
 11
20
 21
-5
  0
LINE
  8
0
 10
20
 20
-5
 11
20
 21
-9
  0
LINE
  8
0
 10
20
 20
-9
 11
16
 21
-9
  0
LINE
  8
0
 10
16
 20
-9
 11
16
 21
-5
  0
LINE
  8
0
 10
16
 20
-5
 11
12
 21
-5
  0
LINE
  8
0
 10
12
 20
-5
 11
12
 21
-9
  0
LINE
  8
0
 10
12
 20
-9
 11
8
 21
-9
  0
LINE
  8
0
 10
8
 20
-9
 11
8
 21
-5
  0
LINE
  8
0
 10
8
 20
-5
 11
4
 21
-5
  0
LINE
  8
0
 10
4
 20
-5
 11
4
 21
-9
  0
LINE
  8
0
 10
4
 20
-9
 11
-4
 21
-9
  0
LINE
  8
0
 10
-4
 20
-9
 11
-4
 21
-12
  0
LINE
  8
0
 10
-4
 20
-12
 11
0
 21
-12
  0
LINE
  8
0
 10
0
 20
-12
 11
0
 21
-16
  0
LINE
  8
0
 10
0
 20
-16
 11
-4
 21
-16
  0
LINE
  8
0
 10
-4
 20
-16
 11
-4
 21
-20
  0
LINE
  8
0
 10
-4
 20
-20
 11
0
 21
-20
  0
LINE
  8
0
 10
0
 20
-20
 11
0
 21
-24
  0
LINE
  8
0
 10
0
 20
-24
 11
-4
 21
-24
  0
LINE
  8
0
 10
-4
 20
-24
 11
-4
 21
-28
  0
LINE
  8
0
 10
-4
 20
-28
 11
0
 21
-28
  0
LINE
  8
0
 10
0
 20
-28
 11
0
 21
-32
  0
LINE
  8
0
 10
0
 20
-32
 11
-4
 21
-32
  0
LINE
  8
0
 10
-4
 20
-32
 11
-4
 21
-36
  0
LINE
  8
0
 10
-4
 20
-36
 11
0
 21
-36
  0
LINE
  8
0
 10
0
 20
-36
 11
0
 21
-40
  0
LINE
  8
0
 10
0
 20
-40
 11
76
 21
-40
  0
LINE
  8
0
 10
76
 20
-40
 11
76
 21
-37
  0
ENDSEC
  0
SECTION
  2
OBJECTS
  0
DICTIONARY
  0
ENDSEC
  0
EOF
