<?xml version="1.0" encoding="UTF-8"?>
<svg version="1.1" xmlns="http://www.w3.org/2000/svg" width="755" height="533">
<path d="M0 0 C1.54605192 -0.01652665 3.09202846 -0.04377379 4.63769531 -0.08203125 C6.87393568 -0.13706391 9.10838669 -0.1587133 11.34521484 -0.17333984 C12.37210419 -0.2073439 12.37210419 -0.2073439 13.41973877 -0.24203491 C19.03009306 -0.21757744 21.2812429 1.53233471 25.07958984 5.35009766 C26.56206623 8.31505042 26.22250802 11.32938591 26.21762085 14.58027649 C26.22044213 15.3339147 26.22326341 16.0875529 26.22617018 16.86402863 C26.23453848 19.40277089 26.23585633 21.94146967 26.23730469 24.48022461 C26.24197127 26.2950452 26.24711457 28.10986462 26.25270081 29.92468262 C26.26399488 33.8397797 26.27242273 37.7548691 26.27882004 41.66997719 C26.28948317 47.85904924 26.3097234 54.0480663 26.3319397 60.23710632 C26.393921 77.83879072 26.44789012 95.44047214 26.48095703 113.04223633 C26.49928992 122.75817702 26.52820927 132.47402591 26.56896174 142.18989915 C26.59005447 147.33373358 26.60549221 152.4774522 26.60776901 157.62133217 C26.60991315 162.45995261 26.62575862 167.29833193 26.65215874 172.13687897 C26.65936217 173.91341765 26.66144766 175.68998552 26.65805626 177.46653557 C26.65416718 179.89096606 26.66859734 182.31462436 26.68759155 184.7389679 C26.68206186 185.44286488 26.67653216 186.14676187 26.6708349 186.87198907 C26.72922042 191.18592432 27.44374481 193.91336374 30.07958984 197.35009766 C32.56727584 198.59394066 34.24778453 198.4870138 37.03193665 198.5039978 C38.60287582 198.5168985 38.60287582 198.5168985 40.20555115 198.53005981 C41.93624596 198.53644974 41.93624596 198.53644974 43.7019043 198.54296875 C44.91336121 198.55114624 46.12481812 198.55932373 47.37298584 198.56774902 C51.39627754 198.59263468 55.41953162 198.60927647 59.44287109 198.62353516 C60.82771499 198.62889483 62.21255882 198.63427234 63.59740257 198.63966751 C69.35783263 198.66129611 75.11825989 198.68003295 80.87872028 198.6912899 C89.1350777 198.70753025 97.39096459 198.74070948 105.64714462 198.79769075 C111.45188604 198.83638759 117.25650161 198.85592223 123.06136864 198.86121047 C126.52865282 198.86486436 129.99543515 198.87688808 133.46257973 198.9093132 C137.33155765 198.94497762 141.19994479 198.94102358 145.0690918 198.93359375 C146.21681564 198.94999908 147.36453949 198.96640442 148.54704285 198.98330688 C154.84406661 198.99528132 154.84406661 198.99528132 160.2118988 195.97291565 C160.82823685 195.10738571 161.44457489 194.24185577 162.07958984 193.35009766 C162.70446289 192.50906494 163.32933594 191.66803223 163.97314453 190.80151367 C164.55999023 189.91133545 165.14683594 189.02115723 165.75146484 188.10400391 C166.41082031 187.10949219 167.07017578 186.11498047 167.74951172 185.09033203 C168.4359375 184.04167969 169.12236328 182.99302734 169.82958984 181.91259766 C170.54695312 180.8265625 171.26431641 179.74052734 172.00341797 178.62158203 C176.25818846 172.16806342 180.45677299 165.68128718 184.61083984 159.16259766 C188.72195775 152.76752536 192.99045415 146.47425304 197.21630859 140.15478516 C200.71653614 134.91429439 204.19287694 129.66463175 207.57958984 124.35009766 C212.34179535 116.87709824 217.28626756 109.52728821 222.21191406 102.16137695 C226.45953381 95.80192089 230.63522371 89.40711052 234.74755859 82.95947266 C240.54968344 73.92410267 246.59675477 65.04354545 252.57177734 56.12207031 C253.46995306 54.78083263 254.36768377 53.43929679 255.26489258 52.09741211 C256.09116018 50.86195759 256.91876938 49.62739914 257.74780273 48.39379883 C260.08955809 44.89449602 262.29104773 41.33618953 264.45458984 37.72509766 C276.3484329 19.10985027 295.20047687 6.11646719 316.66088867 0.9543457 C322.28726865 -0.0401048 327.86761076 -0.09524761 333.5703125 -0.04101562 C335.57800181 -0.02491508 337.58367933 -0.04096629 339.59130859 -0.06005859 C350.8505458 -0.02671436 360.93126158 1.67107724 370.95458984 6.91259766 C371.62167969 7.25556885 372.28876953 7.59854004 372.97607422 7.9519043 C396.47547485 20.39913886 409.02113416 40.60305136 422.64550781 62.68310547 C426.38341185 68.71719175 430.25127473 74.56413463 434.45654297 80.27905273 C438.30712886 85.55463993 441.7375633 91.0690669 445.19091797 96.60986328 C449.42598128 103.37844989 453.82284262 110.02980926 458.26708984 116.66259766 C462.42067292 122.8615862 466.57042682 129.05655493 470.57958984 135.35009766 C477.77446975 146.63645666 485.29282943 157.7157894 492.74414062 168.83374023 C495.37557235 172.76672691 497.97056192 176.71727569 500.50317383 180.71459961 C506.00538582 190.82977326 506.00538582 190.82977326 514.07958984 198.35009766 C515.89262342 198.45415201 517.70947751 198.49397202 519.52546692 198.5039978 C520.68214371 198.51259827 521.8388205 198.52119873 523.0305481 198.53005981 C524.30590424 198.53431976 525.58126038 198.53857971 526.89526367 198.54296875 C528.24703686 198.55086921 529.59880793 198.55913813 530.95057678 198.56774902 C535.39590438 198.59397491 539.84124142 198.60927686 544.28662109 198.62353516 C545.81633701 198.62889454 547.34605287 198.63427205 548.87576866 198.63966751 C555.23840042 198.66129676 561.60102963 198.68003394 567.96368885 198.6912899 C577.0853464 198.70753233 586.2065782 198.74071617 595.32807523 198.79769075 C601.74003032 198.83637702 608.15187148 198.85592098 614.56394023 198.86121047 C618.39449782 198.8648657 622.22460137 198.87690422 626.05503273 198.9093132 C629.65931172 198.93937152 633.26286144 198.94571435 636.867239 198.93392944 C638.81891068 198.93360325 640.77053719 198.95808387 642.7220459 198.98330688 C649.46781565 199.01144034 649.46781565 199.01144034 655.36439514 196.07937622 C657.02837013 193.43160028 657.70917049 192.16811964 657.7265625 189.09814453 C657.7423233 188.29380981 657.75808411 187.4894751 657.77432251 186.6607666 C657.76420135 185.80543335 657.7540802 184.9501001 657.74365234 184.06884766 C657.74843597 183.17774292 657.7532196 182.28663818 657.75814819 181.36853027 C657.76154257 179.48915842 657.75237247 177.60972715 657.73144531 175.73046875 C657.70467141 172.85884567 657.73120696 169.99113086 657.76318359 167.11962891 C657.75987941 165.29019322 657.753473 163.46075996 657.74365234 161.63134766 C657.7537735 160.7760144 657.76389465 159.92068115 657.77432251 159.03942871 C657.75856171 158.23509399 657.7428009 157.43075928 657.7265625 156.60205078 C657.72258453 155.89987427 657.71860657 155.19769775 657.71450806 154.47424316 C656.69759098 151.07210442 654.82254218 149.52805139 652.07958984 147.35009766 C649.00930544 146.61611726 649.00930544 146.61611726 645.64038086 146.73828125 C643.71797325 146.72334122 643.71797325 146.72334122 641.75672913 146.70809937 C640.36565071 146.72150139 638.97457305 146.7349819 637.58349609 146.74853516 C636.14768777 146.74303104 634.71188732 146.73490287 633.27610779 146.72427368 C629.50204504 146.70141696 625.72856207 146.70559484 621.95446777 146.71807861 C615.91816852 146.73640133 609.88220978 146.7263324 603.84599113 146.69221878 C601.7441945 146.68613843 599.64313572 146.69934456 597.54139709 146.71420288 C596.25663986 146.71054718 594.97188263 146.70689148 593.64819336 146.703125 C592.52188004 146.70710297 591.39556671 146.71108093 590.23512268 146.71517944 C585.56738735 146.17514223 582.24251299 144.58597986 579.02490234 141.16650391 C576.5623742 137.60127742 574.23167121 133.97349643 571.95458984 130.28759766 C571.51244141 129.58054687 571.07029297 128.87349609 570.61474609 128.14501953 C564.68412857 118.60407141 564.68412857 118.60407141 565.01708984 113.97509766 C565.0615625 112.88068359 565.0615625 112.88068359 565.10693359 111.76416016 C566.77790776 107.61692308 569.15693304 105.30248332 573.07958984 103.35009766 C578.93384211 102.46743457 584.741723 102.58415095 590.64990234 102.65087891 C592.37670782 102.64724216 594.1035093 102.64053591 595.83029175 102.63090515 C600.36267691 102.61187941 604.89429362 102.62583205 609.42663574 102.64941406 C616.68700722 102.68387028 623.94719057 102.67799395 631.20757675 102.65328026 C633.73875878 102.65091271 636.26923088 102.66869693 638.80032349 102.68855286 C640.35451257 102.68880102 641.90870194 102.68840326 643.46289062 102.68725586 C644.16327454 102.69811722 644.86365845 102.70897858 645.58526611 102.72016907 C649.90565857 102.6945853 652.68006267 102.06525922 656.07958984 99.35009766 C657.00792096 96.5651043 657.20599773 94.89341521 657.20898438 92.01806641 C657.21213654 91.14706299 657.2152887 90.27605957 657.21853638 89.37866211 C657.21651215 88.44111084 657.21448792 87.50355957 657.21240234 86.53759766 C657.21335907 85.57233154 657.2143158 84.60706543 657.21530151 83.61254883 C657.21598205 81.57161392 657.21413659 79.53067684 657.20996094 77.48974609 C657.20461092 74.36241808 657.20991023 71.23523369 657.21630859 68.10791016 C657.21564779 66.12613901 657.21436658 64.14436794 657.21240234 62.16259766 C657.21442657 61.22504639 657.21645081 60.28749512 657.21853638 59.3215332 C657.21380814 58.01502808 657.21380814 58.01502808 657.20898438 56.68212891 C657.20818878 55.91618408 657.20739319 55.15023926 657.20657349 54.36108398 C657.15257506 52.14269712 657.15257506 52.14269712 656.07958984 49.35009766 C652.74067475 47.12415426 651.6927975 47.09991202 647.7993927 47.09854126 C646.70457581 47.09315842 645.60975891 47.08777557 644.48176575 47.08222961 C643.28017319 47.08635361 642.07858063 47.0904776 640.84057617 47.09472656 C638.89823655 47.08916889 636.95589693 47.0836069 635.01355779 47.07788253 C632.92444244 47.07354032 630.83537459 47.074013 628.74625587 47.07570267 C624.38771054 47.07853616 620.02932729 47.064181 615.67082214 47.04672241 C603.27642263 46.9997036 590.88203354 46.97576641 578.48754883 46.96923828 C571.64281343 46.96548099 564.79826094 46.94739542 557.95360392 46.91414392 C553.6262104 46.89398001 549.29929026 46.89153523 544.97186911 46.9024241 C541.63633368 46.90565674 538.30105908 46.88291116 534.96557617 46.86425781 C533.77410477 46.87243027 532.58263336 46.88060272 531.35505676 46.88902283 C524.46316299 46.82051823 519.93045988 46.08058359 514.07958984 42.35009766 C511.71850586 39.74047852 511.71850586 39.74047852 509.83349609 36.81494141 C509.14191406 35.75855469 508.45033203 34.70216797 507.73779297 33.61376953 C507.04621094 32.51613281 506.35462891 31.41849609 505.64208984 30.28759766 C504.9234375 29.18609375 504.20478516 28.08458984 503.46435547 26.94970703 C496.54386573 16.25202837 496.54386573 16.25202837 497.07958984 8.35009766 C499.09319602 3.0140413 499.09319602 3.0140413 501.79058647 1.19842243 C504.77404766 0.09272548 507.27034037 0.09512811 510.4536438 0.08940125 C511.76571304 0.08231644 513.07778229 0.07523163 514.42961121 0.06793213 C515.88211094 0.07022597 517.33461035 0.07273568 518.78710938 0.07543945 C520.31825509 0.07109167 521.84939863 0.0659083 523.38053894 0.05995178 C527.53995626 0.04655218 531.69928275 0.04598458 535.85871744 0.04851508 C539.3349572 0.04958495 542.8111786 0.0447006 546.28741443 0.03990966 C554.49484624 0.02880943 562.70223229 0.02837883 570.90966797 0.03442383 C579.36201158 0.0404539 587.81418832 0.02817843 596.26650345 0.00685376 C603.53208382 -0.01079942 610.79761127 -0.01675743 618.06321228 -0.0135085 C622.3984511 -0.01170014 626.73357111 -0.01428626 631.06879044 -0.02822304 C635.15150092 -0.04085598 639.23395313 -0.03880595 643.31665993 -0.02581215 C644.808917 -0.02345801 646.30119255 -0.02613904 647.79342842 -0.03443527 C661.26621162 -0.10389041 673.76907419 2.06722641 684.25927734 11.26025391 C685.44559245 12.45887519 686.60960261 13.6804052 687.73974609 14.93212891 C689.04472947 16.47556958 689.04472947 16.47556958 691.07958984 17.35009766 C691.07958984 18.01009766 691.07958984 18.67009766 691.07958984 19.35009766 C692.06958984 19.68009766 693.05958984 20.01009766 694.07958984 20.35009766 C701.43575437 29.60077323 706.13059966 40.8990768 706.2565918 52.76025391 C706.26942703 53.81905762 706.28226227 54.87786133 706.29548645 55.96875 C706.30656685 57.67345459 706.30656685 57.67345459 706.31787109 59.41259766 C706.32594284 60.59547363 706.33401459 61.77834961 706.34233093 62.99707031 C706.35615182 65.50193831 706.36688288 68.00682499 706.37475586 70.51171875 C706.38624742 73.0563718 706.40665395 75.60100128 706.4362793 78.14550781 C706.47925887 81.83886965 706.49516981 85.53151576 706.50537109 89.22509766 C706.52287918 90.34537354 706.54038727 91.46564941 706.5584259 92.61987305 C706.53112944 102.73412889 704.47609103 111.90958092 698.95458984 120.47509766 C697.57341456 122.82033037 697.57341456 122.82033037 697.07958984 125.35009766 C698.10510885 128.35215115 699.47122643 130.63416492 701.29833984 133.22119141 C705.88550486 141.2789089 706.53941426 150.02738949 706.51318359 159.12353516 C706.51842545 160.20913727 706.5236673 161.29473938 706.52906799 162.41323853 C706.53544885 164.69394074 706.53420273 166.97467604 706.52563477 169.25537109 C706.51712843 172.70942885 706.54593834 176.16182771 706.57763672 179.61572266 C706.63421475 197.16442006 704.78837325 213.89373875 692.07958984 227.35009766 C678.72291755 240.41987245 665.11013181 245.97899636 646.59326172 245.86767578 C645.0627018 245.8731074 643.53214712 245.88023586 642.00160217 245.88891602 C637.87548111 245.90702892 633.74976365 245.90013213 629.62363625 245.88739967 C625.2872885 245.87720914 620.95097325 245.88668205 616.61462402 245.89294434 C609.33514255 245.90020323 602.05582389 245.8906794 594.77636719 245.87158203 C586.3834737 245.84981663 577.99096901 245.85686926 569.59808493 245.87888765 C562.36714417 245.89709197 555.13631985 245.89957548 547.90536356 245.88913298 C543.59756512 245.8829256 539.2899489 245.88198591 534.98216248 245.89527893 C530.93044955 245.90691045 526.87923353 245.89868001 522.82757378 245.8757019 C521.34864053 245.87045349 519.86966481 245.87186155 518.39074898 245.88075256 C501.44828029 245.97314738 488.73300191 240.31449203 476.37646484 228.74462891 C472.72770821 224.94073806 469.95127693 220.75335119 467.07958984 216.35009766 C466.3128032 215.24311694 465.54168324 214.13912983 464.76708984 213.03759766 C458.17340873 203.63798779 451.96260347 194.01026493 445.82592773 184.30688477 C442.26776038 178.69625419 438.61126573 173.19283233 434.77197266 167.77099609 C431.93881018 163.71824954 429.26156745 159.5663034 426.57958984 155.41259766 C426.01353027 154.53941895 425.4474707 153.66624023 424.86425781 152.76660156 C421.95188054 148.26869898 419.06254152 143.75773142 416.20458984 139.22509766 C413.59544158 135.10404686 410.83711485 131.11297417 408.02099609 127.13134766 C402.00158357 118.50796392 396.27054731 109.687194 390.61083984 100.82495117 C387.03984982 95.25070394 383.36496648 89.74742764 379.66870117 84.25561523 C377.10980037 80.44264592 374.60063247 76.61119746 372.18505859 72.70556641 C364.83575162 60.8650871 357.78575811 51.91882041 344.07958984 47.35009766 C331.75494916 46.54774645 322.17335091 46.95914287 312.20458984 54.97509766 C302.45540667 64.2644137 295.92590994 76.8728159 288.98974609 88.29541016 C286.32822376 92.55166878 283.45451528 96.64515647 280.57568359 100.75634766 C273.92518588 110.28412623 267.38654799 119.92409926 261.53442383 129.96508789 C260.05947989 132.38306529 258.48130237 134.68186215 256.84130859 136.99072266 C253.21287709 142.14020402 249.69241736 147.35464406 246.20458984 152.60009766 C245.59599121 153.5139624 244.98739258 154.42782715 244.36035156 155.36938477 C240.20696438 161.61926977 236.12322778 167.90920495 232.08349609 174.23291016 C228.44156318 179.89813914 224.68303689 185.48603415 220.91992188 191.07128906 C219.6793923 192.91283297 218.44153796 194.7561464 217.20458984 196.60009766 C216.78371094 197.22561523 216.36283203 197.85113281 215.92919922 198.49560547 C213.74359775 201.7673544 211.62764471 205.06353287 209.60693359 208.43994141 C199.64877578 225.05596316 187.52130356 238.98632819 168.29149723 244.8999815 C165.56936636 245.45392652 163.02291187 245.48581088 160.24375916 245.49726868 C159.05093323 245.50442398 157.8581073 245.51157928 156.62913513 245.51895142 C154.67089561 245.52298477 154.67089561 245.52298477 152.6730957 245.52709961 C151.2815026 245.53336768 149.88991116 245.54001478 148.49832153 245.54701233 C143.93037067 245.56802123 139.3624196 245.57841445 134.79443359 245.58837891 C133.21841477 245.5924282 131.64239611 245.59654517 130.06637764 245.60072899 C122.65801025 245.6197768 115.24965278 245.63400648 107.84126562 245.64234096 C99.30849195 245.65210032 90.77597859 245.67838736 82.24329656 245.71884185 C75.63672707 245.74908179 69.03023185 245.76381743 62.42359453 245.76712197 C58.4834042 245.76946425 54.54349206 245.77831611 50.60337639 245.80358315 C46.89078548 245.82700622 43.17865311 245.83104069 39.46600723 245.82082176 C37.47021279 245.82009682 35.47444089 245.83908921 33.47874451 245.85888672 C17.05671762 245.7648451 4.4400302 238.53991525 -7.15087891 227.27197266 C-19.86749044 214.27487937 -21.52113197 199.39850014 -21.45385742 182.16674805 C-21.46092641 180.25192605 -21.46967552 178.33710964 -21.47996521 176.42230225 C-21.50234648 171.25539388 -21.49954782 166.08879341 -21.49064374 160.92185521 C-21.48551588 156.60220292 -21.4928401 152.28260756 -21.50011581 147.96296114 C-21.51707539 137.77742093 -21.51358453 127.59203072 -21.49682617 117.40649414 C-21.47986506 106.90090952 -21.49580309 96.39573921 -21.52804905 85.89019972 C-21.55472127 76.85807602 -21.56202865 67.8260815 -21.55353397 58.79392236 C-21.54860324 53.40424442 -21.55083012 48.01481637 -21.57132149 42.62516975 C-21.58964426 37.56470163 -21.58376164 32.50483267 -21.55912209 27.44439697 C-21.55410551 25.58721149 -21.55762584 23.72998056 -21.57027054 21.87283134 C-21.58615946 19.33905313 -21.57129206 16.80725877 -21.54859924 14.27357483 C-21.56043497 13.53758956 -21.5722707 12.80160428 -21.58446509 12.04331642 C-21.51284677 8.11235246 -21.03963535 6.4949261 -18.50614834 3.41738033 C-13.05173935 -0.94338801 -6.70166244 0.05247863 0 0 Z " fill="#FFFFFF" transform="translate(28.92041015625,277.64990234375)"/>
<path d="M0 0 C2.02147995 0.01004824 4.04296472 0.01917084 6.06445312 0.02734375 C10.98058936 0.04921486 15.89649065 0.08364355 20.8125 0.125 C20.84136338 4.60415328 20.85925187 9.08328291 20.875 13.5625 C20.88337891 14.84189453 20.89175781 16.12128906 20.90039062 17.43945312 C20.90361328 18.65439453 20.90683594 19.86933594 20.91015625 21.12109375 C20.91539307 22.24700928 20.92062988 23.3729248 20.92602539 24.53295898 C20.8125 27.125 20.8125 27.125 19.8125 28.125 C16.85188263 28.22370637 13.91037208 28.26215225 10.94921875 28.265625 C9.09308694 28.28397885 7.23696686 28.30355147 5.38085938 28.32421875 C2.45610163 28.35298606 -0.46791469 28.37499458 -3.39282227 28.37548828 C-16.45121865 28.39109904 -26.32576191 28.93328617 -37.5 36.3125 C-46.81209012 46.05771059 -50.22425353 55.31485024 -50.5625 68.75 C-50.25063059 80.98775566 -46.46058408 89.68237311 -37.875 98.5 C-29.58226206 103.51421364 -21.50326897 105.2583259 -11.90893555 105.33032227 C-11.07570928 105.34035499 -10.24248301 105.35038771 -9.38400745 105.36072445 C-6.69743913 105.39200766 -4.01085599 105.41683849 -1.32421875 105.44140625 C0.33866852 105.45981909 2.00155114 105.47865627 3.66442871 105.4979248 C9.81789753 105.56625738 15.97145527 105.6263838 22.125 105.6875 C35.881875 105.831875 49.63875 105.97625 63.8125 106.125 C63.8125 71.805 63.8125 37.485 63.8125 2.125 C88.8925 2.125 113.9725 2.125 139.8125 2.125 C139.8125 10.375 139.8125 18.625 139.8125 27.125 C138.8125 28.125 138.8125 28.125 137.05979919 28.24525452 C136.29812943 28.24303391 135.53645966 28.24081329 134.75170898 28.23852539 C133.89089218 28.23844986 133.03007538 28.23837433 132.14317322 28.23829651 C131.20776199 28.23313522 130.27235077 28.22797394 129.30859375 28.22265625 C128.35557877 28.2212413 127.40256378 28.21982635 126.42066956 28.21836853 C123.36374835 28.21275152 120.30689923 28.20019616 117.25 28.1875 C115.18294376 28.18248719 113.11588638 28.17792391 111.04882812 28.17382812 C105.97000167 28.16362558 100.89133194 28.14405356 95.8125 28.125 C95.8125 36.375 95.8125 44.625 95.8125 53.125 C115.6125 53.62 115.6125 53.62 135.8125 54.125 C135.8125 62.705 135.8125 71.285 135.8125 80.125 C122.6125 80.455 109.4125 80.785 95.8125 81.125 C95.8125 89.375 95.8125 97.625 95.8125 106.125 C106.57549177 106.31118801 117.33468192 106.43709086 128.09928608 106.45921898 C133.09882548 106.47185759 138.09534727 106.51008423 143.09399414 106.60839844 C147.92557832 106.70245876 152.75316031 106.72719925 157.58556175 106.70546341 C159.42159328 106.7090817 161.25775452 106.73698111 163.09301186 106.79041672 C172.86957255 107.30758928 172.86957255 107.30758928 181.65254784 103.75065422 C184.93535912 100.46455975 187.44041707 96.77553455 189.8005743 92.79185009 C191.17553781 90.52700194 192.78830635 88.48642078 194.44921875 86.42578125 C195.4674094 85.09732167 196.48436654 83.76791563 197.5 82.4375 C198.05051025 81.71747803 198.60102051 80.99745605 199.16821289 80.25561523 C202.08060656 76.43510647 204.94847159 72.59048402 207.75 68.6875 C211.26828706 63.79313872 214.96976311 59.05556415 218.6875 54.3125 C225.36081022 45.79208894 231.80761144 37.13233283 237.8125 28.125 C236.72588829 28.12833092 236.72588829 28.12833092 235.61732483 28.13172913 C228.80406547 28.15173227 221.99081047 28.16697425 215.17752934 28.17681217 C211.67441115 28.18203989 208.17131715 28.1891355 204.66821289 28.20043945 C200.64469159 28.21334206 196.62119586 28.21822912 192.59765625 28.22265625 C191.33413834 28.22781754 190.07062042 28.23297882 188.76881409 28.23829651 C187.607686 28.23837204 186.44655792 28.23844757 185.25024414 28.23852539 C183.7080294 28.24185631 183.7080294 28.24185631 182.13465881 28.24525452 C179.8125 28.125 179.8125 28.125 178.8125 27.125 C178.8125 18.875 178.8125 10.625 178.8125 2.125 C212.1425 2.125 245.4725 2.125 279.8125 2.125 C279.8125 23.96232194 279.8125 23.96232194 272.59765625 31.93359375 C270.00253969 34.88530483 267.6445749 37.95855126 265.3125 41.125 C264.57644531 42.09953125 263.84039062 43.0740625 263.08203125 44.078125 C260.67352604 47.31157433 258.33092099 50.58553498 256 53.875 C250.42036878 61.73790085 244.62146607 69.43081183 238.8125 77.125 C231.61473237 86.66010722 224.44213763 96.18054355 217.8125 106.125 C252.7925 106.125 287.7725 106.125 323.8125 106.125 C323.8125 71.805 323.8125 37.485 323.8125 2.125 C348.8925 2.125 373.9725 2.125 399.8125 2.125 C399.8125 10.375 399.8125 18.625 399.8125 27.125 C398.8125 28.125 398.8125 28.125 397.02183533 28.24525452 C396.24240067 28.24303391 395.462966 28.24081329 394.65991211 28.23852539 C393.77907455 28.23844986 392.898237 28.23837433 391.9907074 28.23829651 C391.03342239 28.23313522 390.07613739 28.22797394 389.08984375 28.22265625 C388.11463272 28.2212413 387.13942169 28.21982635 386.13465881 28.21836853 C383.00640857 28.21275133 379.87822877 28.20019593 376.75 28.1875 C374.63476666 28.18248722 372.51953219 28.17792393 370.40429688 28.17382812 C365.20698199 28.16362531 360.00982025 28.14405331 354.8125 28.125 C354.8125 36.705 354.8125 45.285 354.8125 54.125 C368.3425 54.125 381.8725 54.125 395.8125 54.125 C395.8125 62.705 395.8125 71.285 395.8125 80.125 C382.2825 80.125 368.7525 80.125 354.8125 80.125 C354.8125 88.705 354.8125 97.285 354.8125 106.125 C384.5125 106.125 414.2125 106.125 444.8125 106.125 C445.1425 71.805 445.4725 37.485 445.8125 2.125 C455.09375 2.063125 464.375 2.00125 473.9375 1.9375 C476.83805176 1.91018799 479.73860352 1.88287598 482.72705078 1.85473633 C485.07063381 1.84596034 487.41422147 1.83831906 489.7578125 1.83203125 C490.93851318 1.81668335 492.11921387 1.80133545 493.33569336 1.78552246 C507.80094778 1.78106246 522.20570421 4.15783498 533.0859375 14.2578125 C540.96691574 22.78068037 540.31407055 32.79594695 540.16015625 43.7265625 C539.91082186 49.82951731 538.55362601 54.2584099 534.8125 59.125 C534.11125 60.176875 533.41 61.22875 532.6875 62.3125 C527.91629057 67.63072707 520.90611694 72.13549184 513.8125 73.125 C513.8125 73.785 513.8125 74.445 513.8125 75.125 C514.39378662 75.39207764 514.97507324 75.65915527 515.57397461 75.93432617 C522.99392476 79.88100486 528.01841094 86.56817858 532.75 93.3125 C533.61334961 94.50262695 533.61334961 94.50262695 534.49414062 95.71679688 C537.07442258 99.33648569 538.71612408 101.73949632 539.8125 106.125 C556.6425 106.125 573.4725 106.125 590.8125 106.125 C590.8125 71.805 590.8125 37.485 590.8125 2.125 C601.3725 2.125 611.9325 2.125 622.8125 2.125 C623.1425 36.115 623.4725 70.105 623.8125 105.125 C630.0825 105.455 636.3525 105.785 642.8125 106.125 C642.8125 115.365 642.8125 124.605 642.8125 134.125 C628.08692563 134.21541775 613.36152452 134.28905006 598.63573456 134.33224869 C591.79774512 134.35284287 584.95994086 134.38090277 578.12207031 134.42675781 C571.52147342 134.47100045 564.92101815 134.49414728 558.32026672 134.50450897 C555.8037056 134.51189193 553.28715482 134.5263091 550.77067566 134.54792023 C547.24206927 134.57701444 543.71425418 134.58095332 540.18554688 134.57910156 C539.14832489 134.59348267 538.11110291 134.60786377 537.04244995 134.62268066 C529.64242807 134.58074114 524.57735559 132.96541836 518.67578125 128.51293945 C514.44379369 124.18168141 511.57335966 119.68232368 508.8125 114.3125 C505.2076207 107.57478453 501.44826524 101.2189637 496.8125 95.125 C496.18085937 94.279375 495.54921875 93.43375 494.8984375 92.5625 C491.89337806 88.23002776 491.89337806 88.23002776 487.8125 85.125 C485.94193209 84.8974985 484.06564042 84.71537189 482.1875 84.5625 C481.18460938 84.47871094 480.18171875 84.39492187 479.1484375 84.30859375 C478.37757813 84.24800781 477.60671875 84.18742187 476.8125 84.125 C476.83344727 85.08277344 476.85439453 86.04054688 476.87597656 87.02734375 C476.94889479 90.61296376 476.99448558 94.19851953 477.03222656 97.78466797 C477.05222503 99.33067887 477.07943331 100.87661527 477.11425781 102.42236328 C477.49527883 119.78123251 477.49527883 119.78123251 470.84765625 127.3671875 C470.19667969 127.90601563 469.54570313 128.44484375 468.875 129 C468.22660156 129.55429688 467.57820312 130.10859375 466.91015625 130.6796875 C461.97427559 134.08057362 457.42718122 134.41290615 451.56544495 134.37947559 C450.734579 134.38268207 449.90371305 134.38588855 449.04766935 134.38919219 C446.25119239 134.39752279 443.4549279 134.39155716 440.65844727 134.38569641 C438.63811858 134.38871572 436.61779103 134.39260409 434.59746552 134.39728898 C429.03566792 134.40760665 423.4739345 134.40537755 417.91213155 134.40110838 C411.91736095 134.39864788 405.92260608 134.40764706 399.92784119 134.41514587 C388.17784503 134.42791519 376.42786687 134.42968949 364.6778664 134.42734561 C355.12622482 134.42551342 345.57458996 134.42727101 336.02294922 134.43157005 C334.65095778 134.43217246 333.27896635 134.43277365 331.90697491 134.43337366 C329.83949876 134.43428091 327.77202261 134.43518958 325.70454646 134.43610601 C306.47638068 134.44453808 287.24821742 134.44886966 268.02005005 134.44469929 C267.29492358 134.44454291 266.56979711 134.44438654 265.82269712 134.44422542 C262.14744906 134.44341963 258.47220101 134.44257386 254.79695296 134.44171212 C254.06703685 134.44154103 253.33712074 134.44136994 252.58508596 134.44119367 C251.10901549 134.44084701 249.63294503 134.44049848 248.15687457 134.44014808 C225.20336341 134.43479416 202.2498907 134.44271088 179.29638672 134.46118164 C153.50674605 134.48191034 127.71712921 134.49262238 101.92747974 134.48860615 C99.17584547 134.48821082 96.42421119 134.48784927 93.6725769 134.48750877 C92.99505902 134.48741804 92.31754113 134.48732731 91.6194924 134.48723383 C81.40143909 134.48606893 71.18340985 134.49270821 60.96536255 134.50332069 C49.33725617 134.51538536 37.70919333 134.51663978 26.08108443 134.50453053 C20.14942192 134.49864087 14.21786283 134.49754483 8.2862072 134.50953293 C2.85158493 134.52038862 -2.58284756 134.51729187 -8.01746094 134.50327124 C-9.9791717 134.5006234 -11.94089732 134.50299357 -13.90259349 134.51100711 C-34.31147325 134.58856233 -52.67349805 131.19640363 -67.9765625 116.39453125 C-75.51646257 108.33979219 -80.66402644 98.84005698 -83.1875 88.125 C-83.35878418 87.54621094 -83.53006836 86.96742188 -83.70654297 86.37109375 C-84.80392277 81.24627438 -84.41593595 75.84349984 -84.4375 70.625 C-84.458125 69.408125 -84.47875 68.19125 -84.5 66.9375 C-84.57338309 49.76585779 -79.46258947 34.79394843 -67.3828125 22.3046875 C-66.65835938 21.58539063 -65.93390625 20.86609375 -65.1875 20.125 C-64.56617187 19.46757813 -63.94484375 18.81015625 -63.3046875 18.1328125 C-57.10207344 11.65205431 -51.01130283 7.62602065 -42.4375 4.9375 C-41.70273437 4.69064453 -40.96796875 4.44378906 -40.2109375 4.18945312 C-37.88380773 3.43454511 -35.54945834 2.7623653 -33.1875 2.125 C-32.07411255 1.82045898 -32.07411255 1.82045898 -30.93823242 1.50976562 C-20.83311007 -0.77734794 -10.29385385 -0.08921172 0 0 Z M476.8125 26.125 C476.8125 37.015 476.8125 47.905 476.8125 59.125 C490.12410374 60.29916462 490.12410374 60.29916462 501.8125 55.125 C505.28831096 50.98922493 507.8125 46.62024384 507.8125 41.125 C506.637056 34.65595699 506.637056 34.65595699 503.0078125 29.3984375 C495.34712928 24.95469599 485.15150389 26.125 476.8125 26.125 Z " fill="#FFFFFF" transform="translate(92.1875,64.875)"/>
<path d="M0 0 C0.9734436 0.41125122 0.9734436 0.41125122 1.96655273 0.83081055 C28.92862521 11.57594774 54.59951244 9.3797225 81.21655273 -0.98168945 C81.87655273 -1.31168945 82.53655273 -1.64168945 83.21655273 -1.98168945 C89.47114372 -2.50290537 92.14501971 -2.04665867 97.21655273 2.01831055 C99.25391125 4.44101084 100.92677708 7.01752478 102.59155273 9.70581055 C103.26637695 10.7103125 103.26637695 10.7103125 103.95483398 11.73510742 C107.08106158 16.70951515 108.52930574 21.15631886 107.21655273 27.01831055 C99.23776901 39.73681868 78.84079636 42.87073331 65.21655273 46.01831055 C46.87842495 50.13061603 26.46183468 49.34354991 8.21655273 45.01831055 C7.37108887 44.81963379 6.525625 44.62095703 5.65454102 44.41625977 C-3.75410114 42.13127936 -12.80310776 39.45635937 -21.40844727 34.95581055 C-22.017771 34.63974854 -22.62709473 34.32368652 -23.25488281 33.99804688 C-26.9914105 31.89561005 -29.18418942 30.01645517 -30.78344727 26.01831055 C-31.63076056 19.2117938 -29.91858069 15.39770325 -26.22094727 9.76831055 C-25.80264648 9.07479492 -25.3843457 8.3812793 -24.95336914 7.66674805 C-18.85481771 -1.90751916 -10.44132199 -4.20382118 0 0 Z " fill="#FFFFFF" transform="translate(325.783447265625,426.981689453125)"/>
<path d="M0 0 C4.17220306 2.79315555 6.29572247 5.24596269 8 10 C8.80675552 14.85826399 8.6157679 18.69311866 5.875 22.875 C2.26071655 27.23846265 -1.25865172 28.7753099 -6.875 29.5 C-11.77856836 29.30235137 -15.29241422 27.07687004 -19 24 C-22.26265295 20.32951543 -22.46967039 16.88253804 -22.28125 12.140625 C-21.66322394 7.43675999 -18.73788024 3.86928881 -15.07421875 0.953125 C-10.44009329 -1.17630365 -4.92701074 -0.89413837 0 0 Z " fill="#FFFFFF" transform="translate(706,17)"/>
</svg>
