<?xml version="1.0" standalone="no"?>
<!DOCTYPE svg PUBLIC "-//W3C//DTD SVG 20010904//EN"
 "http://www.w3.org/TR/2001/REC-SVG-20010904/DTD/svg10.dtd">
<svg version="1.0" xmlns="http://www.w3.org/2000/svg"
 width="300.000000pt" height="300.000000pt" viewBox="0 0 300.000000 300.000000"
 preserveAspectRatio="xMidYMid meet">
<g transform="translate(0.000000,300.000000) scale(0.100000,-0.100000)"
fill="#000000" stroke="none">
<path d="M1463 2822 l-52 -3 2 -69 2 -70 58 0 c31 0 57 4 57 10 0 6 -20 10
-45 10 -38 0 -45 3 -45 20 0 17 7 20 40 20 22 0 40 5 40 10 0 6 -18 10 -40 10
-33 0 -40 3 -40 20 0 17 7 20 45 20 25 0 45 4 45 9 0 14 -10 16 -67 13z"/>
<path d="M1335 2768 c-4 -29 -9 -57 -12 -61 -3 -5 -17 17 -31 47 -18 37 -31
53 -39 48 -15 -10 45 -126 68 -130 12 -2 20 13 33 62 20 79 20 86 2 86 -9 0
-16 -17 -21 -52z"/>
<path d="M1574 2753 c-8 -79 -8 -77 4 -81 5 -1 12 11 16 28 5 26 8 29 24 21
11 -6 27 -22 36 -36 9 -14 23 -25 32 -25 11 0 10 7 -8 31 -21 28 -22 31 -5 40
20 12 23 52 5 67 -7 5 -32 13 -55 17 l-41 6 -8 -68z m92 26 c3 -6 0 -17 -7
-25 -19 -18 -59 -7 -59 17 0 14 7 19 29 19 17 0 33 -5 37 -11z"/>
<path d="M1184 2773 c2 -10 7 -34 11 -53 11 -59 16 -70 30 -70 8 0 13 6 10 13
-2 6 -9 38 -15 70 -8 39 -16 57 -26 57 -10 0 -14 -6 -10 -17z"/>
<path d="M1756 2777 c-27 -20 -16 -49 27 -72 20 -11 37 -24 37 -28 0 -16 -32
-19 -58 -6 -15 7 -30 15 -34 17 -5 2 -8 -3 -8 -11 0 -30 93 -50 118 -25 27 27
-1 68 -63 92 -6 2 -6 8 2 16 9 10 18 9 44 -4 39 -19 39 -19 39 -2 0 8 -14 19
-31 25 -41 14 -51 14 -73 -2z"/>
<path d="M1114 2774 c-8 -4 -6 -20 8 -56 22 -57 19 -57 -48 4 -19 18 -37 26
-46 23 -15 -6 -14 -13 4 -68 11 -34 24 -66 29 -71 18 -20 21 5 5 50 -9 26 -16
49 -16 51 0 2 23 -15 50 -38 66 -55 77 -45 50 44 -12 37 -22 67 -23 66 -1 0
-7 -3 -13 -5z"/>
<path d="M1887 2692 c-10 -31 -20 -63 -23 -69 -3 -7 1 -13 9 -13 8 0 23 24 36
59 24 67 26 81 9 81 -7 0 -21 -26 -31 -58z"/>
<path d="M1965 2720 c-4 -7 2 -14 14 -17 27 -7 26 -13 -4 -73 -15 -29 -21 -51
-15 -55 16 -10 24 0 45 54 14 38 24 50 35 45 25 -10 32 -9 36 1 2 6 -17 19
-43 30 -26 11 -50 21 -54 23 -4 2 -10 -2 -14 -8z"/>
<path d="M945 2711 c-3 -5 4 -30 16 -54 25 -51 20 -77 -14 -77 -18 0 -29 11
-47 49 -14 31 -27 47 -36 44 -20 -7 34 -112 62 -119 27 -7 60 10 75 37 8 17 6
32 -13 75 -23 53 -32 62 -43 45z"/>
<path d="M2110 2618 c0 -32 -6 -62 -15 -74 -18 -24 -19 -34 -1 -34 7 0 20 10
29 23 8 13 33 31 56 42 23 10 41 22 41 27 0 13 -34 9 -56 -7 -29 -22 -34 -18
-34 24 0 22 -4 43 -10 46 -6 4 -10 -14 -10 -47z"/>
<path d="M1527 2619 c7 -7 15 -10 18 -7 3 3 -2 9 -12 12 -14 6 -15 5 -6 -5z"/>
<path d="M2063 2615 c0 -8 4 -12 9 -9 5 3 6 10 3 15 -9 13 -12 11 -12 -6z"/>
<path d="M727 2594 c-4 -4 7 -24 24 -46 17 -21 30 -41 27 -43 -2 -2 -26 6 -53
19 -49 22 -75 24 -75 5 0 -17 82 -119 91 -113 10 6 7 14 -30 63 -16 22 -20 33
-11 29 8 -3 34 -14 57 -23 72 -29 80 -15 31 55 -42 60 -49 66 -61 54z"/>
<path d="M2268 2480 c-24 -25 -29 -36 -24 -58 15 -60 79 -80 121 -37 32 31 33
74 2 103 -32 30 -63 27 -99 -8z m86 -9 c22 -24 14 -55 -19 -77 -54 -36 -90 35
-39 75 33 26 37 26 58 2z"/>
<path d="M1688 2032 l2 -439 -66 9 c-36 5 -77 8 -91 6 l-24 -3 0 -155 0 -155
283 -2 283 -3 50 28 c27 15 64 46 82 70 l33 44 0 267 0 267 -49 48 c-31 31
-54 46 -62 41 -7 -5 -10 -4 -6 2 6 10 -99 111 -298 290 -49 44 -99 90 -109
102 -11 11 -22 21 -25 21 -3 0 -5 -197 -3 -438z m107 318 c33 -30 58 -59 57
-63 -1 -5 1 -6 6 -3 5 3 20 -7 34 -22 13 -15 48 -47 76 -72 37 -32 48 -47 39
-53 -9 -6 -8 -8 3 -4 9 3 35 -13 60 -35 25 -22 37 -35 28 -28 -10 7 -18 10
-18 6 0 -3 17 -17 38 -30 20 -13 51 -36 67 -51 l30 -27 5 -256 c3 -141 3 -263
1 -269 -1 -7 -8 -10 -14 -6 -6 4 -7 1 -2 -7 5 -8 -1 -20 -16 -32 -13 -11 -17
-17 -9 -13 8 4 4 -3 -10 -14 -14 -11 -29 -21 -34 -21 -5 0 -18 -8 -29 -17 -17
-16 -49 -18 -298 -20 l-279 -3 0 134 0 134 65 7 c35 4 71 5 80 2 20 -8 31 17
35 78 5 74 3 641 -3 708 -5 66 -10 67 88 -23z"/>
<path d="M1740 2376 c0 -2 7 -7 16 -10 8 -3 12 -2 9 4 -6 10 -25 14 -25 6z"/>
<path d="M1775 2340 c3 -5 8 -10 11 -10 2 0 4 5 4 10 0 6 -5 10 -11 10 -5 0
-7 -4 -4 -10z"/>
<path d="M1865 2260 c3 -5 8 -10 11 -10 2 0 4 5 4 10 0 6 -5 10 -11 10 -5 0
-7 -4 -4 -10z"/>
<path d="M1731 1624 c0 -11 3 -14 6 -6 3 7 2 16 -1 19 -3 4 -6 -2 -5 -13z"/>
<path d="M2175 1420 c-3 -5 -1 -10 4 -10 6 0 11 5 11 10 0 6 -2 10 -4 10 -3 0
-8 -4 -11 -10z"/>
<path d="M554 2447 c-2 -7 9 -45 24 -84 21 -54 31 -70 40 -61 8 8 8 17 1 30
-16 29 16 61 52 53 58 -13 35 14 -37 43 -53 22 -76 27 -80 19z m62 -56 c-18
-17 -21 -15 -30 17 -7 21 -6 22 19 10 23 -10 24 -13 11 -27z"/>
<path d="M785 2401 c-3 -5 -2 -12 3 -15 5 -3 9 1 9 9 0 17 -3 19 -12 6z"/>
<path d="M2401 2361 c-35 -31 -52 -52 -47 -60 6 -9 14 -7 31 9 l22 21 26 -31
c16 -18 28 -26 32 -19 4 6 -4 23 -18 37 -23 24 -24 28 -10 41 14 13 19 11 44
-18 18 -22 29 -29 34 -21 4 7 -5 25 -21 43 -16 18 -31 35 -34 39 -3 4 -29 -15
-59 -41z"/>
<path d="M746 2382 c-3 -5 1 -9 9 -9 8 0 12 4 9 9 -3 4 -7 8 -9 8 -2 0 -6 -4
-9 -8z"/>
<path d="M442 2323 c-19 -25 -32 -46 -30 -47 1 -1 27 -21 56 -45 29 -24 54
-42 55 -40 2 2 18 23 35 46 37 48 27 68 -11 23 -16 -19 -31 -28 -41 -24 -20 8
-20 9 6 44 29 39 14 53 -17 15 -18 -24 -26 -27 -36 -18 -9 10 -7 19 14 47 18
23 23 36 14 39 -6 2 -27 -16 -45 -40z"/>
<path d="M2623 2261 c0 -11 5 -18 9 -15 4 3 5 11 1 19 -7 21 -12 19 -10 -4z"/>
<path d="M323 2235 c0 -7 6 -11 14 -8 7 3 13 6 13 8 0 2 -6 5 -13 8 -8 3 -14
-1 -14 -8z"/>
<path d="M1137 1987 l-268 -262 1 -452 0 -453 263 0 262 1 62 57 c34 31 129
120 213 197 l151 140 -208 3 -208 2 3 328 c1 180 1 411 0 514 l-3 186 -268
-261z m241 -449 c-2 -168 0 -304 3 -302 8 5 21 -25 15 -34 -2 -4 80 -6 182 -4
l186 3 -19 -23 c-11 -13 -24 -26 -30 -30 -15 -12 -27 -9 -19 4 4 7 3 8 -5 4
-6 -4 -9 -11 -6 -15 8 -13 -54 -72 -68 -65 -7 4 -9 4 -5 -1 4 -4 0 -14 -10
-22 -9 -8 -11 -12 -4 -8 6 3 12 3 12 0 0 -3 -15 -12 -32 -20 -18 -8 -26 -14
-18 -15 10 0 9 -4 -5 -14 -11 -7 -24 -14 -30 -14 -5 0 -12 -10 -17 -21 -4 -12
-15 -21 -23 -21 -10 0 -13 -5 -9 -11 4 -7 1 -10 -7 -7 -8 3 -20 -2 -27 -11 -8
-9 -11 -11 -8 -5 3 6 -1 11 -9 11 -13 0 -13 -2 0 -17 13 -14 12 -18 -5 -33
-11 -9 -20 -13 -20 -9 0 5 -7 17 -16 28 -14 18 -15 18 -4 -4 7 -13 9 -26 7
-29 -7 -6 -480 -4 -486 3 -4 3 -5 198 -3 432 l3 427 25 22 c13 12 24 25 24 28
0 14 56 53 73 50 9 -2 15 0 12 6 -4 5 -12 6 -18 3 -7 -4 3 9 22 29 19 20 38
34 43 31 5 -3 7 -2 6 3 -5 15 80 105 87 93 8 -12 25 -4 25 13 0 7 -4 6 -10 -3
-5 -8 -10 -10 -10 -4 0 16 57 67 69 60 5 -4 15 4 21 16 10 21 10 21 -3 6 -8
-10 -17 -15 -20 -12 -7 8 67 74 83 74 8 0 10 3 7 7 -4 3 3 17 15 31 l23 24 3
-174 c1 -95 1 -311 0 -480z"/>
<path d="M1385 1170 c-3 -6 1 -7 9 -4 18 7 21 14 7 14 -6 0 -13 -4 -16 -10z"/>
<path d="M1446 953 c-6 -14 -5 -15 5 -6 7 7 10 15 7 18 -3 3 -9 -2 -12 -12z"/>
<path d="M2415 2240 c3 -5 8 -10 11 -10 2 0 4 5 4 10 0 6 -5 10 -11 10 -5 0
-7 -4 -4 -10z"/>
<path d="M2523 2193 c-52 -35 -52 -36 -37 -62 29 -48 43 -63 54 -56 7 4 4 16
-10 35 -11 15 -20 32 -20 37 0 4 23 21 50 36 28 16 48 33 45 38 -10 15 -28 9
-82 -28z"/>
<path d="M353 2193 c-11 -15 -23 -33 -26 -39 -6 -11 92 -84 113 -84 19 0 10
29 -11 35 -11 4 -19 10 -17 13 30 59 31 64 21 80 -18 29 -58 27 -80 -5z m55
-19 c4 -32 -12 -48 -37 -35 -20 11 -20 13 -5 37 19 28 38 27 42 -2z"/>
<path d="M244 2086 c1 -8 5 -18 8 -22 4 -3 5 1 4 10 -1 8 -5 18 -8 22 -4 3 -5
-1 -4 -10z"/>
<path d="M2600 2072 c-30 -15 -56 -27 -58 -28 -2 -1 34 -84 45 -103 1 -1 6 0
12 4 7 4 4 19 -9 45 -18 36 -18 39 -2 45 11 4 21 0 27 -10 23 -38 34 -50 40
-43 4 3 -1 21 -10 38 -14 27 -15 34 -3 41 15 10 36 -13 45 -49 5 -19 22 -27
26 -12 3 12 -39 100 -48 99 -5 0 -35 -12 -65 -27z"/>
<path d="M271 2044 c-27 -35 -26 -59 4 -89 49 -50 125 -24 125 43 0 69 -87 99
-129 46z m96 -16 c32 -26 1 -80 -39 -71 -34 8 -48 23 -48 47 0 44 48 57 87 24z"/>
<path d="M1065 1989 c-4 -6 -5 -12 -2 -15 2 -3 7 2 10 11 7 17 1 20 -8 4z"/>
<path d="M2657 1928 c-33 -11 -56 -25 -54 -31 3 -7 11 -10 18 -8 8 2 21 6 30
8 12 3 18 -5 23 -31 4 -22 13 -36 21 -36 18 0 18 0 0 43 -13 31 -13 36 1 41
27 10 32 7 38 -29 4 -21 13 -35 21 -35 18 0 18 -3 -1 53 -9 26 -21 47 -27 46
-7 0 -38 -10 -70 -21z"/>
<path d="M215 1891 c-3 -6 -12 -28 -20 -50 l-14 -40 66 -20 c37 -11 70 -18 75
-15 15 10 8 23 -14 26 -35 5 -27 31 15 51 20 10 37 25 37 33 0 12 -5 12 -31
-2 -30 -15 -32 -15 -46 5 -14 21 -57 29 -68 12z m55 -40 c0 -26 -16 -43 -36
-39 -20 4 -21 32 -2 55 13 16 38 5 38 -16z"/>
<path d="M2730 1799 c-25 -5 -55 -12 -67 -15 -13 -2 -23 -11 -23 -19 0 -10 9
-12 34 -8 45 7 51 -8 16 -42 -29 -28 -40 -65 -20 -65 6 0 10 4 10 8 0 4 13 23
29 42 l28 34 37 -27 c20 -16 36 -23 36 -18 0 13 -26 40 -60 62 l-25 16 33 7
c18 4 32 14 32 22 0 8 -3 14 -7 13 -5 -1 -28 -5 -53 -10z"/>
<path d="M806 1753 c-6 -14 -5 -15 5 -6 7 7 10 15 7 18 -3 3 -9 -2 -12 -12z"/>
<path d="M170 1726 c0 -11 9 -16 29 -16 50 0 81 -17 81 -44 0 -31 -19 -37 -75
-27 -27 5 -48 5 -51 -1 -9 -14 -1 -18 56 -27 48 -8 56 -6 77 15 13 13 23 32
23 44 0 25 -34 60 -59 60 -10 0 -33 3 -50 6 -24 5 -31 3 -31 -10z"/>
<path d="M2677 1623 c-9 -8 -9 -60 -1 -90 11 -41 27 -25 22 22 -5 42 -4 45 18
45 21 0 24 -5 24 -35 0 -19 5 -35 10 -35 6 0 10 17 10 38 0 27 4 39 14 39 15
0 31 -60 21 -77 -3 -6 1 -10 10 -10 13 0 16 10 13 55 l-3 55 -66 0 c-36 0 -69
-3 -72 -7z"/>
<path d="M150 1510 l0 -60 70 0 70 0 0 50 c0 28 0 53 1 57 0 4 -4 9 -10 11 -7
2 -11 -14 -11 -42 0 -39 -3 -46 -20 -46 -17 0 -20 7 -20 40 0 22 -4 40 -10 40
-5 0 -10 -18 -10 -40 0 -33 -3 -40 -20 -40 -17 0 -20 7 -20 45 0 25 -4 45 -10
45 -6 0 -10 -27 -10 -60z"/>
<path d="M341 1414 c0 -11 3 -14 6 -6 3 7 2 16 -1 19 -3 4 -6 -2 -5 -13z"/>
<path d="M2617 1293 c-12 -11 -8 -23 8 -23 8 0 15 7 15 15 0 16 -12 20 -23 8z"/>
<path d="M2660 1276 c0 -10 17 -16 53 -21 28 -3 60 -9 70 -11 10 -3 17 0 17 9
0 10 -19 18 -63 26 -79 14 -77 14 -77 -3z"/>
<path d="M2644 1195 c-12 -29 -13 -44 -5 -62 16 -36 47 -29 76 17 14 23 30 38
35 35 15 -9 12 -48 -5 -72 -16 -23 -4 -41 13 -20 40 48 32 117 -13 117 -19 0
-31 -10 -46 -35 -12 -19 -25 -35 -29 -35 -17 0 -19 17 -4 45 10 19 11 32 5 38
-7 7 -16 -2 -27 -28z"/>
<path d="M279 1183 l-56 -14 15 -55 c10 -36 19 -51 25 -45 7 7 7 22 0 45 l-11
34 59 13 c35 8 59 18 59 26 0 16 -19 15 -91 -4z"/>
<path d="M2576 1152 c-3 -5 1 -9 9 -9 8 0 12 4 9 9 -3 4 -7 8 -9 8 -2 0 -6 -4
-9 -8z"/>
<path d="M2596 1045 c-10 -24 -17 -48 -17 -51 0 -4 29 -20 64 -35 l65 -27 15
41 c22 58 24 69 11 74 -6 2 -16 -15 -23 -37 -12 -42 -17 -45 -39 -31 -12 7
-11 14 2 39 11 21 12 33 5 37 -13 9 -14 7 -31 -32 -10 -25 -17 -30 -27 -24
-13 8 -12 15 1 50 13 32 13 41 4 41 -8 0 -21 -20 -30 -45z"/>
<path d="M332 1051 c-45 -19 -61 -30 -58 -41 23 -70 33 -90 43 -90 16 0 16 3
-2 47 -12 29 -13 38 -3 45 21 13 26 10 38 -28 8 -22 16 -32 21 -27 6 6 6 20
-1 37 -5 15 -8 32 -4 37 11 18 25 8 40 -32 10 -24 20 -37 26 -31 8 8 -16 88
-31 103 -3 3 -34 -6 -69 -20z"/>
<path d="M2537 918 c-20 -36 -25 -54 -18 -61 6 -6 11 -7 11 -1 0 5 4 15 9 22
6 11 20 7 64 -18 40 -22 56 -27 59 -18 3 8 -17 25 -46 42 -64 36 -61 33 -46
51 8 10 10 19 4 25 -5 5 -20 -12 -37 -42z"/>
<path d="M388 906 c-41 -23 -55 -35 -49 -45 7 -11 13 -10 33 3 24 16 25 15 42
-21 11 -24 20 -33 27 -26 7 7 4 21 -8 42 -16 28 -16 33 -3 41 23 15 25 13 40
-25 13 -34 24 -43 34 -27 6 10 -36 85 -49 87 -5 2 -36 -12 -67 -29z"/>
<path d="M1490 865 c0 -2 6 -8 13 -14 10 -8 14 -7 14 2 0 8 -6 14 -14 14 -7 0
-13 -1 -13 -2z"/>
<path d="M2442 849 c2 -6 8 -10 13 -10 5 0 11 4 13 10 2 6 -4 11 -13 11 -9 0
-15 -5 -13 -11z"/>
<path d="M2485 830 c-4 -6 -5 -12 -4 -14 2 -1 29 -18 60 -38 52 -34 69 -38 69
-17 0 4 -24 22 -52 41 -67 42 -65 41 -73 28z"/>
<path d="M2695 829 c-4 -6 -5 -12 -2 -15 2 -3 7 2 10 11 7 17 1 20 -8 4z"/>
<path d="M470 788 c-68 -49 -75 -74 -12 -45 30 14 36 5 22 -38 -13 -39 -6 -83
9 -55 5 8 11 32 15 53 7 40 13 42 64 28 18 -6 32 -6 32 -1 0 15 -36 30 -69 30
-39 0 -47 14 -16 28 25 11 32 27 18 35 -5 3 -33 -13 -63 -35z"/>
<path d="M2433 758 c-28 -31 -36 -58 -22 -74 16 -20 42 -17 72 6 14 11 30 20
36 20 21 0 11 -40 -14 -56 -28 -18 -33 -34 -11 -34 19 0 66 57 66 79 0 42 -42
53 -83 21 -14 -11 -30 -20 -36 -20 -20 0 -12 28 14 48 14 11 25 23 25 26 0 14
-28 4 -47 -16z"/>
<path d="M616 752 c-3 -5 1 -9 9 -9 8 0 12 4 9 9 -3 4 -7 8 -9 8 -2 0 -6 -4
-9 -8z"/>
<path d="M1320 745 c-7 -8 -23 -15 -36 -15 -17 0 -24 -6 -24 -20 0 -22 12 -25
41 -10 18 10 19 7 19 -65 0 -68 2 -75 20 -75 19 0 20 7 20 100 0 78 -3 100
-14 100 -7 0 -19 -7 -26 -15z"/>
<path d="M1447 749 c-45 -26 -40 -99 8 -121 19 -8 28 -8 41 3 14 11 16 10 12
-11 -2 -21 -8 -25 -38 -25 -19 0 -39 -6 -43 -13 -11 -17 -9 -18 29 -26 81 -18
128 120 64 184 -22 22 -46 25 -73 9z m51 -31 c17 -17 15 -55 -4 -62 -20 -8
-44 10 -44 33 0 17 18 41 30 41 3 0 11 -5 18 -12z"/>
<path d="M1602 743 c-35 -30 -33 -85 4 -110 21 -13 30 -14 45 -5 15 10 19 9
19 0 0 -28 -18 -41 -49 -36 -20 3 -32 0 -36 -10 -7 -19 -5 -21 32 -28 80 -16
127 122 63 186 -25 25 -51 25 -78 3z m58 -32 c15 -28 12 -48 -6 -55 -34 -13
-59 35 -32 62 17 17 26 15 38 -7z"/>
<path d="M1766 747 c-18 -13 -38 -81 -32 -107 2 -8 7 -27 10 -41 8 -38 57 -57
90 -35 45 29 47 150 3 181 -26 18 -48 19 -71 2z m54 -36 c14 -27 13 -94 -2
-114 -20 -26 -39 -6 -45 45 -8 68 23 113 47 69z"/>
<path d="M1905 711 c-3 -5 -2 -12 3 -15 5 -3 9 1 9 9 0 17 -3 19 -12 6z"/>
<path d="M565 650 l-49 -50 39 -40 c26 -27 42 -37 49 -30 7 7 0 21 -21 42 -23
25 -28 36 -20 44 9 9 19 6 39 -13 14 -14 31 -22 37 -19 7 5 0 16 -16 30 -24
21 -26 26 -13 41 13 16 16 14 40 -16 17 -20 32 -29 39 -24 9 5 2 18 -25 46
-21 22 -41 39 -44 39 -3 0 -28 -22 -55 -50z"/>
<path d="M2315 628 l-35 -33 51 -53 c37 -38 55 -50 62 -43 8 8 5 16 -11 27
-34 24 -11 47 38 39 27 -5 40 -2 50 9 11 14 7 16 -28 16 -33 0 -40 3 -35 15 6
18 -23 55 -44 55 -7 0 -29 -15 -48 -32z m65 -16 c0 -11 -8 -26 -18 -35 -16
-15 -19 -15 -31 4 -10 18 -10 23 6 35 25 19 43 17 43 -4z"/>
<path d="M750 586 c0 -2 7 -7 16 -10 8 -3 12 -2 9 4 -6 10 -25 14 -25 6z"/>
<path d="M491 556 c-9 -10 -7 -17 6 -27 16 -12 17 -12 6 2 -10 12 -10 18 -1
27 7 7 9 12 6 12 -3 0 -11 -6 -17 -14z"/>
<path d="M2206 536 l-39 -33 43 -56 42 -57 44 32 c24 17 44 34 44 38 0 19 -16
17 -42 -5 -33 -28 -43 -30 -54 -13 -4 6 4 20 19 33 26 20 36 45 19 45 -5 0
-19 -11 -33 -26 -22 -23 -24 -24 -36 -8 -11 15 -8 21 22 41 20 13 33 28 30 34
-9 14 -17 11 -59 -25z"/>
<path d="M735 490 c-53 -30 -66 -40 -52 -46 9 -3 24 -1 31 6 23 18 67 -15 64
-48 -2 -14 2 -27 8 -29 8 -3 38 104 39 141 0 20 -23 14 -90 -24z m58 -18 c-6
-24 -18 -28 -29 -10 -4 6 1 17 11 24 23 17 26 14 18 -14z"/>
<path d="M1924 500 c0 -13 4 -16 10 -10 7 7 7 13 0 20 -6 6 -10 3 -10 -10z"/>
<path d="M2133 482 c-9 -5 -9 -19 -3 -47 18 -79 14 -83 -35 -35 -30 30 -48 41
-55 34 -12 -12 89 -104 114 -104 19 0 19 14 3 97 -8 44 -16 60 -24 55z"/>
<path d="M873 403 c-14 -95 -5 -105 50 -60 22 18 48 39 60 48 11 9 17 21 13
28 -5 8 -24 -2 -57 -30 l-50 -41 8 43 c10 63 9 81 -2 86 -7 2 -16 -29 -22 -74z"/>
<path d="M1970 440 c0 -5 7 -10 15 -10 8 0 15 5 15 10 0 6 -7 10 -15 10 -8 0
-15 -4 -15 -10z"/>
<path d="M1700 426 c7 -7 13 -7 20 0 6 6 3 10 -10 10 -13 0 -16 -4 -10 -10z"/>
<path d="M1995 410 c-9 -15 45 -130 61 -130 18 0 19 -3 -16 74 -31 68 -35 73
-45 56z"/>
<path d="M1000 338 c-26 -70 -26 -71 -11 -76 6 -2 15 8 21 22 13 34 34 25 53
-25 8 -21 20 -39 26 -39 14 0 14 3 -1 35 -10 22 -9 28 10 41 45 31 19 82 -49
99 -24 6 -27 2 -49 -57z m78 16 c18 -13 21 -19 11 -30 -14 -17 -20 -17 -43 -1
-11 8 -15 19 -10 30 8 21 14 21 42 1z"/>
<path d="M1930 386 c0 -2 7 -23 15 -46 8 -24 14 -45 11 -47 -2 -2 -22 12 -46
32 -68 57 -80 45 -48 -46 27 -77 26 -75 39 -62 6 6 3 25 -10 56 -11 26 -16 47
-11 47 5 0 11 -4 15 -9 14 -23 82 -69 93 -62 15 9 -27 141 -45 141 -7 0 -13
-2 -13 -4z"/>
<path d="M1750 365 c0 -9 5 -15 11 -13 6 2 11 8 11 13 0 5 -5 11 -11 13 -6 2
-11 -4 -11 -13z"/>
<path d="M1707 364 c-8 -8 1 -24 14 -24 5 0 9 7 9 15 0 15 -12 20 -23 9z"/>
<path d="M1166 335 c-3 -8 -8 -37 -12 -64 -6 -43 -4 -50 17 -65 30 -21 62 -20
81 2 17 19 40 101 32 114 -12 19 -22 5 -33 -47 -7 -30 -14 -55 -16 -55 -2 0
-10 -3 -18 -6 -8 -3 -21 2 -30 10 -13 14 -14 22 -1 68 7 29 14 54 14 56 0 10
-29 -1 -34 -13z"/>
<path d="M1784 314 c19 -75 19 -87 1 -100 -29 -21 -53 -1 -61 51 -6 42 -19 64
-30 52 -3 -3 -2 -26 2 -52 12 -81 58 -106 110 -62 26 23 26 24 14 80 -9 37
-18 57 -28 57 -10 0 -12 -7 -8 -26z"/>
<path d="M1320 292 c0 -16 -3 -50 -6 -76 -6 -38 -4 -46 10 -46 10 0 16 9 16
25 0 22 4 25 40 25 29 0 42 5 50 20 14 27 -3 58 -35 65 -14 3 -36 7 -50 10
-22 5 -25 2 -25 -23z m80 -17 c17 -20 4 -35 -32 -35 -23 0 -29 4 -24 16 3 9 6
20 6 25 0 14 36 10 50 -6z"/>
<path d="M1513 293 c-3 -10 -17 -42 -30 -72 -27 -63 -27 -61 -9 -61 8 0 18 9
21 20 5 14 15 20 37 20 21 0 31 -6 35 -20 3 -11 14 -20 24 -20 16 0 14 8 -17
73 -36 76 -50 90 -61 60z m37 -65 c0 -4 -9 -8 -21 -8 -15 0 -19 4 -15 16 3 9
6 21 6 27 1 13 30 -22 30 -35z"/>
</g>
</svg>
