  0
SECTION
  2
BLOCKS
  0
ENDSEC
  0
SECTION
  2
ENTITIES
  0
LINE
  8
0
 10
212
 20
213
 11
208
 21
213
  0
LINE
  8
0
 10
208
 20
213
 11
208
 21
217
  0
LINE
  8
0
 10
208
 20
217
 11
212
 21
217
  0
LINE
  8
0
 10
212
 20
217
 11
212
 21
221
  0
LINE
  8
0
 10
212
 20
221
 11
208
 21
221
  0
LINE
  8
0
 10
208
 20
221
 11
208
 21
225
  0
LINE
  8
0
 10
208
 20
225
 11
212
 21
225
  0
LINE
  8
0
 10
212
 20
225
 11
212
 21
229
  0
LINE
  8
0
 10
212
 20
229
 11
208
 21
229
  0
LINE
  8
0
 10
208
 20
229
 11
208
 21
233
  0
LINE
  8
0
 10
208
 20
233
 11
212
 21
233
  0
LINE
  8
0
 10
212
 20
233
 11
212
 21
237
  0
LINE
  8
0
 10
212
 20
237
 11
208
 21
237
  0
LINE
  8
0
 10
208
 20
237
 11
208
 21
241
  0
LINE
  8
0
 10
208
 20
241
 11
212
 21
241
  0
LINE
  8
0
 10
212
 20
241
 11
212
 21
245
  0
LINE
  8
0
 10
212
 20
245
 11
208
 21
245
  0
LINE
  8
0
 10
208
 20
245
 11
208
 21
249
  0
LINE
  8
0
 10
208
 20
249
 11
212
 21
249
  0
LINE
  8
0
 10
212
 20
249
 11
212
 21
253
  0
LINE
  8
0
 10
212
 20
253
 11
208
 21
253
  0
LINE
  8
0
 10
208
 20
253
 11
208
 21
257
  0
LINE
  8
0
 10
208
 20
257
 11
212
 21
257
  0
LINE
  8
0
 10
212
 20
257
 11
212
 21
261
  0
LINE
  8
0
 10
212
 20
261
 11
208
 21
261
  0
LINE
  8
0
 10
208
 20
261
 11
208
 21
265
  0
LINE
  8
0
 10
208
 20
265
 11
212
 21
265
  0
LINE
  8
0
 10
212
 20
265
 11
212
 21
269
  0
LINE
  8
0
 10
212
 20
269
 11
208
 21
269
  0
LINE
  8
0
 10
208
 20
269
 11
208
 21
273
  0
LINE
  8
0
 10
208
 20
273
 11
212
 21
273
  0
LINE
  8
0
 10
212
 20
273
 11
212
 21
277
  0
LINE
  8
0
 10
212
 20
277
 11
208
 21
277
  0
LINE
  8
0
 10
208
 20
277
 11
208
 21
281
  0
LINE
  8
0
 10
208
 20
281
 11
212
 21
281
  0
LINE
  8
0
 10
212
 20
281
 11
212
 21
285
  0
LINE
  8
0
 10
212
 20
285
 11
208
 21
285
  0
LINE
  8
0
 10
208
 20
285
 11
208
 21
289
  0
LINE
  8
0
 10
208
 20
289
 11
212
 21
289
  0
LINE
  8
0
 10
212
 20
289
 11
212
 21
293
  0
LINE
  8
0
 10
212
 20
293
 11
208
 21
293
  0
LINE
  8
0
 10
208
 20
293
 11
208
 21
297
  0
LINE
  8
0
 10
208
 20
297
 11
212
 21
297
  0
LINE
  8
0
 10
212
 20
297
 11
212
 21
301
  0
LINE
  8
0
 10
212
 20
301
 11
208
 21
301
  0
LINE
  8
0
 10
208
 20
301
 11
208
 21
305
  0
LINE
  8
0
 10
208
 20
305
 11
212
 21
305
  0
LINE
  8
0
 10
212
 20
305
 11
212
 21
309
  0
LINE
  8
0
 10
212
 20
309
 11
208
 21
309
  0
LINE
  8
0
 10
208
 20
309
 11
208
 21
310
  0
LINE
  8
0
 10
208
 20
310
 11
-4
 21
310
  0
LINE
  8
0
 10
-4
 20
310
 11
-4
 21
306
  0
LINE
  8
0
 10
-4
 20
306
 11
0
 21
306
  0
LINE
  8
0
 10
0
 20
306
 11
0
 21
302
  0
LINE
  8
0
 10
0
 20
302
 11
-4
 21
302
  0
LINE
  8
0
 10
-4
 20
302
 11
-4
 21
298
  0
LINE
  8
0
 10
-4
 20
298
 11
0
 21
298
  0
LINE
  8
0
 10
0
 20
298
 11
0
 21
294
  0
LINE
  8
0
 10
0
 20
294
 11
-4
 21
294
  0
LINE
  8
0
 10
-4
 20
294
 11
-4
 21
290
  0
LINE
  8
0
 10
-4
 20
290
 11
0
 21
290
  0
LINE
  8
0
 10
0
 20
290
 11
0
 21
286
  0
LINE
  8
0
 10
0
 20
286
 11
-4
 21
286
  0
LINE
  8
0
 10
-4
 20
286
 11
-4
 21
282
  0
LINE
  8
0
 10
-4
 20
282
 11
0
 21
282
  0
LINE
  8
0
 10
0
 20
282
 11
0
 21
278
  0
LINE
  8
0
 10
0
 20
278
 11
-4
 21
278
  0
LINE
  8
0
 10
-4
 20
278
 11
-4
 21
274
  0
LINE
  8
0
 10
-4
 20
274
 11
0
 21
274
  0
LINE
  8
0
 10
0
 20
274
 11
0
 21
270
  0
LINE
  8
0
 10
0
 20
270
 11
-4
 21
270
  0
LINE
  8
0
 10
-4
 20
270
 11
-4
 21
266
  0
LINE
  8
0
 10
-4
 20
266
 11
0
 21
266
  0
LINE
  8
0
 10
0
 20
266
 11
0
 21
262
  0
LINE
  8
0
 10
0
 20
262
 11
-4
 21
262
  0
LINE
  8
0
 10
-4
 20
262
 11
-4
 21
258
  0
LINE
  8
0
 10
-4
 20
258
 11
0
 21
258
  0
LINE
  8
0
 10
0
 20
258
 11
0
 21
254
  0
LINE
  8
0
 10
0
 20
254
 11
-4
 21
254
  0
LINE
  8
0
 10
-4
 20
254
 11
-4
 21
250
  0
LINE
  8
0
 10
-4
 20
250
 11
0
 21
250
  0
LINE
  8
0
 10
0
 20
250
 11
0
 21
246
  0
LINE
  8
0
 10
0
 20
246
 11
-4
 21
246
  0
LINE
  8
0
 10
-4
 20
246
 11
-4
 21
242
  0
LINE
  8
0
 10
-4
 20
242
 11
0
 21
242
  0
LINE
  8
0
 10
0
 20
242
 11
0
 21
238
  0
LINE
  8
0
 10
0
 20
238
 11
-4
 21
238
  0
LINE
  8
0
 10
-4
 20
238
 11
-4
 21
234
  0
LINE
  8
0
 10
-4
 20
234
 11
0
 21
234
  0
LINE
  8
0
 10
0
 20
234
 11
0
 21
230
  0
LINE
  8
0
 10
0
 20
230
 11
-4
 21
230
  0
LINE
  8
0
 10
-4
 20
230
 11
-4
 21
226
  0
LINE
  8
0
 10
-4
 20
226
 11
0
 21
226
  0
LINE
  8
0
 10
0
 20
226
 11
0
 21
222
  0
LINE
  8
0
 10
0
 20
222
 11
-4
 21
222
  0
LINE
  8
0
 10
-4
 20
222
 11
-4
 21
218
  0
LINE
  8
0
 10
-4
 20
218
 11
0
 21
218
  0
LINE
  8
0
 10
0
 20
218
 11
0
 21
214
  0
LINE
  8
0
 10
0
 20
214
 11
-4
 21
214
  0
LINE
  8
0
 10
-4
 20
214
 11
-4
 21
210
  0
LINE
  8
0
 10
-4
 20
210
 11
0
 21
210
  0
LINE
  8
0
 10
0
 20
210
 11
0
 21
206
  0
LINE
  8
0
 10
0
 20
206
 11
-4
 21
206
  0
LINE
  8
0
 10
-4
 20
206
 11
-4
 21
202
  0
LINE
  8
0
 10
-4
 20
202
 11
0
 21
202
  0
LINE
  8
0
 10
0
 20
202
 11
0
 21
198
  0
LINE
  8
0
 10
0
 20
198
 11
-4
 21
198
  0
LINE
  8
0
 10
-4
 20
198
 11
-4
 21
194
  0
LINE
  8
0
 10
-4
 20
194
 11
0
 21
194
  0
LINE
  8
0
 10
0
 20
194
 11
0
 21
190
  0
LINE
  8
0
 10
0
 20
190
 11
-4
 21
190
  0
LINE
  8
0
 10
-4
 20
190
 11
-4
 21
186
  0
LINE
  8
0
 10
-4
 20
186
 11
0
 21
186
  0
LINE
  8
0
 10
0
 20
186
 11
0
 21
182
  0
LINE
  8
0
 10
0
 20
182
 11
-4
 21
182
  0
LINE
  8
0
 10
-4
 20
182
 11
-4
 21
178
  0
LINE
  8
0
 10
-4
 20
178
 11
0
 21
178
  0
LINE
  8
0
 10
0
 20
178
 11
0
 21
174
  0
LINE
  8
0
 10
0
 20
174
 11
-4
 21
174
  0
LINE
  8
0
 10
-4
 20
174
 11
-4
 21
170
  0
LINE
  8
0
 10
-4
 20
170
 11
0
 21
170
  0
LINE
  8
0
 10
0
 20
170
 11
0
 21
166
  0
LINE
  8
0
 10
0
 20
166
 11
-4
 21
166
  0
LINE
  8
0
 10
-4
 20
166
 11
-4
 21
162
  0
LINE
  8
0
 10
-4
 20
162
 11
0
 21
162
  0
LINE
  8
0
 10
0
 20
162
 11
0
 21
158
  0
LINE
  8
0
 10
0
 20
158
 11
-4
 21
158
  0
LINE
  8
0
 10
-4
 20
158
 11
-4
 21
154
  0
LINE
  8
0
 10
-4
 20
154
 11
0
 21
154
  0
LINE
  8
0
 10
0
 20
154
 11
0
 21
150
  0
LINE
  8
0
 10
0
 20
150
 11
-4
 21
150
  0
LINE
  8
0
 10
-4
 20
150
 11
-4
 21
146
  0
LINE
  8
0
 10
-4
 20
146
 11
0
 21
146
  0
LINE
  8
0
 10
0
 20
146
 11
0
 21
142
  0
LINE
  8
0
 10
0
 20
142
 11
-4
 21
142
  0
LINE
  8
0
 10
-4
 20
142
 11
-4
 21
138
  0
LINE
  8
0
 10
-4
 20
138
 11
0
 21
138
  0
LINE
  8
0
 10
0
 20
138
 11
0
 21
133
  0
LINE
  8
0
 10
0
 20
133
 11
4
 21
133
  0
LINE
  8
0
 10
4
 20
133
 11
4
 21
137
  0
LINE
  8
0
 10
4
 20
137
 11
8
 21
137
  0
LINE
  8
0
 10
8
 20
137
 11
8
 21
133
  0
LINE
  8
0
 10
8
 20
133
 11
12
 21
133
  0
LINE
  8
0
 10
12
 20
133
 11
12
 21
137
  0
LINE
  8
0
 10
12
 20
137
 11
16
 21
137
  0
LINE
  8
0
 10
16
 20
137
 11
16
 21
133
  0
LINE
  8
0
 10
16
 20
133
 11
20
 21
133
  0
LINE
  8
0
 10
20
 20
133
 11
20
 21
137
  0
LINE
  8
0
 10
20
 20
137
 11
24
 21
137
  0
LINE
  8
0
 10
24
 20
137
 11
24
 21
133
  0
LINE
  8
0
 10
24
 20
133
 11
28
 21
133
  0
LINE
  8
0
 10
28
 20
133
 11
28
 21
137
  0
LINE
  8
0
 10
28
 20
137
 11
32
 21
137
  0
LINE
  8
0
 10
32
 20
137
 11
32
 21
133
  0
LINE
  8
0
 10
32
 20
133
 11
36
 21
133
  0
LINE
  8
0
 10
36
 20
133
 11
36
 21
137
  0
LINE
  8
0
 10
36
 20
137
 11
40
 21
137
  0
LINE
  8
0
 10
40
 20
137
 11
40
 21
133
  0
LINE
  8
0
 10
40
 20
133
 11
44
 21
133
  0
LINE
  8
0
 10
44
 20
133
 11
44
 21
137
  0
LINE
  8
0
 10
44
 20
137
 11
48
 21
137
  0
LINE
  8
0
 10
48
 20
137
 11
48
 21
133
  0
LINE
  8
0
 10
48
 20
133
 11
52
 21
133
  0
LINE
  8
0
 10
52
 20
133
 11
52
 21
137
  0
LINE
  8
0
 10
52
 20
137
 11
56
 21
137
  0
LINE
  8
0
 10
56
 20
137
 11
56
 21
133
  0
LINE
  8
0
 10
56
 20
133
 11
60
 21
133
  0
LINE
  8
0
 10
60
 20
133
 11
60
 21
137
  0
LINE
  8
0
 10
60
 20
137
 11
64
 21
137
  0
LINE
  8
0
 10
64
 20
137
 11
64
 21
133
  0
LINE
  8
0
 10
64
 20
133
 11
68
 21
133
  0
LINE
  8
0
 10
68
 20
133
 11
68
 21
137
  0
LINE
  8
0
 10
68
 20
137
 11
72
 21
137
  0
LINE
  8
0
 10
72
 20
137
 11
72
 21
133
  0
LINE
  8
0
 10
72
 20
133
 11
76
 21
133
  0
LINE
  8
0
 10
76
 20
133
 11
76
 21
137
  0
LINE
  8
0
 10
76
 20
137
 11
80
 21
137
  0
LINE
  8
0
 10
80
 20
137
 11
80
 21
133
  0
LINE
  8
0
 10
80
 20
133
 11
84
 21
133
  0
LINE
  8
0
 10
84
 20
133
 11
84
 21
137
  0
LINE
  8
0
 10
84
 20
137
 11
88
 21
137
  0
LINE
  8
0
 10
88
 20
137
 11
88
 21
133
  0
LINE
  8
0
 10
88
 20
133
 11
92
 21
133
  0
LINE
  8
0
 10
92
 20
133
 11
92
 21
137
  0
LINE
  8
0
 10
92
 20
137
 11
96
 21
137
  0
LINE
  8
0
 10
96
 20
137
 11
96
 21
133
  0
LINE
  8
0
 10
96
 20
133
 11
100
 21
133
  0
LINE
  8
0
 10
100
 20
133
 11
100
 21
137
  0
LINE
  8
0
 10
100
 20
137
 11
104
 21
137
  0
LINE
  8
0
 10
104
 20
137
 11
104
 21
133
  0
LINE
  8
0
 10
104
 20
133
 11
108
 21
133
  0
LINE
  8
0
 10
108
 20
133
 11
108
 21
137
  0
LINE
  8
0
 10
108
 20
137
 11
112
 21
137
  0
LINE
  8
0
 10
112
 20
137
 11
112
 21
133
  0
LINE
  8
0
 10
112
 20
133
 11
116
 21
133
  0
LINE
  8
0
 10
116
 20
133
 11
116
 21
137
  0
LINE
  8
0
 10
116
 20
137
 11
120
 21
137
  0
LINE
  8
0
 10
120
 20
137
 11
120
 21
133
  0
LINE
  8
0
 10
120
 20
133
 11
124
 21
133
  0
LINE
  8
0
 10
124
 20
133
 11
124
 21
137
  0
LINE
  8
0
 10
124
 20
137
 11
128
 21
137
  0
LINE
  8
0
 10
128
 20
137
 11
128
 21
133
  0
LINE
  8
0
 10
128
 20
133
 11
132
 21
133
  0
LINE
  8
0
 10
132
 20
133
 11
132
 21
137
  0
LINE
  8
0
 10
132
 20
137
 11
136
 21
137
  0
LINE
  8
0
 10
136
 20
137
 11
136
 21
133
  0
LINE
  8
0
 10
136
 20
133
 11
140
 21
133
  0
LINE
  8
0
 10
140
 20
133
 11
140
 21
137
  0
LINE
  8
0
 10
140
 20
137
 11
144
 21
137
  0
LINE
  8
0
 10
144
 20
137
 11
144
 21
133
  0
LINE
  8
0
 10
144
 20
133
 11
148
 21
133
  0
LINE
  8
0
 10
148
 20
133
 11
148
 21
137
  0
LINE
  8
0
 10
148
 20
137
 11
152
 21
137
  0
LINE
  8
0
 10
152
 20
137
 11
152
 21
133
  0
LINE
  8
0
 10
152
 20
133
 11
156
 21
133
  0
LINE
  8
0
 10
156
 20
133
 11
156
 21
137
  0
LINE
  8
0
 10
156
 20
137
 11
160
 21
137
  0
LINE
  8
0
 10
160
 20
137
 11
160
 21
133
  0
LINE
  8
0
 10
160
 20
133
 11
164
 21
133
  0
LINE
  8
0
 10
164
 20
133
 11
164
 21
137
  0
LINE
  8
0
 10
164
 20
137
 11
168
 21
137
  0
LINE
  8
0
 10
168
 20
137
 11
168
 21
133
  0
LINE
  8
0
 10
168
 20
133
 11
172
 21
133
  0
LINE
  8
0
 10
172
 20
133
 11
172
 21
137
  0
LINE
  8
0
 10
172
 20
137
 11
176
 21
137
  0
LINE
  8
0
 10
176
 20
137
 11
176
 21
133
  0
LINE
  8
0
 10
176
 20
133
 11
180
 21
133
  0
LINE
  8
0
 10
180
 20
133
 11
180
 21
137
  0
LINE
  8
0
 10
180
 20
137
 11
184
 21
137
  0
LINE
  8
0
 10
184
 20
137
 11
184
 21
133
  0
LINE
  8
0
 10
184
 20
133
 11
188
 21
133
  0
LINE
  8
0
 10
188
 20
133
 11
188
 21
137
  0
LINE
  8
0
 10
188
 20
137
 11
192
 21
137
  0
LINE
  8
0
 10
192
 20
137
 11
192
 21
133
  0
LINE
  8
0
 10
192
 20
133
 11
196
 21
133
  0
LINE
  8
0
 10
196
 20
133
 11
196
 21
137
  0
LINE
  8
0
 10
196
 20
137
 11
200
 21
137
  0
LINE
  8
0
 10
200
 20
137
 11
200
 21
133
  0
LINE
  8
0
 10
200
 20
133
 11
204
 21
133
  0
LINE
  8
0
 10
204
 20
133
 11
204
 21
137
  0
LINE
  8
0
 10
204
 20
137
 11
212
 21
137
  0
LINE
  8
0
 10
212
 20
137
 11
212
 21
141
  0
LINE
  8
0
 10
212
 20
141
 11
208
 21
141
  0
LINE
  8
0
 10
208
 20
141
 11
208
 21
145
  0
LINE
  8
0
 10
208
 20
145
 11
212
 21
145
  0
LINE
  8
0
 10
212
 20
145
 11
212
 21
149
  0
LINE
  8
0
 10
212
 20
149
 11
208
 21
149
  0
LINE
  8
0
 10
208
 20
149
 11
208
 21
153
  0
LINE
  8
0
 10
208
 20
153
 11
212
 21
153
  0
LINE
  8
0
 10
212
 20
153
 11
212
 21
157
  0
LINE
  8
0
 10
212
 20
157
 11
208
 21
157
  0
LINE
  8
0
 10
208
 20
157
 11
208
 21
161
  0
LINE
  8
0
 10
208
 20
161
 11
212
 21
161
  0
LINE
  8
0
 10
212
 20
161
 11
212
 21
165
  0
LINE
  8
0
 10
212
 20
165
 11
208
 21
165
  0
LINE
  8
0
 10
208
 20
165
 11
208
 21
169
  0
LINE
  8
0
 10
208
 20
169
 11
212
 21
169
  0
LINE
  8
0
 10
212
 20
169
 11
212
 21
173
  0
LINE
  8
0
 10
212
 20
173
 11
208
 21
173
  0
LINE
  8
0
 10
208
 20
173
 11
208
 21
177
  0
LINE
  8
0
 10
208
 20
177
 11
212
 21
177
  0
LINE
  8
0
 10
212
 20
177
 11
212
 21
181
  0
LINE
  8
0
 10
212
 20
181
 11
208
 21
181
  0
LINE
  8
0
 10
208
 20
181
 11
208
 21
185
  0
LINE
  8
0
 10
208
 20
185
 11
212
 21
185
  0
LINE
  8
0
 10
212
 20
185
 11
212
 21
189
  0
LINE
  8
0
 10
212
 20
189
 11
208
 21
189
  0
LINE
  8
0
 10
208
 20
189
 11
208
 21
193
  0
LINE
  8
0
 10
208
 20
193
 11
212
 21
193
  0
LINE
  8
0
 10
212
 20
193
 11
212
 21
197
  0
LINE
  8
0
 10
212
 20
197
 11
208
 21
197
  0
LINE
  8
0
 10
208
 20
197
 11
208
 21
201
  0
LINE
  8
0
 10
208
 20
201
 11
212
 21
201
  0
LINE
  8
0
 10
212
 20
201
 11
212
 21
205
  0
LINE
  8
0
 10
212
 20
205
 11
208
 21
205
  0
LINE
  8
0
 10
208
 20
205
 11
208
 21
206
  0
LINE
  8
0
 10
208
 20
206
 11
204
 21
206
  0
LINE
  8
0
 10
204
 20
206
 11
204
 21
210
  0
LINE
  8
0
 10
204
 20
210
 11
208
 21
210
  0
LINE
  8
0
 10
208
 20
210
 11
208
 21
209
  0
LINE
  8
0
 10
208
 20
209
 11
212
 21
209
  0
LINE
  8
0
 10
212
 20
209
 11
212
 21
213
  0
LINE
  8
0
 10
84
 20
206
 11
84
 21
210
  0
LINE
  8
0
 10
84
 20
210
 11
88
 21
210
  0
LINE
  8
0
 10
88
 20
210
 11
88
 21
206
  0
LINE
  8
0
 10
88
 20
206
 11
84
 21
206
  0
LINE
  8
0
 10
196
 20
206
 11
196
 21
210
  0
LINE
  8
0
 10
196
 20
210
 11
200
 21
210
  0
LINE
  8
0
 10
200
 20
210
 11
200
 21
206
  0
LINE
  8
0
 10
200
 20
206
 11
196
 21
206
  0
LINE
  8
0
 10
4
 20
206
 11
4
 21
210
  0
LINE
  8
0
 10
4
 20
210
 11
8
 21
210
  0
LINE
  8
0
 10
8
 20
210
 11
8
 21
206
  0
LINE
  8
0
 10
8
 20
206
 11
4
 21
206
  0
LINE
  8
0
 10
12
 20
206
 11
12
 21
210
  0
LINE
  8
0
 10
12
 20
210
 11
16
 21
210
  0
LINE
  8
0
 10
16
 20
210
 11
16
 21
206
  0
LINE
  8
0
 10
16
 20
206
 11
12
 21
206
  0
LINE
  8
0
 10
20
 20
206
 11
20
 21
210
  0
LINE
  8
0
 10
20
 20
210
 11
24
 21
210
  0
LINE
  8
0
 10
24
 20
210
 11
24
 21
206
  0
LINE
  8
0
 10
24
 20
206
 11
20
 21
206
  0
LINE
  8
0
 10
28
 20
206
 11
28
 21
210
  0
LINE
  8
0
 10
28
 20
210
 11
32
 21
210
  0
LINE
  8
0
 10
32
 20
210
 11
32
 21
206
  0
LINE
  8
0
 10
32
 20
206
 11
28
 21
206
  0
LINE
  8
0
 10
36
 20
206
 11
36
 21
210
  0
LINE
  8
0
 10
36
 20
210
 11
40
 21
210
  0
LINE
  8
0
 10
40
 20
210
 11
40
 21
206
  0
LINE
  8
0
 10
40
 20
206
 11
36
 21
206
  0
LINE
  8
0
 10
44
 20
206
 11
44
 21
210
  0
LINE
  8
0
 10
44
 20
210
 11
48
 21
210
  0
LINE
  8
0
 10
48
 20
210
 11
48
 21
206
  0
LINE
  8
0
 10
48
 20
206
 11
44
 21
206
  0
LINE
  8
0
 10
52
 20
206
 11
52
 21
210
  0
LINE
  8
0
 10
52
 20
210
 11
56
 21
210
  0
LINE
  8
0
 10
56
 20
210
 11
56
 21
206
  0
LINE
  8
0
 10
56
 20
206
 11
52
 21
206
  0
LINE
  8
0
 10
60
 20
206
 11
60
 21
210
  0
LINE
  8
0
 10
60
 20
210
 11
64
 21
210
  0
LINE
  8
0
 10
64
 20
210
 11
64
 21
206
  0
LINE
  8
0
 10
64
 20
206
 11
60
 21
206
  0
LINE
  8
0
 10
68
 20
206
 11
68
 21
210
  0
LINE
  8
0
 10
68
 20
210
 11
72
 21
210
  0
LINE
  8
0
 10
72
 20
210
 11
72
 21
206
  0
LINE
  8
0
 10
72
 20
206
 11
68
 21
206
  0
LINE
  8
0
 10
76
 20
206
 11
76
 21
210
  0
LINE
  8
0
 10
76
 20
210
 11
80
 21
210
  0
LINE
  8
0
 10
80
 20
210
 11
80
 21
206
  0
LINE
  8
0
 10
80
 20
206
 11
76
 21
206
  0
LINE
  8
0
 10
92
 20
206
 11
92
 21
210
  0
LINE
  8
0
 10
92
 20
210
 11
96
 21
210
  0
LINE
  8
0
 10
96
 20
210
 11
96
 21
206
  0
LINE
  8
0
 10
96
 20
206
 11
92
 21
206
  0
LINE
  8
0
 10
108
 20
206
 11
108
 21
210
  0
LINE
  8
0
 10
108
 20
210
 11
112
 21
210
  0
LINE
  8
0
 10
112
 20
210
 11
112
 21
206
  0
LINE
  8
0
 10
112
 20
206
 11
108
 21
206
  0
LINE
  8
0
 10
188
 20
206
 11
188
 21
210
  0
LINE
  8
0
 10
188
 20
210
 11
192
 21
210
  0
LINE
  8
0
 10
192
 20
210
 11
192
 21
206
  0
LINE
  8
0
 10
192
 20
206
 11
188
 21
206
  0
LINE
  8
0
 10
180
 20
206
 11
180
 21
210
  0
LINE
  8
0
 10
180
 20
210
 11
184
 21
210
  0
LINE
  8
0
 10
184
 20
210
 11
184
 21
206
  0
LINE
  8
0
 10
184
 20
206
 11
180
 21
206
  0
LINE
  8
0
 10
172
 20
206
 11
172
 21
210
  0
LINE
  8
0
 10
172
 20
210
 11
176
 21
210
  0
LINE
  8
0
 10
176
 20
210
 11
176
 21
206
  0
LINE
  8
0
 10
176
 20
206
 11
172
 21
206
  0
LINE
  8
0
 10
164
 20
206
 11
164
 21
210
  0
LINE
  8
0
 10
164
 20
210
 11
168
 21
210
  0
LINE
  8
0
 10
168
 20
210
 11
168
 21
206
  0
LINE
  8
0
 10
168
 20
206
 11
164
 21
206
  0
LINE
  8
0
 10
156
 20
206
 11
156
 21
210
  0
LINE
  8
0
 10
156
 20
210
 11
160
 21
210
  0
LINE
  8
0
 10
160
 20
210
 11
160
 21
206
  0
LINE
  8
0
 10
160
 20
206
 11
156
 21
206
  0
LINE
  8
0
 10
148
 20
206
 11
148
 21
210
  0
LINE
  8
0
 10
148
 20
210
 11
152
 21
210
  0
LINE
  8
0
 10
152
 20
210
 11
152
 21
206
  0
LINE
  8
0
 10
152
 20
206
 11
148
 21
206
  0
LINE
  8
0
 10
140
 20
206
 11
140
 21
210
  0
LINE
  8
0
 10
140
 20
210
 11
144
 21
210
  0
LINE
  8
0
 10
144
 20
210
 11
144
 21
206
  0
LINE
  8
0
 10
144
 20
206
 11
140
 21
206
  0
LINE
  8
0
 10
132
 20
206
 11
132
 21
210
  0
LINE
  8
0
 10
132
 20
210
 11
136
 21
210
  0
LINE
  8
0
 10
136
 20
210
 11
136
 21
206
  0
LINE
  8
0
 10
136
 20
206
 11
132
 21
206
  0
LINE
  8
0
 10
124
 20
206
 11
124
 21
210
  0
LINE
  8
0
 10
124
 20
210
 11
128
 21
210
  0
LINE
  8
0
 10
128
 20
210
 11
128
 21
206
  0
LINE
  8
0
 10
128
 20
206
 11
124
 21
206
  0
LINE
  8
0
 10
116
 20
206
 11
116
 21
210
  0
LINE
  8
0
 10
116
 20
210
 11
120
 21
210
  0
LINE
  8
0
 10
120
 20
210
 11
120
 21
206
  0
LINE
  8
0
 10
120
 20
206
 11
116
 21
206
  0
LINE
  8
0
 10
100
 20
206
 11
100
 21
210
  0
LINE
  8
0
 10
100
 20
210
 11
104
 21
210
  0
LINE
  8
0
 10
104
 20
210
 11
104
 21
206
  0
LINE
  8
0
 10
104
 20
206
 11
100
 21
206
  0
LINE
  8
0
 10
103.425
 20
156.53
 11
102.3
 21
156.769
  0
LINE
  8
0
 10
102.3
 20
156.769
 11
101.25
 21
157.237
  0
LINE
  8
0
 10
101.25
 20
157.237
 11
100.32
 21
157.913
  0
LINE
  8
0
 10
100.32
 20
157.913
 11
99.5504
 21
158.767
  0
LINE
  8
0
 10
99.5504
 20
158.767
 11
98.9755
 21
159.763
  0
LINE
  8
0
 10
98.9755
 20
159.763
 11
98.6202
 21
160.856
  0
LINE
  8
0
 10
98.6202
 20
160.856
 11
98.5
 21
162
  0
LINE
  8
0
 10
98.5
 20
162
 11
98.6202
 21
163.144
  0
LINE
  8
0
 10
98.6202
 20
163.144
 11
98.9755
 21
164.237
  0
LINE
  8
0
 10
98.9755
 20
164.237
 11
99.5504
 21
165.233
  0
LINE
  8
0
 10
99.5504
 20
165.233
 11
100.32
 21
166.087
  0
LINE
  8
0
 10
100.32
 20
166.087
 11
101.25
 21
166.763
  0
LINE
  8
0
 10
101.25
 20
166.763
 11
102.3
 21
167.231
  0
LINE
  8
0
 10
102.3
 20
167.231
 11
103.425
 21
167.47
  0
LINE
  8
0
 10
103.425
 20
167.47
 11
104.575
 21
167.47
  0
LINE
  8
0
 10
104.575
 20
167.47
 11
105.7
 21
167.231
  0
LINE
  8
0
 10
105.7
 20
167.231
 11
106.75
 21
166.763
  0
LINE
  8
0
 10
106.75
 20
166.763
 11
107.68
 21
166.087
  0
LINE
  8
0
 10
107.68
 20
166.087
 11
108.45
 21
165.233
  0
LINE
  8
0
 10
108.45
 20
165.233
 11
109.024
 21
164.237
  0
LINE
  8
0
 10
109.024
 20
164.237
 11
109.38
 21
163.144
  0
LINE
  8
0
 10
109.38
 20
163.144
 11
109.5
 21
162
  0
LINE
  8
0
 10
109.5
 20
162
 11
109.38
 21
160.856
  0
LINE
  8
0
 10
109.38
 20
160.856
 11
109.024
 21
159.763
  0
LINE
  8
0
 10
109.024
 20
159.763
 11
108.45
 21
158.767
  0
LINE
  8
0
 10
108.45
 20
158.767
 11
107.68
 21
157.913
  0
LINE
  8
0
 10
107.68
 20
157.913
 11
106.75
 21
157.237
  0
LINE
  8
0
 10
106.75
 20
157.237
 11
105.7
 21
156.769
  0
LINE
  8
0
 10
105.7
 20
156.769
 11
104.575
 21
156.53
  0
LINE
  8
0
 10
104.575
 20
156.53
 11
103.425
 21
156.53
  0
LINE
  8
0
 10
1201
 20
164
 11
1082
 21
164
  0
LINE
  8
0
 10
1082
 20
164
 11
1082
 21
158
  0
LINE
  8
0
 10
1082
 20
158
 11
1201
 21
158
  0
LINE
  8
0
 10
1201
 20
158
 11
1201
 21
164
  0
LINE
  8
0
 10
1201
 20
154
 11
1082
 21
154
  0
LINE
  8
0
 10
1082
 20
154
 11
1082
 21
148
  0
LINE
  8
0
 10
1082
 20
148
 11
1201
 21
148
  0
LINE
  8
0
 10
1201
 20
148
 11
1201
 21
154
  0
LINE
  8
0
 10
964
 20
142
 11
924
 21
142
  0
LINE
  8
0
 10
924
 20
142
 11
924
 21
138
  0
LINE
  8
0
 10
924
 20
138
 11
964
 21
138
  0
LINE
  8
0
 10
964
 20
138
 11
964
 21
142
  0
LINE
  8
0
 10
524
 20
0
 11
528
 21
0
  0
LINE
  8
0
 10
528
 20
0
 11
528
 21
-4
  0
LINE
  8
0
 10
528
 20
-4
 11
532
 21
-4
  0
LINE
  8
0
 10
532
 20
-4
 11
532
 21
0
  0
LINE
  8
0
 10
532
 20
0
 11
536
 21
0
  0
LINE
  8
0
 10
536
 20
0
 11
536
 21
-4
  0
LINE
  8
0
 10
536
 20
-4
 11
540
 21
-4
  0
LINE
  8
0
 10
540
 20
-4
 11
540
 21
0
  0
LINE
  8
0
 10
540
 20
0
 11
544
 21
0
  0
LINE
  8
0
 10
544
 20
0
 11
544
 21
-4
  0
LINE
  8
0
 10
544
 20
-4
 11
548
 21
-4
  0
LINE
  8
0
 10
548
 20
-4
 11
548
 21
0
  0
LINE
  8
0
 10
548
 20
0
 11
552
 21
0
  0
LINE
  8
0
 10
552
 20
0
 11
552
 21
-4
  0
LINE
  8
0
 10
552
 20
-4
 11
556
 21
-4
  0
LINE
  8
0
 10
556
 20
-4
 11
556
 21
0
  0
LINE
  8
0
 10
556
 20
0
 11
560
 21
0
  0
LINE
  8
0
 10
560
 20
0
 11
560
 21
-4
  0
LINE
  8
0
 10
560
 20
-4
 11
564
 21
-4
  0
LINE
  8
0
 10
564
 20
-4
 11
564
 21
0
  0
LINE
  8
0
 10
564
 20
0
 11
568
 21
0
  0
LINE
  8
0
 10
568
 20
0
 11
568
 21
-4
  0
LINE
  8
0
 10
568
 20
-4
 11
572
 21
-4
  0
LINE
  8
0
 10
572
 20
-4
 11
572
 21
0
  0
LINE
  8
0
 10
572
 20
0
 11
576
 21
0
  0
LINE
  8
0
 10
576
 20
0
 11
576
 21
-4
  0
LINE
  8
0
 10
576
 20
-4
 11
580
 21
-4
  0
LINE
  8
0
 10
580
 20
-4
 11
580
 21
0
  0
LINE
  8
0
 10
580
 20
0
 11
584
 21
0
  0
LINE
  8
0
 10
584
 20
0
 11
584
 21
-4
  0
LINE
  8
0
 10
584
 20
-4
 11
588
 21
-4
  0
LINE
  8
0
 10
588
 20
-4
 11
588
 21
0
  0
LINE
  8
0
 10
588
 20
0
 11
592
 21
0
  0
LINE
  8
0
 10
592
 20
0
 11
592
 21
-4
  0
LINE
  8
0
 10
592
 20
-4
 11
596
 21
-4
  0
LINE
  8
0
 10
596
 20
-4
 11
596
 21
0
  0
LINE
  8
0
 10
596
 20
0
 11
600
 21
0
  0
LINE
  8
0
 10
600
 20
0
 11
600
 21
-4
  0
LINE
  8
0
 10
600
 20
-4
 11
604
 21
-4
  0
LINE
  8
0
 10
604
 20
-4
 11
604
 21
0
  0
LINE
  8
0
 10
604
 20
0
 11
608
 21
0
  0
LINE
  8
0
 10
608
 20
0
 11
608
 21
-4
  0
LINE
  8
0
 10
608
 20
-4
 11
612
 21
-4
  0
LINE
  8
0
 10
612
 20
-4
 11
612
 21
0
  0
LINE
  8
0
 10
612
 20
0
 11
616
 21
0
  0
LINE
  8
0
 10
616
 20
0
 11
616
 21
-4
  0
LINE
  8
0
 10
616
 20
-4
 11
620
 21
-4
  0
LINE
  8
0
 10
620
 20
-4
 11
620
 21
0
  0
LINE
  8
0
 10
620
 20
0
 11
624
 21
0
  0
LINE
  8
0
 10
624
 20
0
 11
624
 21
-4
  0
LINE
  8
0
 10
624
 20
-4
 11
628
 21
-4
  0
LINE
  8
0
 10
628
 20
-4
 11
628
 21
0
  0
LINE
  8
0
 10
628
 20
0
 11
632
 21
0
  0
LINE
  8
0
 10
632
 20
0
 11
632
 21
-4
  0
LINE
  8
0
 10
632
 20
-4
 11
636
 21
-4
  0
LINE
  8
0
 10
636
 20
-4
 11
636
 21
0
  0
LINE
  8
0
 10
636
 20
0
 11
640
 21
0
  0
LINE
  8
0
 10
640
 20
0
 11
640
 21
-4
  0
LINE
  8
0
 10
640
 20
-4
 11
644
 21
-4
  0
LINE
  8
0
 10
644
 20
-4
 11
644
 21
0
  0
LINE
  8
0
 10
644
 20
0
 11
648
 21
0
  0
LINE
  8
0
 10
648
 20
0
 11
648
 21
-4
  0
LINE
  8
0
 10
648
 20
-4
 11
652
 21
-4
  0
LINE
  8
0
 10
652
 20
-4
 11
652
 21
0
  0
LINE
  8
0
 10
652
 20
0
 11
656
 21
0
  0
LINE
  8
0
 10
656
 20
0
 11
656
 21
-4
  0
LINE
  8
0
 10
656
 20
-4
 11
660
 21
-4
  0
LINE
  8
0
 10
660
 20
-4
 11
660
 21
0
  0
LINE
  8
0
 10
660
 20
0
 11
664
 21
0
  0
LINE
  8
0
 10
664
 20
0
 11
664
 21
-4
  0
LINE
  8
0
 10
664
 20
-4
 11
668
 21
-4
  0
LINE
  8
0
 10
668
 20
-4
 11
668
 21
0
  0
LINE
  8
0
 10
668
 20
0
 11
672
 21
0
  0
LINE
  8
0
 10
672
 20
0
 11
672
 21
-4
  0
LINE
  8
0
 10
672
 20
-4
 11
676
 21
-4
  0
LINE
  8
0
 10
676
 20
-4
 11
676
 21
0
  0
LINE
  8
0
 10
676
 20
0
 11
680
 21
0
  0
LINE
  8
0
 10
680
 20
0
 11
680
 21
-4
  0
LINE
  8
0
 10
680
 20
-4
 11
684
 21
-4
  0
LINE
  8
0
 10
684
 20
-4
 11
684
 21
0
  0
LINE
  8
0
 10
684
 20
0
 11
688
 21
0
  0
LINE
  8
0
 10
688
 20
0
 11
688
 21
-4
  0
LINE
  8
0
 10
688
 20
-4
 11
692
 21
-4
  0
LINE
  8
0
 10
692
 20
-4
 11
692
 21
0
  0
LINE
  8
0
 10
692
 20
0
 11
696
 21
0
  0
LINE
  8
0
 10
696
 20
0
 11
696
 21
-4
  0
LINE
  8
0
 10
696
 20
-4
 11
700
 21
-4
  0
LINE
  8
0
 10
700
 20
-4
 11
700
 21
0
  0
LINE
  8
0
 10
700
 20
0
 11
704
 21
0
  0
LINE
  8
0
 10
704
 20
0
 11
704
 21
-4
  0
LINE
  8
0
 10
704
 20
-4
 11
708
 21
-4
  0
LINE
  8
0
 10
708
 20
-4
 11
708
 21
0
  0
LINE
  8
0
 10
708
 20
0
 11
712
 21
0
  0
LINE
  8
0
 10
712
 20
0
 11
712
 21
-4
  0
LINE
  8
0
 10
712
 20
-4
 11
716
 21
-4
  0
LINE
  8
0
 10
716
 20
-4
 11
716
 21
0
  0
LINE
  8
0
 10
716
 20
0
 11
720
 21
0
  0
LINE
  8
0
 10
720
 20
0
 11
720
 21
-4
  0
LINE
  8
0
 10
720
 20
-4
 11
724
 21
-4
  0
LINE
  8
0
 10
724
 20
-4
 11
724
 21
4
  0
LINE
  8
0
 10
724
 20
4
 11
728
 21
4
  0
LINE
  8
0
 10
728
 20
4
 11
728
 21
8
  0
LINE
  8
0
 10
728
 20
8
 11
724
 21
8
  0
LINE
  8
0
 10
724
 20
8
 11
724
 21
12
  0
LINE
  8
0
 10
724
 20
12
 11
728
 21
12
  0
LINE
  8
0
 10
728
 20
12
 11
728
 21
16
  0
LINE
  8
0
 10
728
 20
16
 11
724
 21
16
  0
LINE
  8
0
 10
724
 20
16
 11
724
 21
20
  0
LINE
  8
0
 10
724
 20
20
 11
728
 21
20
  0
LINE
  8
0
 10
728
 20
20
 11
728
 21
24
  0
LINE
  8
0
 10
728
 20
24
 11
724
 21
24
  0
LINE
  8
0
 10
724
 20
24
 11
724
 21
28
  0
LINE
  8
0
 10
724
 20
28
 11
728
 21
28
  0
LINE
  8
0
 10
728
 20
28
 11
728
 21
32
  0
LINE
  8
0
 10
728
 20
32
 11
724
 21
32
  0
LINE
  8
0
 10
724
 20
32
 11
724
 21
36
  0
LINE
  8
0
 10
724
 20
36
 11
728
 21
36
  0
LINE
  8
0
 10
728
 20
36
 11
728
 21
40
  0
LINE
  8
0
 10
728
 20
40
 11
724
 21
40
  0
LINE
  8
0
 10
724
 20
40
 11
724
 21
44
  0
LINE
  8
0
 10
724
 20
44
 11
728
 21
44
  0
LINE
  8
0
 10
728
 20
44
 11
728
 21
48
  0
LINE
  8
0
 10
728
 20
48
 11
724
 21
48
  0
LINE
  8
0
 10
724
 20
48
 11
724
 21
52
  0
LINE
  8
0
 10
724
 20
52
 11
728
 21
52
  0
LINE
  8
0
 10
728
 20
52
 11
728
 21
56
  0
LINE
  8
0
 10
728
 20
56
 11
724
 21
56
  0
LINE
  8
0
 10
724
 20
56
 11
724
 21
60
  0
LINE
  8
0
 10
724
 20
60
 11
728
 21
60
  0
LINE
  8
0
 10
728
 20
60
 11
728
 21
64
  0
LINE
  8
0
 10
728
 20
64
 11
724
 21
64
  0
LINE
  8
0
 10
724
 20
64
 11
724
 21
68
  0
LINE
  8
0
 10
724
 20
68
 11
728
 21
68
  0
LINE
  8
0
 10
728
 20
68
 11
728
 21
72
  0
LINE
  8
0
 10
728
 20
72
 11
724
 21
72
  0
LINE
  8
0
 10
724
 20
72
 11
724
 21
76
  0
LINE
  8
0
 10
724
 20
76
 11
728
 21
76
  0
LINE
  8
0
 10
728
 20
76
 11
728
 21
80
  0
LINE
  8
0
 10
728
 20
80
 11
724
 21
80
  0
LINE
  8
0
 10
724
 20
80
 11
724
 21
84
  0
LINE
  8
0
 10
724
 20
84
 11
728
 21
84
  0
LINE
  8
0
 10
728
 20
84
 11
728
 21
88
  0
LINE
  8
0
 10
728
 20
88
 11
724
 21
88
  0
LINE
  8
0
 10
724
 20
88
 11
724
 21
92
  0
LINE
  8
0
 10
724
 20
92
 11
728
 21
92
  0
LINE
  8
0
 10
728
 20
92
 11
728
 21
96
  0
LINE
  8
0
 10
728
 20
96
 11
724
 21
96
  0
LINE
  8
0
 10
724
 20
96
 11
724
 21
100
  0
LINE
  8
0
 10
724
 20
100
 11
728
 21
100
  0
LINE
  8
0
 10
728
 20
100
 11
728
 21
104
  0
LINE
  8
0
 10
728
 20
104
 11
724
 21
104
  0
LINE
  8
0
 10
724
 20
104
 11
724
 21
108
  0
LINE
  8
0
 10
724
 20
108
 11
728
 21
108
  0
LINE
  8
0
 10
728
 20
108
 11
728
 21
112
  0
LINE
  8
0
 10
728
 20
112
 11
724
 21
112
  0
LINE
  8
0
 10
724
 20
112
 11
724
 21
116
  0
LINE
  8
0
 10
724
 20
116
 11
728
 21
116
  0
LINE
  8
0
 10
728
 20
116
 11
728
 21
120
  0
LINE
  8
0
 10
728
 20
120
 11
724
 21
120
  0
LINE
  8
0
 10
724
 20
120
 11
724
 21
124
  0
LINE
  8
0
 10
724
 20
124
 11
728
 21
124
  0
LINE
  8
0
 10
728
 20
124
 11
728
 21
128
  0
LINE
  8
0
 10
728
 20
128
 11
724
 21
128
  0
LINE
  8
0
 10
724
 20
128
 11
724
 21
132
  0
LINE
  8
0
 10
724
 20
132
 11
720
 21
132
  0
LINE
  8
0
 10
720
 20
132
 11
720
 21
128
  0
LINE
  8
0
 10
720
 20
128
 11
716
 21
128
  0
LINE
  8
0
 10
716
 20
128
 11
716
 21
132
  0
LINE
  8
0
 10
716
 20
132
 11
712
 21
132
  0
LINE
  8
0
 10
712
 20
132
 11
712
 21
128
  0
LINE
  8
0
 10
712
 20
128
 11
708
 21
128
  0
LINE
  8
0
 10
708
 20
128
 11
708
 21
132
  0
LINE
  8
0
 10
708
 20
132
 11
704
 21
132
  0
LINE
  8
0
 10
704
 20
132
 11
704
 21
128
  0
LINE
  8
0
 10
704
 20
128
 11
700
 21
128
  0
LINE
  8
0
 10
700
 20
128
 11
700
 21
132
  0
LINE
  8
0
 10
700
 20
132
 11
696
 21
132
  0
LINE
  8
0
 10
696
 20
132
 11
696
 21
128
  0
LINE
  8
0
 10
696
 20
128
 11
692
 21
128
  0
LINE
  8
0
 10
692
 20
128
 11
692
 21
132
  0
LINE
  8
0
 10
692
 20
132
 11
688
 21
132
  0
LINE
  8
0
 10
688
 20
132
 11
688
 21
128
  0
LINE
  8
0
 10
688
 20
128
 11
684
 21
128
  0
LINE
  8
0
 10
684
 20
128
 11
684
 21
132
  0
LINE
  8
0
 10
684
 20
132
 11
680
 21
132
  0
LINE
  8
0
 10
680
 20
132
 11
680
 21
128
  0
LINE
  8
0
 10
680
 20
128
 11
676
 21
128
  0
LINE
  8
0
 10
676
 20
128
 11
676
 21
132
  0
LINE
  8
0
 10
676
 20
132
 11
672
 21
132
  0
LINE
  8
0
 10
672
 20
132
 11
672
 21
128
  0
LINE
  8
0
 10
672
 20
128
 11
668
 21
128
  0
LINE
  8
0
 10
668
 20
128
 11
668
 21
132
  0
LINE
  8
0
 10
668
 20
132
 11
664
 21
132
  0
LINE
  8
0
 10
664
 20
132
 11
664
 21
128
  0
LINE
  8
0
 10
664
 20
128
 11
660
 21
128
  0
LINE
  8
0
 10
660
 20
128
 11
660
 21
132
  0
LINE
  8
0
 10
660
 20
132
 11
656
 21
132
  0
LINE
  8
0
 10
656
 20
132
 11
656
 21
128
  0
LINE
  8
0
 10
656
 20
128
 11
652
 21
128
  0
LINE
  8
0
 10
652
 20
128
 11
652
 21
132
  0
LINE
  8
0
 10
652
 20
132
 11
648
 21
132
  0
LINE
  8
0
 10
648
 20
132
 11
648
 21
128
  0
LINE
  8
0
 10
648
 20
128
 11
644
 21
128
  0
LINE
  8
0
 10
644
 20
128
 11
644
 21
132
  0
LINE
  8
0
 10
644
 20
132
 11
640
 21
132
  0
LINE
  8
0
 10
640
 20
132
 11
640
 21
128
  0
LINE
  8
0
 10
640
 20
128
 11
636
 21
128
  0
LINE
  8
0
 10
636
 20
128
 11
636
 21
132
  0
LINE
  8
0
 10
636
 20
132
 11
632
 21
132
  0
LINE
  8
0
 10
632
 20
132
 11
632
 21
128
  0
LINE
  8
0
 10
632
 20
128
 11
628
 21
128
  0
LINE
  8
0
 10
628
 20
128
 11
628
 21
132
  0
LINE
  8
0
 10
628
 20
132
 11
624
 21
132
  0
LINE
  8
0
 10
624
 20
132
 11
624
 21
128
  0
LINE
  8
0
 10
624
 20
128
 11
620
 21
128
  0
LINE
  8
0
 10
620
 20
128
 11
620
 21
132
  0
LINE
  8
0
 10
620
 20
132
 11
616
 21
132
  0
LINE
  8
0
 10
616
 20
132
 11
616
 21
128
  0
LINE
  8
0
 10
616
 20
128
 11
612
 21
128
  0
LINE
  8
0
 10
612
 20
128
 11
612
 21
132
  0
LINE
  8
0
 10
612
 20
132
 11
608
 21
132
  0
LINE
  8
0
 10
608
 20
132
 11
608
 21
128
  0
LINE
  8
0
 10
608
 20
128
 11
604
 21
128
  0
LINE
  8
0
 10
604
 20
128
 11
604
 21
132
  0
LINE
  8
0
 10
604
 20
132
 11
600
 21
132
  0
LINE
  8
0
 10
600
 20
132
 11
600
 21
128
  0
LINE
  8
0
 10
600
 20
128
 11
596
 21
128
  0
LINE
  8
0
 10
596
 20
128
 11
596
 21
132
  0
LINE
  8
0
 10
596
 20
132
 11
592
 21
132
  0
LINE
  8
0
 10
592
 20
132
 11
592
 21
128
  0
LINE
  8
0
 10
592
 20
128
 11
588
 21
128
  0
LINE
  8
0
 10
588
 20
128
 11
588
 21
132
  0
LINE
  8
0
 10
588
 20
132
 11
584
 21
132
  0
LINE
  8
0
 10
584
 20
132
 11
584
 21
128
  0
LINE
  8
0
 10
584
 20
128
 11
580
 21
128
  0
LINE
  8
0
 10
580
 20
128
 11
580
 21
132
  0
LINE
  8
0
 10
580
 20
132
 11
576
 21
132
  0
LINE
  8
0
 10
576
 20
132
 11
576
 21
128
  0
LINE
  8
0
 10
576
 20
128
 11
572
 21
128
  0
LINE
  8
0
 10
572
 20
128
 11
572
 21
132
  0
LINE
  8
0
 10
572
 20
132
 11
568
 21
132
  0
LINE
  8
0
 10
568
 20
132
 11
568
 21
128
  0
LINE
  8
0
 10
568
 20
128
 11
564
 21
128
  0
LINE
  8
0
 10
564
 20
128
 11
564
 21
132
  0
LINE
  8
0
 10
564
 20
132
 11
560
 21
132
  0
LINE
  8
0
 10
560
 20
132
 11
560
 21
128
  0
LINE
  8
0
 10
560
 20
128
 11
556
 21
128
  0
LINE
  8
0
 10
556
 20
128
 11
556
 21
132
  0
LINE
  8
0
 10
556
 20
132
 11
552
 21
132
  0
LINE
  8
0
 10
552
 20
132
 11
552
 21
128
  0
LINE
  8
0
 10
552
 20
128
 11
548
 21
128
  0
LINE
  8
0
 10
548
 20
128
 11
548
 21
132
  0
LINE
  8
0
 10
548
 20
132
 11
544
 21
132
  0
LINE
  8
0
 10
544
 20
132
 11
544
 21
128
  0
LINE
  8
0
 10
544
 20
128
 11
540
 21
128
  0
LINE
  8
0
 10
540
 20
128
 11
540
 21
132
  0
LINE
  8
0
 10
540
 20
132
 11
536
 21
132
  0
LINE
  8
0
 10
536
 20
132
 11
536
 21
128
  0
LINE
  8
0
 10
536
 20
128
 11
532
 21
128
  0
LINE
  8
0
 10
532
 20
128
 11
532
 21
132
  0
LINE
  8
0
 10
532
 20
132
 11
528
 21
132
  0
LINE
  8
0
 10
528
 20
132
 11
528
 21
128
  0
LINE
  8
0
 10
528
 20
128
 11
524
 21
128
  0
LINE
  8
0
 10
524
 20
128
 11
524
 21
132
  0
LINE
  8
0
 10
524
 20
132
 11
520
 21
132
  0
LINE
  8
0
 10
520
 20
132
 11
520
 21
128
  0
LINE
  8
0
 10
520
 20
128
 11
512
 21
128
  0
LINE
  8
0
 10
512
 20
128
 11
512
 21
124
  0
LINE
  8
0
 10
512
 20
124
 11
516
 21
124
  0
LINE
  8
0
 10
516
 20
124
 11
516
 21
120
  0
LINE
  8
0
 10
516
 20
120
 11
512
 21
120
  0
LINE
  8
0
 10
512
 20
120
 11
512
 21
116
  0
LINE
  8
0
 10
512
 20
116
 11
516
 21
116
  0
LINE
  8
0
 10
516
 20
116
 11
516
 21
112
  0
LINE
  8
0
 10
516
 20
112
 11
512
 21
112
  0
LINE
  8
0
 10
512
 20
112
 11
512
 21
108
  0
LINE
  8
0
 10
512
 20
108
 11
516
 21
108
  0
LINE
  8
0
 10
516
 20
108
 11
516
 21
104
  0
LINE
  8
0
 10
516
 20
104
 11
512
 21
104
  0
LINE
  8
0
 10
512
 20
104
 11
512
 21
100
  0
LINE
  8
0
 10
512
 20
100
 11
516
 21
100
  0
LINE
  8
0
 10
516
 20
100
 11
516
 21
96
  0
LINE
  8
0
 10
516
 20
96
 11
512
 21
96
  0
LINE
  8
0
 10
512
 20
96
 11
512
 21
92
  0
LINE
  8
0
 10
512
 20
92
 11
516
 21
92
  0
LINE
  8
0
 10
516
 20
92
 11
516
 21
88
  0
LINE
  8
0
 10
516
 20
88
 11
512
 21
88
  0
LINE
  8
0
 10
512
 20
88
 11
512
 21
84
  0
LINE
  8
0
 10
512
 20
84
 11
516
 21
84
  0
LINE
  8
0
 10
516
 20
84
 11
516
 21
80
  0
LINE
  8
0
 10
516
 20
80
 11
512
 21
80
  0
LINE
  8
0
 10
512
 20
80
 11
512
 21
76
  0
LINE
  8
0
 10
512
 20
76
 11
516
 21
76
  0
LINE
  8
0
 10
516
 20
76
 11
516
 21
72
  0
LINE
  8
0
 10
516
 20
72
 11
512
 21
72
  0
LINE
  8
0
 10
512
 20
72
 11
512
 21
68
  0
LINE
  8
0
 10
512
 20
68
 11
516
 21
68
  0
LINE
  8
0
 10
516
 20
68
 11
516
 21
64
  0
LINE
  8
0
 10
516
 20
64
 11
512
 21
64
  0
LINE
  8
0
 10
512
 20
64
 11
512
 21
60
  0
LINE
  8
0
 10
512
 20
60
 11
516
 21
60
  0
LINE
  8
0
 10
516
 20
60
 11
516
 21
56
  0
LINE
  8
0
 10
516
 20
56
 11
512
 21
56
  0
LINE
  8
0
 10
512
 20
56
 11
512
 21
52
  0
LINE
  8
0
 10
512
 20
52
 11
516
 21
52
  0
LINE
  8
0
 10
516
 20
52
 11
516
 21
48
  0
LINE
  8
0
 10
516
 20
48
 11
512
 21
48
  0
LINE
  8
0
 10
512
 20
48
 11
512
 21
44
  0
LINE
  8
0
 10
512
 20
44
 11
516
 21
44
  0
LINE
  8
0
 10
516
 20
44
 11
516
 21
40
  0
LINE
  8
0
 10
516
 20
40
 11
512
 21
40
  0
LINE
  8
0
 10
512
 20
40
 11
512
 21
36
  0
LINE
  8
0
 10
512
 20
36
 11
516
 21
36
  0
LINE
  8
0
 10
516
 20
36
 11
516
 21
32
  0
LINE
  8
0
 10
516
 20
32
 11
512
 21
32
  0
LINE
  8
0
 10
512
 20
32
 11
512
 21
28
  0
LINE
  8
0
 10
512
 20
28
 11
516
 21
28
  0
LINE
  8
0
 10
516
 20
28
 11
516
 21
24
  0
LINE
  8
0
 10
516
 20
24
 11
512
 21
24
  0
LINE
  8
0
 10
512
 20
24
 11
512
 21
20
  0
LINE
  8
0
 10
512
 20
20
 11
516
 21
20
  0
LINE
  8
0
 10
516
 20
20
 11
516
 21
16
  0
LINE
  8
0
 10
516
 20
16
 11
512
 21
16
  0
LINE
  8
0
 10
512
 20
16
 11
512
 21
12
  0
LINE
  8
0
 10
512
 20
12
 11
516
 21
12
  0
LINE
  8
0
 10
516
 20
12
 11
516
 21
8
  0
LINE
  8
0
 10
516
 20
8
 11
512
 21
8
  0
LINE
  8
0
 10
512
 20
8
 11
512
 21
4
  0
LINE
  8
0
 10
512
 20
4
 11
516
 21
4
  0
LINE
  8
0
 10
516
 20
4
 11
516
 21
0
  0
LINE
  8
0
 10
516
 20
0
 11
520
 21
0
  0
LINE
  8
0
 10
520
 20
0
 11
520
 21
-4
  0
LINE
  8
0
 10
520
 20
-4
 11
524
 21
-4
  0
LINE
  8
0
 10
524
 20
-4
 11
524
 21
0
  0
LINE
  8
0
 10
619.227
 20
110.622
 11
618.531
 21
110.977
  0
LINE
  8
0
 10
618.531
 20
110.977
 11
617.977
 21
111.531
  0
LINE
  8
0
 10
617.977
 20
111.531
 11
617.622
 21
112.227
  0
LINE
  8
0
 10
617.622
 20
112.227
 11
617.5
 21
113
  0
LINE
  8
0
 10
617.5
 20
113
 11
617.622
 21
113.773
  0
LINE
  8
0
 10
617.622
 20
113.773
 11
617.977
 21
114.469
  0
LINE
  8
0
 10
617.977
 20
114.469
 11
618.531
 21
115.023
  0
LINE
  8
0
 10
618.531
 20
115.023
 11
619.227
 21
115.378
  0
LINE
  8
0
 10
619.227
 20
115.378
 11
620
 21
115.5
  0
LINE
  8
0
 10
620
 20
115.5
 11
620.773
 21
115.378
  0
LINE
  8
0
 10
620.773
 20
115.378
 11
621.469
 21
115.023
  0
LINE
  8
0
 10
621.469
 20
115.023
 11
622.023
 21
114.469
  0
LINE
  8
0
 10
622.023
 20
114.469
 11
622.378
 21
113.773
  0
LINE
  8
0
 10
622.378
 20
113.773
 11
622.5
 21
113
  0
LINE
  8
0
 10
622.5
 20
113
 11
622.378
 21
112.227
  0
LINE
  8
0
 10
622.378
 20
112.227
 11
622.023
 21
111.531
  0
LINE
  8
0
 10
622.023
 20
111.531
 11
621.469
 21
110.977
  0
LINE
  8
0
 10
621.469
 20
110.977
 11
620.773
 21
110.622
  0
LINE
  8
0
 10
620.773
 20
110.622
 11
620
 21
110.5
  0
LINE
  8
0
 10
620
 20
110.5
 11
619.227
 21
110.622
  0
LINE
  8
0
 10
4
 20
0
 11
8
 21
0
  0
LINE
  8
0
 10
8
 20
0
 11
8
 21
-4
  0
LINE
  8
0
 10
8
 20
-4
 11
12
 21
-4
  0
LINE
  8
0
 10
12
 20
-4
 11
12
 21
0
  0
LINE
  8
0
 10
12
 20
0
 11
16
 21
0
  0
LINE
  8
0
 10
16
 20
0
 11
16
 21
-4
  0
LINE
  8
0
 10
16
 20
-4
 11
20
 21
-4
  0
LINE
  8
0
 10
20
 20
-4
 11
20
 21
0
  0
LINE
  8
0
 10
20
 20
0
 11
24
 21
0
  0
LINE
  8
0
 10
24
 20
0
 11
24
 21
-4
  0
LINE
  8
0
 10
24
 20
-4
 11
28
 21
-4
  0
LINE
  8
0
 10
28
 20
-4
 11
28
 21
0
  0
LINE
  8
0
 10
28
 20
0
 11
32
 21
0
  0
LINE
  8
0
 10
32
 20
0
 11
32
 21
-4
  0
LINE
  8
0
 10
32
 20
-4
 11
36
 21
-4
  0
LINE
  8
0
 10
36
 20
-4
 11
36
 21
0
  0
LINE
  8
0
 10
36
 20
0
 11
40
 21
0
  0
LINE
  8
0
 10
40
 20
0
 11
40
 21
-4
  0
LINE
  8
0
 10
40
 20
-4
 11
44
 21
-4
  0
LINE
  8
0
 10
44
 20
-4
 11
44
 21
0
  0
LINE
  8
0
 10
44
 20
0
 11
48
 21
0
  0
LINE
  8
0
 10
48
 20
0
 11
48
 21
-4
  0
LINE
  8
0
 10
48
 20
-4
 11
52
 21
-4
  0
LINE
  8
0
 10
52
 20
-4
 11
52
 21
0
  0
LINE
  8
0
 10
52
 20
0
 11
56
 21
0
  0
LINE
  8
0
 10
56
 20
0
 11
56
 21
-4
  0
LINE
  8
0
 10
56
 20
-4
 11
60
 21
-4
  0
LINE
  8
0
 10
60
 20
-4
 11
60
 21
0
  0
LINE
  8
0
 10
60
 20
0
 11
64
 21
0
  0
LINE
  8
0
 10
64
 20
0
 11
64
 21
-4
  0
LINE
  8
0
 10
64
 20
-4
 11
68
 21
-4
  0
LINE
  8
0
 10
68
 20
-4
 11
68
 21
0
  0
LINE
  8
0
 10
68
 20
0
 11
72
 21
0
  0
LINE
  8
0
 10
72
 20
0
 11
72
 21
-4
  0
LINE
  8
0
 10
72
 20
-4
 11
76
 21
-4
  0
LINE
  8
0
 10
76
 20
-4
 11
76
 21
0
  0
LINE
  8
0
 10
76
 20
0
 11
80
 21
0
  0
LINE
  8
0
 10
80
 20
0
 11
80
 21
-4
  0
LINE
  8
0
 10
80
 20
-4
 11
84
 21
-4
  0
LINE
  8
0
 10
84
 20
-4
 11
84
 21
0
  0
LINE
  8
0
 10
84
 20
0
 11
88
 21
0
  0
LINE
  8
0
 10
88
 20
0
 11
88
 21
-4
  0
LINE
  8
0
 10
88
 20
-4
 11
92
 21
-4
  0
LINE
  8
0
 10
92
 20
-4
 11
92
 21
0
  0
LINE
  8
0
 10
92
 20
0
 11
96
 21
0
  0
LINE
  8
0
 10
96
 20
0
 11
96
 21
-4
  0
LINE
  8
0
 10
96
 20
-4
 11
100
 21
-4
  0
LINE
  8
0
 10
100
 20
-4
 11
100
 21
0
  0
LINE
  8
0
 10
100
 20
0
 11
104
 21
0
  0
LINE
  8
0
 10
104
 20
0
 11
104
 21
-4
  0
LINE
  8
0
 10
104
 20
-4
 11
108
 21
-4
  0
LINE
  8
0
 10
108
 20
-4
 11
108
 21
0
  0
LINE
  8
0
 10
108
 20
0
 11
112
 21
0
  0
LINE
  8
0
 10
112
 20
0
 11
112
 21
-4
  0
LINE
  8
0
 10
112
 20
-4
 11
116
 21
-4
  0
LINE
  8
0
 10
116
 20
-4
 11
116
 21
0
  0
LINE
  8
0
 10
116
 20
0
 11
120
 21
0
  0
LINE
  8
0
 10
120
 20
0
 11
120
 21
-4
  0
LINE
  8
0
 10
120
 20
-4
 11
124
 21
-4
  0
LINE
  8
0
 10
124
 20
-4
 11
124
 21
0
  0
LINE
  8
0
 10
124
 20
0
 11
128
 21
0
  0
LINE
  8
0
 10
128
 20
0
 11
128
 21
-4
  0
LINE
  8
0
 10
128
 20
-4
 11
132
 21
-4
  0
LINE
  8
0
 10
132
 20
-4
 11
132
 21
0
  0
LINE
  8
0
 10
132
 20
0
 11
136
 21
0
  0
LINE
  8
0
 10
136
 20
0
 11
136
 21
-4
  0
LINE
  8
0
 10
136
 20
-4
 11
140
 21
-4
  0
LINE
  8
0
 10
140
 20
-4
 11
140
 21
0
  0
LINE
  8
0
 10
140
 20
0
 11
144
 21
0
  0
LINE
  8
0
 10
144
 20
0
 11
144
 21
-4
  0
LINE
  8
0
 10
144
 20
-4
 11
148
 21
-4
  0
LINE
  8
0
 10
148
 20
-4
 11
148
 21
0
  0
LINE
  8
0
 10
148
 20
0
 11
152
 21
0
  0
LINE
  8
0
 10
152
 20
0
 11
152
 21
-4
  0
LINE
  8
0
 10
152
 20
-4
 11
156
 21
-4
  0
LINE
  8
0
 10
156
 20
-4
 11
156
 21
0
  0
LINE
  8
0
 10
156
 20
0
 11
160
 21
0
  0
LINE
  8
0
 10
160
 20
0
 11
160
 21
-4
  0
LINE
  8
0
 10
160
 20
-4
 11
164
 21
-4
  0
LINE
  8
0
 10
164
 20
-4
 11
164
 21
0
  0
LINE
  8
0
 10
164
 20
0
 11
168
 21
0
  0
LINE
  8
0
 10
168
 20
0
 11
168
 21
-4
  0
LINE
  8
0
 10
168
 20
-4
 11
172
 21
-4
  0
LINE
  8
0
 10
172
 20
-4
 11
172
 21
0
  0
LINE
  8
0
 10
172
 20
0
 11
176
 21
0
  0
LINE
  8
0
 10
176
 20
0
 11
176
 21
-4
  0
LINE
  8
0
 10
176
 20
-4
 11
180
 21
-4
  0
LINE
  8
0
 10
180
 20
-4
 11
180
 21
0
  0
LINE
  8
0
 10
180
 20
0
 11
184
 21
0
  0
LINE
  8
0
 10
184
 20
0
 11
184
 21
-4
  0
LINE
  8
0
 10
184
 20
-4
 11
188
 21
-4
  0
LINE
  8
0
 10
188
 20
-4
 11
188
 21
0
  0
LINE
  8
0
 10
188
 20
0
 11
192
 21
0
  0
LINE
  8
0
 10
192
 20
0
 11
192
 21
-4
  0
LINE
  8
0
 10
192
 20
-4
 11
196
 21
-4
  0
LINE
  8
0
 10
196
 20
-4
 11
196
 21
0
  0
LINE
  8
0
 10
196
 20
0
 11
200
 21
0
  0
LINE
  8
0
 10
200
 20
0
 11
200
 21
-4
  0
LINE
  8
0
 10
200
 20
-4
 11
204
 21
-4
  0
LINE
  8
0
 10
204
 20
-4
 11
204
 21
0
  0
LINE
  8
0
 10
204
 20
0
 11
212
 21
0
  0
LINE
  8
0
 10
212
 20
0
 11
212
 21
4
  0
LINE
  8
0
 10
212
 20
4
 11
208
 21
4
  0
LINE
  8
0
 10
208
 20
4
 11
208
 21
8
  0
LINE
  8
0
 10
208
 20
8
 11
212
 21
8
  0
LINE
  8
0
 10
212
 20
8
 11
212
 21
12
  0
LINE
  8
0
 10
212
 20
12
 11
208
 21
12
  0
LINE
  8
0
 10
208
 20
12
 11
208
 21
16
  0
LINE
  8
0
 10
208
 20
16
 11
212
 21
16
  0
LINE
  8
0
 10
212
 20
16
 11
212
 21
20
  0
LINE
  8
0
 10
212
 20
20
 11
208
 21
20
  0
LINE
  8
0
 10
208
 20
20
 11
208
 21
24
  0
LINE
  8
0
 10
208
 20
24
 11
212
 21
24
  0
LINE
  8
0
 10
212
 20
24
 11
212
 21
28
  0
LINE
  8
0
 10
212
 20
28
 11
208
 21
28
  0
LINE
  8
0
 10
208
 20
28
 11
208
 21
32
  0
LINE
  8
0
 10
208
 20
32
 11
212
 21
32
  0
LINE
  8
0
 10
212
 20
32
 11
212
 21
36
  0
LINE
  8
0
 10
212
 20
36
 11
208
 21
36
  0
LINE
  8
0
 10
208
 20
36
 11
208
 21
40
  0
LINE
  8
0
 10
208
 20
40
 11
212
 21
40
  0
LINE
  8
0
 10
212
 20
40
 11
212
 21
44
  0
LINE
  8
0
 10
212
 20
44
 11
208
 21
44
  0
LINE
  8
0
 10
208
 20
44
 11
208
 21
48
  0
LINE
  8
0
 10
208
 20
48
 11
212
 21
48
  0
LINE
  8
0
 10
212
 20
48
 11
212
 21
52
  0
LINE
  8
0
 10
212
 20
52
 11
208
 21
52
  0
LINE
  8
0
 10
208
 20
52
 11
208
 21
56
  0
LINE
  8
0
 10
208
 20
56
 11
212
 21
56
  0
LINE
  8
0
 10
212
 20
56
 11
212
 21
60
  0
LINE
  8
0
 10
212
 20
60
 11
208
 21
60
  0
LINE
  8
0
 10
208
 20
60
 11
208
 21
64
  0
LINE
  8
0
 10
208
 20
64
 11
212
 21
64
  0
LINE
  8
0
 10
212
 20
64
 11
212
 21
68
  0
LINE
  8
0
 10
212
 20
68
 11
208
 21
68
  0
LINE
  8
0
 10
208
 20
68
 11
208
 21
72
  0
LINE
  8
0
 10
208
 20
72
 11
212
 21
72
  0
LINE
  8
0
 10
212
 20
72
 11
212
 21
76
  0
LINE
  8
0
 10
212
 20
76
 11
208
 21
76
  0
LINE
  8
0
 10
208
 20
76
 11
208
 21
80
  0
LINE
  8
0
 10
208
 20
80
 11
212
 21
80
  0
LINE
  8
0
 10
212
 20
80
 11
212
 21
84
  0
LINE
  8
0
 10
212
 20
84
 11
208
 21
84
  0
LINE
  8
0
 10
208
 20
84
 11
208
 21
88
  0
LINE
  8
0
 10
208
 20
88
 11
212
 21
88
  0
LINE
  8
0
 10
212
 20
88
 11
212
 21
92
  0
LINE
  8
0
 10
212
 20
92
 11
208
 21
92
  0
LINE
  8
0
 10
208
 20
92
 11
208
 21
96
  0
LINE
  8
0
 10
208
 20
96
 11
212
 21
96
  0
LINE
  8
0
 10
212
 20
96
 11
212
 21
100
  0
LINE
  8
0
 10
212
 20
100
 11
208
 21
100
  0
LINE
  8
0
 10
208
 20
100
 11
208
 21
104
  0
LINE
  8
0
 10
208
 20
104
 11
212
 21
104
  0
LINE
  8
0
 10
212
 20
104
 11
212
 21
108
  0
LINE
  8
0
 10
212
 20
108
 11
208
 21
108
  0
LINE
  8
0
 10
208
 20
108
 11
208
 21
112
  0
LINE
  8
0
 10
208
 20
112
 11
212
 21
112
  0
LINE
  8
0
 10
212
 20
112
 11
212
 21
116
  0
LINE
  8
0
 10
212
 20
116
 11
208
 21
116
  0
LINE
  8
0
 10
208
 20
116
 11
208
 21
120
  0
LINE
  8
0
 10
208
 20
120
 11
212
 21
120
  0
LINE
  8
0
 10
212
 20
120
 11
212
 21
124
  0
LINE
  8
0
 10
212
 20
124
 11
208
 21
124
  0
LINE
  8
0
 10
208
 20
124
 11
208
 21
132
  0
LINE
  8
0
 10
208
 20
132
 11
204
 21
132
  0
LINE
  8
0
 10
204
 20
132
 11
204
 21
128
  0
LINE
  8
0
 10
204
 20
128
 11
200
 21
128
  0
LINE
  8
0
 10
200
 20
128
 11
200
 21
132
  0
LINE
  8
0
 10
200
 20
132
 11
196
 21
132
  0
LINE
  8
0
 10
196
 20
132
 11
196
 21
128
  0
LINE
  8
0
 10
196
 20
128
 11
192
 21
128
  0
LINE
  8
0
 10
192
 20
128
 11
192
 21
132
  0
LINE
  8
0
 10
192
 20
132
 11
188
 21
132
  0
LINE
  8
0
 10
188
 20
132
 11
188
 21
128
  0
LINE
  8
0
 10
188
 20
128
 11
184
 21
128
  0
LINE
  8
0
 10
184
 20
128
 11
184
 21
132
  0
LINE
  8
0
 10
184
 20
132
 11
180
 21
132
  0
LINE
  8
0
 10
180
 20
132
 11
180
 21
128
  0
LINE
  8
0
 10
180
 20
128
 11
176
 21
128
  0
LINE
  8
0
 10
176
 20
128
 11
176
 21
132
  0
LINE
  8
0
 10
176
 20
132
 11
172
 21
132
  0
LINE
  8
0
 10
172
 20
132
 11
172
 21
128
  0
LINE
  8
0
 10
172
 20
128
 11
168
 21
128
  0
LINE
  8
0
 10
168
 20
128
 11
168
 21
132
  0
LINE
  8
0
 10
168
 20
132
 11
164
 21
132
  0
LINE
  8
0
 10
164
 20
132
 11
164
 21
128
  0
LINE
  8
0
 10
164
 20
128
 11
160
 21
128
  0
LINE
  8
0
 10
160
 20
128
 11
160
 21
132
  0
LINE
  8
0
 10
160
 20
132
 11
156
 21
132
  0
LINE
  8
0
 10
156
 20
132
 11
156
 21
128
  0
LINE
  8
0
 10
156
 20
128
 11
152
 21
128
  0
LINE
  8
0
 10
152
 20
128
 11
152
 21
132
  0
LINE
  8
0
 10
152
 20
132
 11
148
 21
132
  0
LINE
  8
0
 10
148
 20
132
 11
148
 21
128
  0
LINE
  8
0
 10
148
 20
128
 11
144
 21
128
  0
LINE
  8
0
 10
144
 20
128
 11
144
 21
132
  0
LINE
  8
0
 10
144
 20
132
 11
140
 21
132
  0
LINE
  8
0
 10
140
 20
132
 11
140
 21
128
  0
LINE
  8
0
 10
140
 20
128
 11
136
 21
128
  0
LINE
  8
0
 10
136
 20
128
 11
136
 21
132
  0
LINE
  8
0
 10
136
 20
132
 11
132
 21
132
  0
LINE
  8
0
 10
132
 20
132
 11
132
 21
128
  0
LINE
  8
0
 10
132
 20
128
 11
128
 21
128
  0
LINE
  8
0
 10
128
 20
128
 11
128
 21
132
  0
LINE
  8
0
 10
128
 20
132
 11
124
 21
132
  0
LINE
  8
0
 10
124
 20
132
 11
124
 21
128
  0
LINE
  8
0
 10
124
 20
128
 11
120
 21
128
  0
LINE
  8
0
 10
120
 20
128
 11
120
 21
132
  0
LINE
  8
0
 10
120
 20
132
 11
116
 21
132
  0
LINE
  8
0
 10
116
 20
132
 11
116
 21
128
  0
LINE
  8
0
 10
116
 20
128
 11
112
 21
128
  0
LINE
  8
0
 10
112
 20
128
 11
112
 21
132
  0
LINE
  8
0
 10
112
 20
132
 11
108
 21
132
  0
LINE
  8
0
 10
108
 20
132
 11
108
 21
128
  0
LINE
  8
0
 10
108
 20
128
 11
104
 21
128
  0
LINE
  8
0
 10
104
 20
128
 11
104
 21
132
  0
LINE
  8
0
 10
104
 20
132
 11
100
 21
132
  0
LINE
  8
0
 10
100
 20
132
 11
100
 21
128
  0
LINE
  8
0
 10
100
 20
128
 11
96
 21
128
  0
LINE
  8
0
 10
96
 20
128
 11
96
 21
132
  0
LINE
  8
0
 10
96
 20
132
 11
92
 21
132
  0
LINE
  8
0
 10
92
 20
132
 11
92
 21
128
  0
LINE
  8
0
 10
92
 20
128
 11
88
 21
128
  0
LINE
  8
0
 10
88
 20
128
 11
88
 21
132
  0
LINE
  8
0
 10
88
 20
132
 11
84
 21
132
  0
LINE
  8
0
 10
84
 20
132
 11
84
 21
128
  0
LINE
  8
0
 10
84
 20
128
 11
80
 21
128
  0
LINE
  8
0
 10
80
 20
128
 11
80
 21
132
  0
LINE
  8
0
 10
80
 20
132
 11
76
 21
132
  0
LINE
  8
0
 10
76
 20
132
 11
76
 21
128
  0
LINE
  8
0
 10
76
 20
128
 11
72
 21
128
  0
LINE
  8
0
 10
72
 20
128
 11
72
 21
132
  0
LINE
  8
0
 10
72
 20
132
 11
68
 21
132
  0
LINE
  8
0
 10
68
 20
132
 11
68
 21
128
  0
LINE
  8
0
 10
68
 20
128
 11
64
 21
128
  0
LINE
  8
0
 10
64
 20
128
 11
64
 21
132
  0
LINE
  8
0
 10
64
 20
132
 11
60
 21
132
  0
LINE
  8
0
 10
60
 20
132
 11
60
 21
128
  0
LINE
  8
0
 10
60
 20
128
 11
56
 21
128
  0
LINE
  8
0
 10
56
 20
128
 11
56
 21
132
  0
LINE
  8
0
 10
56
 20
132
 11
52
 21
132
  0
LINE
  8
0
 10
52
 20
132
 11
52
 21
128
  0
LINE
  8
0
 10
52
 20
128
 11
48
 21
128
  0
LINE
  8
0
 10
48
 20
128
 11
48
 21
132
  0
LINE
  8
0
 10
48
 20
132
 11
44
 21
132
  0
LINE
  8
0
 10
44
 20
132
 11
44
 21
128
  0
LINE
  8
0
 10
44
 20
128
 11
40
 21
128
  0
LINE
  8
0
 10
40
 20
128
 11
40
 21
132
  0
LINE
  8
0
 10
40
 20
132
 11
36
 21
132
  0
LINE
  8
0
 10
36
 20
132
 11
36
 21
128
  0
LINE
  8
0
 10
36
 20
128
 11
32
 21
128
  0
LINE
  8
0
 10
32
 20
128
 11
32
 21
132
  0
LINE
  8
0
 10
32
 20
132
 11
28
 21
132
  0
LINE
  8
0
 10
28
 20
132
 11
28
 21
128
  0
LINE
  8
0
 10
28
 20
128
 11
24
 21
128
  0
LINE
  8
0
 10
24
 20
128
 11
24
 21
132
  0
LINE
  8
0
 10
24
 20
132
 11
20
 21
132
  0
LINE
  8
0
 10
20
 20
132
 11
20
 21
128
  0
LINE
  8
0
 10
20
 20
128
 11
16
 21
128
  0
LINE
  8
0
 10
16
 20
128
 11
16
 21
132
  0
LINE
  8
0
 10
16
 20
132
 11
12
 21
132
  0
LINE
  8
0
 10
12
 20
132
 11
12
 21
128
  0
LINE
  8
0
 10
12
 20
128
 11
8
 21
128
  0
LINE
  8
0
 10
8
 20
128
 11
8
 21
132
  0
LINE
  8
0
 10
8
 20
132
 11
4
 21
132
  0
LINE
  8
0
 10
4
 20
132
 11
4
 21
128
  0
LINE
  8
0
 10
4
 20
128
 11
-4
 21
128
  0
LINE
  8
0
 10
-4
 20
128
 11
-4
 21
124
  0
LINE
  8
0
 10
-4
 20
124
 11
0
 21
124
  0
LINE
  8
0
 10
0
 20
124
 11
0
 21
120
  0
LINE
  8
0
 10
0
 20
120
 11
-4
 21
120
  0
LINE
  8
0
 10
-4
 20
120
 11
-4
 21
116
  0
LINE
  8
0
 10
-4
 20
116
 11
0
 21
116
  0
LINE
  8
0
 10
0
 20
116
 11
0
 21
112
  0
LINE
  8
0
 10
0
 20
112
 11
-4
 21
112
  0
LINE
  8
0
 10
-4
 20
112
 11
-4
 21
108
  0
LINE
  8
0
 10
-4
 20
108
 11
0
 21
108
  0
LINE
  8
0
 10
0
 20
108
 11
0
 21
104
  0
LINE
  8
0
 10
0
 20
104
 11
-4
 21
104
  0
LINE
  8
0
 10
-4
 20
104
 11
-4
 21
100
  0
LINE
  8
0
 10
-4
 20
100
 11
0
 21
100
  0
LINE
  8
0
 10
0
 20
100
 11
0
 21
96
  0
LINE
  8
0
 10
0
 20
96
 11
-4
 21
96
  0
LINE
  8
0
 10
-4
 20
96
 11
-4
 21
92
  0
LINE
  8
0
 10
-4
 20
92
 11
0
 21
92
  0
LINE
  8
0
 10
0
 20
92
 11
0
 21
88
  0
LINE
  8
0
 10
0
 20
88
 11
-4
 21
88
  0
LINE
  8
0
 10
-4
 20
88
 11
-4
 21
84
  0
LINE
  8
0
 10
-4
 20
84
 11
0
 21
84
  0
LINE
  8
0
 10
0
 20
84
 11
0
 21
80
  0
LINE
  8
0
 10
0
 20
80
 11
-4
 21
80
  0
LINE
  8
0
 10
-4
 20
80
 11
-4
 21
76
  0
LINE
  8
0
 10
-4
 20
76
 11
0
 21
76
  0
LINE
  8
0
 10
0
 20
76
 11
0
 21
72
  0
LINE
  8
0
 10
0
 20
72
 11
-4
 21
72
  0
LINE
  8
0
 10
-4
 20
72
 11
-4
 21
68
  0
LINE
  8
0
 10
-4
 20
68
 11
0
 21
68
  0
LINE
  8
0
 10
0
 20
68
 11
0
 21
64
  0
LINE
  8
0
 10
0
 20
64
 11
-4
 21
64
  0
LINE
  8
0
 10
-4
 20
64
 11
-4
 21
60
  0
LINE
  8
0
 10
-4
 20
60
 11
0
 21
60
  0
LINE
  8
0
 10
0
 20
60
 11
0
 21
56
  0
LINE
  8
0
 10
0
 20
56
 11
-4
 21
56
  0
LINE
  8
0
 10
-4
 20
56
 11
-4
 21
52
  0
LINE
  8
0
 10
-4
 20
52
 11
0
 21
52
  0
LINE
  8
0
 10
0
 20
52
 11
0
 21
48
  0
LINE
  8
0
 10
0
 20
48
 11
-4
 21
48
  0
LINE
  8
0
 10
-4
 20
48
 11
-4
 21
44
  0
LINE
  8
0
 10
-4
 20
44
 11
0
 21
44
  0
LINE
  8
0
 10
0
 20
44
 11
0
 21
40
  0
LINE
  8
0
 10
0
 20
40
 11
-4
 21
40
  0
LINE
  8
0
 10
-4
 20
40
 11
-4
 21
36
  0
LINE
  8
0
 10
-4
 20
36
 11
0
 21
36
  0
LINE
  8
0
 10
0
 20
36
 11
0
 21
32
  0
LINE
  8
0
 10
0
 20
32
 11
-4
 21
32
  0
LINE
  8
0
 10
-4
 20
32
 11
-4
 21
0
  0
LINE
  8
0
 10
-4
 20
0
 11
0
 21
0
  0
LINE
  8
0
 10
0
 20
0
 11
0
 21
-4
  0
LINE
  8
0
 10
0
 20
-4
 11
4
 21
-4
  0
LINE
  8
0
 10
4
 20
-4
 11
4
 21
0
  0
LINE
  8
0
 10
1036
 20
128
 11
824
 21
128
  0
LINE
  8
0
 10
824
 20
128
 11
824
 21
124
  0
LINE
  8
0
 10
824
 20
124
 11
820
 21
124
  0
LINE
  8
0
 10
820
 20
124
 11
820
 21
120
  0
LINE
  8
0
 10
820
 20
120
 11
824
 21
120
  0
LINE
  8
0
 10
824
 20
120
 11
824
 21
116
  0
LINE
  8
0
 10
824
 20
116
 11
820
 21
116
  0
LINE
  8
0
 10
820
 20
116
 11
820
 21
112
  0
LINE
  8
0
 10
820
 20
112
 11
824
 21
112
  0
LINE
  8
0
 10
824
 20
112
 11
824
 21
108
  0
LINE
  8
0
 10
824
 20
108
 11
820
 21
108
  0
LINE
  8
0
 10
820
 20
108
 11
820
 21
104
  0
LINE
  8
0
 10
820
 20
104
 11
824
 21
104
  0
LINE
  8
0
 10
824
 20
104
 11
824
 21
24
  0
LINE
  8
0
 10
824
 20
24
 11
820
 21
24
  0
LINE
  8
0
 10
820
 20
24
 11
820
 21
20
  0
LINE
  8
0
 10
820
 20
20
 11
824
 21
20
  0
LINE
  8
0
 10
824
 20
20
 11
824
 21
16
  0
LINE
  8
0
 10
824
 20
16
 11
820
 21
16
  0
LINE
  8
0
 10
820
 20
16
 11
820
 21
12
  0
LINE
  8
0
 10
820
 20
12
 11
824
 21
12
  0
LINE
  8
0
 10
824
 20
12
 11
824
 21
8
  0
LINE
  8
0
 10
824
 20
8
 11
820
 21
8
  0
LINE
  8
0
 10
820
 20
8
 11
820
 21
4
  0
LINE
  8
0
 10
820
 20
4
 11
824
 21
4
  0
LINE
  8
0
 10
824
 20
4
 11
824
 21
0
  0
LINE
  8
0
 10
824
 20
0
 11
1036
 21
0
  0
LINE
  8
0
 10
1036
 20
0
 11
1036
 21
128
  0
LINE
  8
0
 10
-110
 20
-4
 11
-106
 21
-4
  0
LINE
  8
0
 10
-106
 20
-4
 11
-106
 21
0
  0
LINE
  8
0
 10
-106
 20
0
 11
-102
 21
0
  0
LINE
  8
0
 10
-102
 20
0
 11
-102
 21
-4
  0
LINE
  8
0
 10
-102
 20
-4
 11
-98
 21
-4
  0
LINE
  8
0
 10
-98
 20
-4
 11
-98
 21
0
  0
LINE
  8
0
 10
-98
 20
0
 11
-94
 21
0
  0
LINE
  8
0
 10
-94
 20
0
 11
-94
 21
-4
  0
LINE
  8
0
 10
-94
 20
-4
 11
-90
 21
-4
  0
LINE
  8
0
 10
-90
 20
-4
 11
-90
 21
0
  0
LINE
  8
0
 10
-90
 20
0
 11
-86
 21
0
  0
LINE
  8
0
 10
-86
 20
0
 11
-86
 21
-4
  0
LINE
  8
0
 10
-86
 20
-4
 11
-82
 21
-4
  0
LINE
  8
0
 10
-82
 20
-4
 11
-82
 21
0
  0
LINE
  8
0
 10
-82
 20
0
 11
-78
 21
0
  0
LINE
  8
0
 10
-78
 20
0
 11
-78
 21
-4
  0
LINE
  8
0
 10
-78
 20
-4
 11
-74
 21
-4
  0
LINE
  8
0
 10
-74
 20
-4
 11
-74
 21
0
  0
LINE
  8
0
 10
-74
 20
0
 11
-70
 21
0
  0
LINE
  8
0
 10
-70
 20
0
 11
-70
 21
-4
  0
LINE
  8
0
 10
-70
 20
-4
 11
-66
 21
-4
  0
LINE
  8
0
 10
-66
 20
-4
 11
-66
 21
0
  0
LINE
  8
0
 10
-66
 20
0
 11
-62
 21
0
  0
LINE
  8
0
 10
-62
 20
0
 11
-62
 21
-4
  0
LINE
  8
0
 10
-62
 20
-4
 11
-58
 21
-4
  0
LINE
  8
0
 10
-58
 20
-4
 11
-58
 21
0
  0
LINE
  8
0
 10
-58
 20
0
 11
-54
 21
0
  0
LINE
  8
0
 10
-54
 20
0
 11
-54
 21
-4
  0
LINE
  8
0
 10
-54
 20
-4
 11
-50
 21
-4
  0
LINE
  8
0
 10
-50
 20
-4
 11
-50
 21
0
  0
LINE
  8
0
 10
-50
 20
0
 11
-46
 21
0
  0
LINE
  8
0
 10
-46
 20
0
 11
-46
 21
-4
  0
LINE
  8
0
 10
-46
 20
-4
 11
-42
 21
-4
  0
LINE
  8
0
 10
-42
 20
-4
 11
-42
 21
0
  0
LINE
  8
0
 10
-42
 20
0
 11
-38
 21
0
  0
LINE
  8
0
 10
-38
 20
0
 11
-38
 21
-4
  0
LINE
  8
0
 10
-38
 20
-4
 11
-34
 21
-4
  0
LINE
  8
0
 10
-34
 20
-4
 11
-34
 21
0
  0
LINE
  8
0
 10
-34
 20
0
 11
-30
 21
0
  0
LINE
  8
0
 10
-30
 20
0
 11
-30
 21
-4
  0
LINE
  8
0
 10
-30
 20
-4
 11
-26
 21
-4
  0
LINE
  8
0
 10
-26
 20
-4
 11
-26
 21
0
  0
LINE
  8
0
 10
-26
 20
0
 11
-22
 21
0
  0
LINE
  8
0
 10
-22
 20
0
 11
-22
 21
-4
  0
LINE
  8
0
 10
-22
 20
-4
 11
-18
 21
-4
  0
LINE
  8
0
 10
-18
 20
-4
 11
-18
 21
0
  0
LINE
  8
0
 10
-18
 20
0
 11
-14
 21
0
  0
LINE
  8
0
 10
-14
 20
0
 11
-14
 21
-4
  0
LINE
  8
0
 10
-14
 20
-4
 11
-10
 21
-4
  0
LINE
  8
0
 10
-10
 20
-4
 11
-10
 21
0
  0
LINE
  8
0
 10
-10
 20
0
 11
-5
 21
0
  0
LINE
  8
0
 10
-5
 20
0
 11
-5
 21
4
  0
LINE
  8
0
 10
-5
 20
4
 11
-9
 21
4
  0
LINE
  8
0
 10
-9
 20
4
 11
-9
 21
8
  0
LINE
  8
0
 10
-9
 20
8
 11
-5
 21
8
  0
LINE
  8
0
 10
-5
 20
8
 11
-5
 21
12
  0
LINE
  8
0
 10
-5
 20
12
 11
-9
 21
12
  0
LINE
  8
0
 10
-9
 20
12
 11
-9
 21
16
  0
LINE
  8
0
 10
-9
 20
16
 11
-5
 21
16
  0
LINE
  8
0
 10
-5
 20
16
 11
-5
 21
20
  0
LINE
  8
0
 10
-5
 20
20
 11
-9
 21
20
  0
LINE
  8
0
 10
-9
 20
20
 11
-9
 21
24
  0
LINE
  8
0
 10
-9
 20
24
 11
-5
 21
24
  0
LINE
  8
0
 10
-5
 20
24
 11
-5
 21
28
  0
LINE
  8
0
 10
-5
 20
28
 11
-9
 21
28
  0
LINE
  8
0
 10
-9
 20
28
 11
-9
 21
32
  0
LINE
  8
0
 10
-9
 20
32
 11
-5
 21
32
  0
LINE
  8
0
 10
-5
 20
32
 11
-5
 21
36
  0
LINE
  8
0
 10
-5
 20
36
 11
-9
 21
36
  0
LINE
  8
0
 10
-9
 20
36
 11
-9
 21
40
  0
LINE
  8
0
 10
-9
 20
40
 11
-5
 21
40
  0
LINE
  8
0
 10
-5
 20
40
 11
-5
 21
44
  0
LINE
  8
0
 10
-5
 20
44
 11
-9
 21
44
  0
LINE
  8
0
 10
-9
 20
44
 11
-9
 21
48
  0
LINE
  8
0
 10
-9
 20
48
 11
-5
 21
48
  0
LINE
  8
0
 10
-5
 20
48
 11
-5
 21
52
  0
LINE
  8
0
 10
-5
 20
52
 11
-9
 21
52
  0
LINE
  8
0
 10
-9
 20
52
 11
-9
 21
56
  0
LINE
  8
0
 10
-9
 20
56
 11
-5
 21
56
  0
LINE
  8
0
 10
-5
 20
56
 11
-5
 21
60
  0
LINE
  8
0
 10
-5
 20
60
 11
-9
 21
60
  0
LINE
  8
0
 10
-9
 20
60
 11
-9
 21
64
  0
LINE
  8
0
 10
-9
 20
64
 11
-5
 21
64
  0
LINE
  8
0
 10
-5
 20
64
 11
-5
 21
68
  0
LINE
  8
0
 10
-5
 20
68
 11
-9
 21
68
  0
LINE
  8
0
 10
-9
 20
68
 11
-9
 21
72
  0
LINE
  8
0
 10
-9
 20
72
 11
-5
 21
72
  0
LINE
  8
0
 10
-5
 20
72
 11
-5
 21
76
  0
LINE
  8
0
 10
-5
 20
76
 11
-9
 21
76
  0
LINE
  8
0
 10
-9
 20
76
 11
-9
 21
80
  0
LINE
  8
0
 10
-9
 20
80
 11
-5
 21
80
  0
LINE
  8
0
 10
-5
 20
80
 11
-5
 21
84
  0
LINE
  8
0
 10
-5
 20
84
 11
-9
 21
84
  0
LINE
  8
0
 10
-9
 20
84
 11
-9
 21
88
  0
LINE
  8
0
 10
-9
 20
88
 11
-5
 21
88
  0
LINE
  8
0
 10
-5
 20
88
 11
-5
 21
92
  0
LINE
  8
0
 10
-5
 20
92
 11
-9
 21
92
  0
LINE
  8
0
 10
-9
 20
92
 11
-9
 21
96
  0
LINE
  8
0
 10
-9
 20
96
 11
-5
 21
96
  0
LINE
  8
0
 10
-5
 20
96
 11
-5
 21
100
  0
LINE
  8
0
 10
-5
 20
100
 11
-9
 21
100
  0
LINE
  8
0
 10
-9
 20
100
 11
-9
 21
104
  0
LINE
  8
0
 10
-9
 20
104
 11
-5
 21
104
  0
LINE
  8
0
 10
-5
 20
104
 11
-5
 21
108
  0
LINE
  8
0
 10
-5
 20
108
 11
-9
 21
108
  0
LINE
  8
0
 10
-9
 20
108
 11
-9
 21
112
  0
LINE
  8
0
 10
-9
 20
112
 11
-5
 21
112
  0
LINE
  8
0
 10
-5
 20
112
 11
-5
 21
116
  0
LINE
  8
0
 10
-5
 20
116
 11
-9
 21
116
  0
LINE
  8
0
 10
-9
 20
116
 11
-9
 21
120
  0
LINE
  8
0
 10
-9
 20
120
 11
-5
 21
120
  0
LINE
  8
0
 10
-5
 20
120
 11
-5
 21
124
  0
LINE
  8
0
 10
-5
 20
124
 11
-9
 21
124
  0
LINE
  8
0
 10
-9
 20
124
 11
-9
 21
132
  0
LINE
  8
0
 10
-9
 20
132
 11
-10
 21
132
  0
LINE
  8
0
 10
-10
 20
132
 11
-10
 21
128
  0
LINE
  8
0
 10
-10
 20
128
 11
-14
 21
128
  0
LINE
  8
0
 10
-14
 20
128
 11
-14
 21
132
  0
LINE
  8
0
 10
-14
 20
132
 11
-18
 21
132
  0
LINE
  8
0
 10
-18
 20
132
 11
-18
 21
128
  0
LINE
  8
0
 10
-18
 20
128
 11
-22
 21
128
  0
LINE
  8
0
 10
-22
 20
128
 11
-22
 21
132
  0
LINE
  8
0
 10
-22
 20
132
 11
-26
 21
132
  0
LINE
  8
0
 10
-26
 20
132
 11
-26
 21
128
  0
LINE
  8
0
 10
-26
 20
128
 11
-30
 21
128
  0
LINE
  8
0
 10
-30
 20
128
 11
-30
 21
132
  0
LINE
  8
0
 10
-30
 20
132
 11
-34
 21
132
  0
LINE
  8
0
 10
-34
 20
132
 11
-34
 21
128
  0
LINE
  8
0
 10
-34
 20
128
 11
-38
 21
128
  0
LINE
  8
0
 10
-38
 20
128
 11
-38
 21
132
  0
LINE
  8
0
 10
-38
 20
132
 11
-42
 21
132
  0
LINE
  8
0
 10
-42
 20
132
 11
-42
 21
128
  0
LINE
  8
0
 10
-42
 20
128
 11
-46
 21
128
  0
LINE
  8
0
 10
-46
 20
128
 11
-46
 21
132
  0
LINE
  8
0
 10
-46
 20
132
 11
-50
 21
132
  0
LINE
  8
0
 10
-50
 20
132
 11
-50
 21
128
  0
LINE
  8
0
 10
-50
 20
128
 11
-54
 21
128
  0
LINE
  8
0
 10
-54
 20
128
 11
-54
 21
132
  0
LINE
  8
0
 10
-54
 20
132
 11
-58
 21
132
  0
LINE
  8
0
 10
-58
 20
132
 11
-58
 21
128
  0
LINE
  8
0
 10
-58
 20
128
 11
-62
 21
128
  0
LINE
  8
0
 10
-62
 20
128
 11
-62
 21
132
  0
LINE
  8
0
 10
-62
 20
132
 11
-66
 21
132
  0
LINE
  8
0
 10
-66
 20
132
 11
-66
 21
128
  0
LINE
  8
0
 10
-66
 20
128
 11
-70
 21
128
  0
LINE
  8
0
 10
-70
 20
128
 11
-70
 21
132
  0
LINE
  8
0
 10
-70
 20
132
 11
-74
 21
132
  0
LINE
  8
0
 10
-74
 20
132
 11
-74
 21
128
  0
LINE
  8
0
 10
-74
 20
128
 11
-78
 21
128
  0
LINE
  8
0
 10
-78
 20
128
 11
-78
 21
132
  0
LINE
  8
0
 10
-78
 20
132
 11
-82
 21
132
  0
LINE
  8
0
 10
-82
 20
132
 11
-82
 21
128
  0
LINE
  8
0
 10
-82
 20
128
 11
-86
 21
128
  0
LINE
  8
0
 10
-86
 20
128
 11
-86
 21
132
  0
LINE
  8
0
 10
-86
 20
132
 11
-90
 21
132
  0
LINE
  8
0
 10
-90
 20
132
 11
-90
 21
128
  0
LINE
  8
0
 10
-90
 20
128
 11
-94
 21
128
  0
LINE
  8
0
 10
-94
 20
128
 11
-94
 21
132
  0
LINE
  8
0
 10
-94
 20
132
 11
-98
 21
132
  0
LINE
  8
0
 10
-98
 20
132
 11
-98
 21
128
  0
LINE
  8
0
 10
-98
 20
128
 11
-102
 21
128
  0
LINE
  8
0
 10
-102
 20
128
 11
-102
 21
132
  0
LINE
  8
0
 10
-102
 20
132
 11
-106
 21
132
  0
LINE
  8
0
 10
-106
 20
132
 11
-106
 21
128
  0
LINE
  8
0
 10
-106
 20
128
 11
-110
 21
128
  0
LINE
  8
0
 10
-110
 20
128
 11
-110
 21
132
  0
LINE
  8
0
 10
-110
 20
132
 11
-114
 21
132
  0
LINE
  8
0
 10
-114
 20
132
 11
-114
 21
128
  0
LINE
  8
0
 10
-114
 20
128
 11
-118
 21
128
  0
LINE
  8
0
 10
-118
 20
128
 11
-118
 21
132
  0
LINE
  8
0
 10
-118
 20
132
 11
-122
 21
132
  0
LINE
  8
0
 10
-122
 20
132
 11
-122
 21
128
  0
LINE
  8
0
 10
-122
 20
128
 11
-126
 21
128
  0
LINE
  8
0
 10
-126
 20
128
 11
-126
 21
132
  0
LINE
  8
0
 10
-126
 20
132
 11
-130
 21
132
  0
LINE
  8
0
 10
-130
 20
132
 11
-130
 21
128
  0
LINE
  8
0
 10
-130
 20
128
 11
-134
 21
128
  0
LINE
  8
0
 10
-134
 20
128
 11
-134
 21
132
  0
LINE
  8
0
 10
-134
 20
132
 11
-138
 21
132
  0
LINE
  8
0
 10
-138
 20
132
 11
-138
 21
128
  0
LINE
  8
0
 10
-138
 20
128
 11
-142
 21
128
  0
LINE
  8
0
 10
-142
 20
128
 11
-142
 21
132
  0
LINE
  8
0
 10
-142
 20
132
 11
-146
 21
132
  0
LINE
  8
0
 10
-146
 20
132
 11
-146
 21
128
  0
LINE
  8
0
 10
-146
 20
128
 11
-150
 21
128
  0
LINE
  8
0
 10
-150
 20
128
 11
-150
 21
132
  0
LINE
  8
0
 10
-150
 20
132
 11
-154
 21
132
  0
LINE
  8
0
 10
-154
 20
132
 11
-154
 21
128
  0
LINE
  8
0
 10
-154
 20
128
 11
-158
 21
128
  0
LINE
  8
0
 10
-158
 20
128
 11
-158
 21
132
  0
LINE
  8
0
 10
-158
 20
132
 11
-162
 21
132
  0
LINE
  8
0
 10
-162
 20
132
 11
-162
 21
128
  0
LINE
  8
0
 10
-162
 20
128
 11
-166
 21
128
  0
LINE
  8
0
 10
-166
 20
128
 11
-166
 21
132
  0
LINE
  8
0
 10
-166
 20
132
 11
-170
 21
132
  0
LINE
  8
0
 10
-170
 20
132
 11
-170
 21
128
  0
LINE
  8
0
 10
-170
 20
128
 11
-174
 21
128
  0
LINE
  8
0
 10
-174
 20
128
 11
-174
 21
132
  0
LINE
  8
0
 10
-174
 20
132
 11
-178
 21
132
  0
LINE
  8
0
 10
-178
 20
132
 11
-178
 21
128
  0
LINE
  8
0
 10
-178
 20
128
 11
-182
 21
128
  0
LINE
  8
0
 10
-182
 20
128
 11
-182
 21
-4
  0
LINE
  8
0
 10
-182
 20
-4
 11
-178
 21
-4
  0
LINE
  8
0
 10
-178
 20
-4
 11
-178
 21
0
  0
LINE
  8
0
 10
-178
 20
0
 11
-174
 21
0
  0
LINE
  8
0
 10
-174
 20
0
 11
-174
 21
-4
  0
LINE
  8
0
 10
-174
 20
-4
 11
-170
 21
-4
  0
LINE
  8
0
 10
-170
 20
-4
 11
-170
 21
0
  0
LINE
  8
0
 10
-170
 20
0
 11
-166
 21
0
  0
LINE
  8
0
 10
-166
 20
0
 11
-166
 21
-4
  0
LINE
  8
0
 10
-166
 20
-4
 11
-162
 21
-4
  0
LINE
  8
0
 10
-162
 20
-4
 11
-162
 21
0
  0
LINE
  8
0
 10
-162
 20
0
 11
-158
 21
0
  0
LINE
  8
0
 10
-158
 20
0
 11
-158
 21
-4
  0
LINE
  8
0
 10
-158
 20
-4
 11
-154
 21
-4
  0
LINE
  8
0
 10
-154
 20
-4
 11
-154
 21
0
  0
LINE
  8
0
 10
-154
 20
0
 11
-150
 21
0
  0
LINE
  8
0
 10
-150
 20
0
 11
-150
 21
-4
  0
LINE
  8
0
 10
-150
 20
-4
 11
-146
 21
-4
  0
LINE
  8
0
 10
-146
 20
-4
 11
-146
 21
0
  0
LINE
  8
0
 10
-146
 20
0
 11
-142
 21
0
  0
LINE
  8
0
 10
-142
 20
0
 11
-142
 21
-4
  0
LINE
  8
0
 10
-142
 20
-4
 11
-138
 21
-4
  0
LINE
  8
0
 10
-138
 20
-4
 11
-138
 21
0
  0
LINE
  8
0
 10
-138
 20
0
 11
-134
 21
0
  0
LINE
  8
0
 10
-134
 20
0
 11
-134
 21
-4
  0
LINE
  8
0
 10
-134
 20
-4
 11
-130
 21
-4
  0
LINE
  8
0
 10
-130
 20
-4
 11
-130
 21
0
  0
LINE
  8
0
 10
-130
 20
0
 11
-126
 21
0
  0
LINE
  8
0
 10
-126
 20
0
 11
-126
 21
-4
  0
LINE
  8
0
 10
-126
 20
-4
 11
-122
 21
-4
  0
LINE
  8
0
 10
-122
 20
-4
 11
-122
 21
0
  0
LINE
  8
0
 10
-122
 20
0
 11
-118
 21
0
  0
LINE
  8
0
 10
-118
 20
0
 11
-118
 21
-4
  0
LINE
  8
0
 10
-118
 20
-4
 11
-114
 21
-4
  0
LINE
  8
0
 10
-114
 20
-4
 11
-114
 21
0
  0
LINE
  8
0
 10
-114
 20
0
 11
-113
 21
0
  0
LINE
  8
0
 10
-113
 20
0
 11
-113
 21
4
  0
LINE
  8
0
 10
-113
 20
4
 11
-109
 21
4
  0
LINE
  8
0
 10
-109
 20
4
 11
-109
 21
0
  0
LINE
  8
0
 10
-109
 20
0
 11
-110
 21
0
  0
LINE
  8
0
 10
-110
 20
0
 11
-110
 21
-4
  0
LINE
  8
0
 10
-113
 20
120
 11
-113
 21
124
  0
LINE
  8
0
 10
-113
 20
124
 11
-109
 21
124
  0
LINE
  8
0
 10
-109
 20
124
 11
-109
 21
120
  0
LINE
  8
0
 10
-109
 20
120
 11
-113
 21
120
  0
LINE
  8
0
 10
-113
 20
112
 11
-113
 21
116
  0
LINE
  8
0
 10
-113
 20
116
 11
-109
 21
116
  0
LINE
  8
0
 10
-109
 20
116
 11
-109
 21
112
  0
LINE
  8
0
 10
-109
 20
112
 11
-113
 21
112
  0
LINE
  8
0
 10
-113
 20
104
 11
-113
 21
108
  0
LINE
  8
0
 10
-113
 20
108
 11
-109
 21
108
  0
LINE
  8
0
 10
-109
 20
108
 11
-109
 21
104
  0
LINE
  8
0
 10
-109
 20
104
 11
-113
 21
104
  0
LINE
  8
0
 10
-113
 20
96
 11
-113
 21
100
  0
LINE
  8
0
 10
-113
 20
100
 11
-109
 21
100
  0
LINE
  8
0
 10
-109
 20
100
 11
-109
 21
96
  0
LINE
  8
0
 10
-109
 20
96
 11
-113
 21
96
  0
LINE
  8
0
 10
-113
 20
88
 11
-113
 21
92
  0
LINE
  8
0
 10
-113
 20
92
 11
-109
 21
92
  0
LINE
  8
0
 10
-109
 20
92
 11
-109
 21
88
  0
LINE
  8
0
 10
-109
 20
88
 11
-113
 21
88
  0
LINE
  8
0
 10
-113
 20
80
 11
-113
 21
84
  0
LINE
  8
0
 10
-113
 20
84
 11
-109
 21
84
  0
LINE
  8
0
 10
-109
 20
84
 11
-109
 21
80
  0
LINE
  8
0
 10
-109
 20
80
 11
-113
 21
80
  0
LINE
  8
0
 10
-113
 20
72
 11
-113
 21
76
  0
LINE
  8
0
 10
-113
 20
76
 11
-109
 21
76
  0
LINE
  8
0
 10
-109
 20
76
 11
-109
 21
72
  0
LINE
  8
0
 10
-109
 20
72
 11
-113
 21
72
  0
LINE
  8
0
 10
-113
 20
64
 11
-113
 21
68
  0
LINE
  8
0
 10
-113
 20
68
 11
-109
 21
68
  0
LINE
  8
0
 10
-109
 20
68
 11
-109
 21
64
  0
LINE
  8
0
 10
-109
 20
64
 11
-113
 21
64
  0
LINE
  8
0
 10
-113
 20
56
 11
-113
 21
60
  0
LINE
  8
0
 10
-113
 20
60
 11
-109
 21
60
  0
LINE
  8
0
 10
-109
 20
60
 11
-109
 21
56
  0
LINE
  8
0
 10
-109
 20
56
 11
-113
 21
56
  0
LINE
  8
0
 10
-113
 20
48
 11
-113
 21
52
  0
LINE
  8
0
 10
-113
 20
52
 11
-109
 21
52
  0
LINE
  8
0
 10
-109
 20
52
 11
-109
 21
48
  0
LINE
  8
0
 10
-109
 20
48
 11
-113
 21
48
  0
LINE
  8
0
 10
-113
 20
40
 11
-113
 21
44
  0
LINE
  8
0
 10
-113
 20
44
 11
-109
 21
44
  0
LINE
  8
0
 10
-109
 20
44
 11
-109
 21
40
  0
LINE
  8
0
 10
-109
 20
40
 11
-113
 21
40
  0
LINE
  8
0
 10
-113
 20
32
 11
-113
 21
36
  0
LINE
  8
0
 10
-113
 20
36
 11
-109
 21
36
  0
LINE
  8
0
 10
-109
 20
36
 11
-109
 21
32
  0
LINE
  8
0
 10
-109
 20
32
 11
-113
 21
32
  0
LINE
  8
0
 10
-113
 20
24
 11
-113
 21
28
  0
LINE
  8
0
 10
-113
 20
28
 11
-109
 21
28
  0
LINE
  8
0
 10
-109
 20
28
 11
-109
 21
24
  0
LINE
  8
0
 10
-109
 20
24
 11
-113
 21
24
  0
LINE
  8
0
 10
-113
 20
16
 11
-113
 21
20
  0
LINE
  8
0
 10
-113
 20
20
 11
-109
 21
20
  0
LINE
  8
0
 10
-109
 20
20
 11
-109
 21
16
  0
LINE
  8
0
 10
-109
 20
16
 11
-113
 21
16
  0
LINE
  8
0
 10
-113
 20
8
 11
-113
 21
12
  0
LINE
  8
0
 10
-113
 20
12
 11
-109
 21
12
  0
LINE
  8
0
 10
-109
 20
12
 11
-109
 21
8
  0
LINE
  8
0
 10
-109
 20
8
 11
-113
 21
8
  0
LINE
  8
0
 10
289
 20
-4
 11
293
 21
-4
  0
LINE
  8
0
 10
293
 20
-4
 11
293
 21
0
  0
LINE
  8
0
 10
293
 20
0
 11
297
 21
0
  0
LINE
  8
0
 10
297
 20
0
 11
297
 21
-4
  0
LINE
  8
0
 10
297
 20
-4
 11
301
 21
-4
  0
LINE
  8
0
 10
301
 20
-4
 11
301
 21
0
  0
LINE
  8
0
 10
301
 20
0
 11
305
 21
0
  0
LINE
  8
0
 10
305
 20
0
 11
305
 21
-4
  0
LINE
  8
0
 10
305
 20
-4
 11
309
 21
-4
  0
LINE
  8
0
 10
309
 20
-4
 11
309
 21
0
  0
LINE
  8
0
 10
309
 20
0
 11
313
 21
0
  0
LINE
  8
0
 10
313
 20
0
 11
313
 21
-4
  0
LINE
  8
0
 10
313
 20
-4
 11
317
 21
-4
  0
LINE
  8
0
 10
317
 20
-4
 11
317
 21
0
  0
LINE
  8
0
 10
317
 20
0
 11
321
 21
0
  0
LINE
  8
0
 10
321
 20
0
 11
321
 21
-4
  0
LINE
  8
0
 10
321
 20
-4
 11
325
 21
-4
  0
LINE
  8
0
 10
325
 20
-4
 11
325
 21
0
  0
LINE
  8
0
 10
325
 20
0
 11
329
 21
0
  0
LINE
  8
0
 10
329
 20
0
 11
329
 21
-4
  0
LINE
  8
0
 10
329
 20
-4
 11
333
 21
-4
  0
LINE
  8
0
 10
333
 20
-4
 11
333
 21
0
  0
LINE
  8
0
 10
333
 20
0
 11
337
 21
0
  0
LINE
  8
0
 10
337
 20
0
 11
337
 21
-4
  0
LINE
  8
0
 10
337
 20
-4
 11
341
 21
-4
  0
LINE
  8
0
 10
341
 20
-4
 11
341
 21
0
  0
LINE
  8
0
 10
341
 20
0
 11
345
 21
0
  0
LINE
  8
0
 10
345
 20
0
 11
345
 21
-4
  0
LINE
  8
0
 10
345
 20
-4
 11
349
 21
-4
  0
LINE
  8
0
 10
349
 20
-4
 11
349
 21
0
  0
LINE
  8
0
 10
349
 20
0
 11
353
 21
0
  0
LINE
  8
0
 10
353
 20
0
 11
353
 21
-4
  0
LINE
  8
0
 10
353
 20
-4
 11
357
 21
-4
  0
LINE
  8
0
 10
357
 20
-4
 11
357
 21
0
  0
LINE
  8
0
 10
357
 20
0
 11
361
 21
0
  0
LINE
  8
0
 10
361
 20
0
 11
361
 21
-4
  0
LINE
  8
0
 10
361
 20
-4
 11
365
 21
-4
  0
LINE
  8
0
 10
365
 20
-4
 11
365
 21
0
  0
LINE
  8
0
 10
365
 20
0
 11
369
 21
0
  0
LINE
  8
0
 10
369
 20
0
 11
369
 21
-4
  0
LINE
  8
0
 10
369
 20
-4
 11
373
 21
-4
  0
LINE
  8
0
 10
373
 20
-4
 11
373
 21
0
  0
LINE
  8
0
 10
373
 20
0
 11
377
 21
0
  0
LINE
  8
0
 10
377
 20
0
 11
377
 21
-4
  0
LINE
  8
0
 10
377
 20
-4
 11
381
 21
-4
  0
LINE
  8
0
 10
381
 20
-4
 11
381
 21
0
  0
LINE
  8
0
 10
381
 20
0
 11
385
 21
0
  0
LINE
  8
0
 10
385
 20
0
 11
385
 21
-4
  0
LINE
  8
0
 10
385
 20
-4
 11
389
 21
-4
  0
LINE
  8
0
 10
389
 20
-4
 11
389
 21
0
  0
LINE
  8
0
 10
389
 20
0
 11
390
 21
0
  0
LINE
  8
0
 10
390
 20
0
 11
390
 21
132
  0
LINE
  8
0
 10
390
 20
132
 11
389
 21
132
  0
LINE
  8
0
 10
389
 20
132
 11
389
 21
128
  0
LINE
  8
0
 10
389
 20
128
 11
385
 21
128
  0
LINE
  8
0
 10
385
 20
128
 11
385
 21
132
  0
LINE
  8
0
 10
385
 20
132
 11
381
 21
132
  0
LINE
  8
0
 10
381
 20
132
 11
381
 21
128
  0
LINE
  8
0
 10
381
 20
128
 11
377
 21
128
  0
LINE
  8
0
 10
377
 20
128
 11
377
 21
132
  0
LINE
  8
0
 10
377
 20
132
 11
373
 21
132
  0
LINE
  8
0
 10
373
 20
132
 11
373
 21
128
  0
LINE
  8
0
 10
373
 20
128
 11
369
 21
128
  0
LINE
  8
0
 10
369
 20
128
 11
369
 21
132
  0
LINE
  8
0
 10
369
 20
132
 11
365
 21
132
  0
LINE
  8
0
 10
365
 20
132
 11
365
 21
128
  0
LINE
  8
0
 10
365
 20
128
 11
361
 21
128
  0
LINE
  8
0
 10
361
 20
128
 11
361
 21
132
  0
LINE
  8
0
 10
361
 20
132
 11
357
 21
132
  0
LINE
  8
0
 10
357
 20
132
 11
357
 21
128
  0
LINE
  8
0
 10
357
 20
128
 11
353
 21
128
  0
LINE
  8
0
 10
353
 20
128
 11
353
 21
132
  0
LINE
  8
0
 10
353
 20
132
 11
349
 21
132
  0
LINE
  8
0
 10
349
 20
132
 11
349
 21
128
  0
LINE
  8
0
 10
349
 20
128
 11
345
 21
128
  0
LINE
  8
0
 10
345
 20
128
 11
345
 21
132
  0
LINE
  8
0
 10
345
 20
132
 11
341
 21
132
  0
LINE
  8
0
 10
341
 20
132
 11
341
 21
128
  0
LINE
  8
0
 10
341
 20
128
 11
337
 21
128
  0
LINE
  8
0
 10
337
 20
128
 11
337
 21
132
  0
LINE
  8
0
 10
337
 20
132
 11
333
 21
132
  0
LINE
  8
0
 10
333
 20
132
 11
333
 21
128
  0
LINE
  8
0
 10
333
 20
128
 11
329
 21
128
  0
LINE
  8
0
 10
329
 20
128
 11
329
 21
132
  0
LINE
  8
0
 10
329
 20
132
 11
325
 21
132
  0
LINE
  8
0
 10
325
 20
132
 11
325
 21
128
  0
LINE
  8
0
 10
325
 20
128
 11
321
 21
128
  0
LINE
  8
0
 10
321
 20
128
 11
321
 21
132
  0
LINE
  8
0
 10
321
 20
132
 11
317
 21
132
  0
LINE
  8
0
 10
317
 20
132
 11
317
 21
128
  0
LINE
  8
0
 10
317
 20
128
 11
313
 21
128
  0
LINE
  8
0
 10
313
 20
128
 11
313
 21
132
  0
LINE
  8
0
 10
313
 20
132
 11
309
 21
132
  0
LINE
  8
0
 10
309
 20
132
 11
309
 21
128
  0
LINE
  8
0
 10
309
 20
128
 11
305
 21
128
  0
LINE
  8
0
 10
305
 20
128
 11
305
 21
132
  0
LINE
  8
0
 10
305
 20
132
 11
301
 21
132
  0
LINE
  8
0
 10
301
 20
132
 11
301
 21
128
  0
LINE
  8
0
 10
301
 20
128
 11
297
 21
128
  0
LINE
  8
0
 10
297
 20
128
 11
297
 21
132
  0
LINE
  8
0
 10
297
 20
132
 11
293
 21
132
  0
LINE
  8
0
 10
293
 20
132
 11
293
 21
128
  0
LINE
  8
0
 10
293
 20
128
 11
289
 21
128
  0
LINE
  8
0
 10
289
 20
128
 11
289
 21
132
  0
LINE
  8
0
 10
289
 20
132
 11
285
 21
132
  0
LINE
  8
0
 10
285
 20
132
 11
285
 21
128
  0
LINE
  8
0
 10
285
 20
128
 11
281
 21
128
  0
LINE
  8
0
 10
281
 20
128
 11
281
 21
132
  0
LINE
  8
0
 10
281
 20
132
 11
277
 21
132
  0
LINE
  8
0
 10
277
 20
132
 11
277
 21
128
  0
LINE
  8
0
 10
277
 20
128
 11
273
 21
128
  0
LINE
  8
0
 10
273
 20
128
 11
273
 21
132
  0
LINE
  8
0
 10
273
 20
132
 11
269
 21
132
  0
LINE
  8
0
 10
269
 20
132
 11
269
 21
128
  0
LINE
  8
0
 10
269
 20
128
 11
265
 21
128
  0
LINE
  8
0
 10
265
 20
128
 11
265
 21
132
  0
LINE
  8
0
 10
265
 20
132
 11
261
 21
132
  0
LINE
  8
0
 10
261
 20
132
 11
261
 21
128
  0
LINE
  8
0
 10
261
 20
128
 11
257
 21
128
  0
LINE
  8
0
 10
257
 20
128
 11
257
 21
132
  0
LINE
  8
0
 10
257
 20
132
 11
253
 21
132
  0
LINE
  8
0
 10
253
 20
132
 11
253
 21
128
  0
LINE
  8
0
 10
253
 20
128
 11
249
 21
128
  0
LINE
  8
0
 10
249
 20
128
 11
249
 21
132
  0
LINE
  8
0
 10
249
 20
132
 11
245
 21
132
  0
LINE
  8
0
 10
245
 20
132
 11
245
 21
128
  0
LINE
  8
0
 10
245
 20
128
 11
241
 21
128
  0
LINE
  8
0
 10
241
 20
128
 11
241
 21
132
  0
LINE
  8
0
 10
241
 20
132
 11
237
 21
132
  0
LINE
  8
0
 10
237
 20
132
 11
237
 21
128
  0
LINE
  8
0
 10
237
 20
128
 11
233
 21
128
  0
LINE
  8
0
 10
233
 20
128
 11
233
 21
132
  0
LINE
  8
0
 10
233
 20
132
 11
229
 21
132
  0
LINE
  8
0
 10
229
 20
132
 11
229
 21
128
  0
LINE
  8
0
 10
229
 20
128
 11
225
 21
128
  0
LINE
  8
0
 10
225
 20
128
 11
225
 21
132
  0
LINE
  8
0
 10
225
 20
132
 11
221
 21
132
  0
LINE
  8
0
 10
221
 20
132
 11
221
 21
128
  0
LINE
  8
0
 10
221
 20
128
 11
213
 21
128
  0
LINE
  8
0
 10
213
 20
128
 11
213
 21
124
  0
LINE
  8
0
 10
213
 20
124
 11
217
 21
124
  0
LINE
  8
0
 10
217
 20
124
 11
217
 21
120
  0
LINE
  8
0
 10
217
 20
120
 11
213
 21
120
  0
LINE
  8
0
 10
213
 20
120
 11
213
 21
116
  0
LINE
  8
0
 10
213
 20
116
 11
217
 21
116
  0
LINE
  8
0
 10
217
 20
116
 11
217
 21
112
  0
LINE
  8
0
 10
217
 20
112
 11
213
 21
112
  0
LINE
  8
0
 10
213
 20
112
 11
213
 21
108
  0
LINE
  8
0
 10
213
 20
108
 11
217
 21
108
  0
LINE
  8
0
 10
217
 20
108
 11
217
 21
104
  0
LINE
  8
0
 10
217
 20
104
 11
213
 21
104
  0
LINE
  8
0
 10
213
 20
104
 11
213
 21
100
  0
LINE
  8
0
 10
213
 20
100
 11
217
 21
100
  0
LINE
  8
0
 10
217
 20
100
 11
217
 21
96
  0
LINE
  8
0
 10
217
 20
96
 11
213
 21
96
  0
LINE
  8
0
 10
213
 20
96
 11
213
 21
92
  0
LINE
  8
0
 10
213
 20
92
 11
217
 21
92
  0
LINE
  8
0
 10
217
 20
92
 11
217
 21
88
  0
LINE
  8
0
 10
217
 20
88
 11
213
 21
88
  0
LINE
  8
0
 10
213
 20
88
 11
213
 21
84
  0
LINE
  8
0
 10
213
 20
84
 11
217
 21
84
  0
LINE
  8
0
 10
217
 20
84
 11
217
 21
80
  0
LINE
  8
0
 10
217
 20
80
 11
213
 21
80
  0
LINE
  8
0
 10
213
 20
80
 11
213
 21
76
  0
LINE
  8
0
 10
213
 20
76
 11
217
 21
76
  0
LINE
  8
0
 10
217
 20
76
 11
217
 21
72
  0
LINE
  8
0
 10
217
 20
72
 11
213
 21
72
  0
LINE
  8
0
 10
213
 20
72
 11
213
 21
68
  0
LINE
  8
0
 10
213
 20
68
 11
217
 21
68
  0
LINE
  8
0
 10
217
 20
68
 11
217
 21
64
  0
LINE
  8
0
 10
217
 20
64
 11
213
 21
64
  0
LINE
  8
0
 10
213
 20
64
 11
213
 21
60
  0
LINE
  8
0
 10
213
 20
60
 11
217
 21
60
  0
LINE
  8
0
 10
217
 20
60
 11
217
 21
56
  0
LINE
  8
0
 10
217
 20
56
 11
213
 21
56
  0
LINE
  8
0
 10
213
 20
56
 11
213
 21
52
  0
LINE
  8
0
 10
213
 20
52
 11
217
 21
52
  0
LINE
  8
0
 10
217
 20
52
 11
217
 21
48
  0
LINE
  8
0
 10
217
 20
48
 11
213
 21
48
  0
LINE
  8
0
 10
213
 20
48
 11
213
 21
44
  0
LINE
  8
0
 10
213
 20
44
 11
217
 21
44
  0
LINE
  8
0
 10
217
 20
44
 11
217
 21
40
  0
LINE
  8
0
 10
217
 20
40
 11
213
 21
40
  0
LINE
  8
0
 10
213
 20
40
 11
213
 21
36
  0
LINE
  8
0
 10
213
 20
36
 11
217
 21
36
  0
LINE
  8
0
 10
217
 20
36
 11
217
 21
32
  0
LINE
  8
0
 10
217
 20
32
 11
213
 21
32
  0
LINE
  8
0
 10
213
 20
32
 11
213
 21
28
  0
LINE
  8
0
 10
213
 20
28
 11
217
 21
28
  0
LINE
  8
0
 10
217
 20
28
 11
217
 21
24
  0
LINE
  8
0
 10
217
 20
24
 11
213
 21
24
  0
LINE
  8
0
 10
213
 20
24
 11
213
 21
20
  0
LINE
  8
0
 10
213
 20
20
 11
217
 21
20
  0
LINE
  8
0
 10
217
 20
20
 11
217
 21
16
  0
LINE
  8
0
 10
217
 20
16
 11
213
 21
16
  0
LINE
  8
0
 10
213
 20
16
 11
213
 21
12
  0
LINE
  8
0
 10
213
 20
12
 11
217
 21
12
  0
LINE
  8
0
 10
217
 20
12
 11
217
 21
8
  0
LINE
  8
0
 10
217
 20
8
 11
213
 21
8
  0
LINE
  8
0
 10
213
 20
8
 11
213
 21
4
  0
LINE
  8
0
 10
213
 20
4
 11
217
 21
4
  0
LINE
  8
0
 10
217
 20
4
 11
217
 21
-4
  0
LINE
  8
0
 10
217
 20
-4
 11
221
 21
-4
  0
LINE
  8
0
 10
221
 20
-4
 11
221
 21
0
  0
LINE
  8
0
 10
221
 20
0
 11
225
 21
0
  0
LINE
  8
0
 10
225
 20
0
 11
225
 21
-4
  0
LINE
  8
0
 10
225
 20
-4
 11
229
 21
-4
  0
LINE
  8
0
 10
229
 20
-4
 11
229
 21
0
  0
LINE
  8
0
 10
229
 20
0
 11
233
 21
0
  0
LINE
  8
0
 10
233
 20
0
 11
233
 21
-4
  0
LINE
  8
0
 10
233
 20
-4
 11
237
 21
-4
  0
LINE
  8
0
 10
237
 20
-4
 11
237
 21
0
  0
LINE
  8
0
 10
237
 20
0
 11
241
 21
0
  0
LINE
  8
0
 10
241
 20
0
 11
241
 21
-4
  0
LINE
  8
0
 10
241
 20
-4
 11
245
 21
-4
  0
LINE
  8
0
 10
245
 20
-4
 11
245
 21
0
  0
LINE
  8
0
 10
245
 20
0
 11
249
 21
0
  0
LINE
  8
0
 10
249
 20
0
 11
249
 21
-4
  0
LINE
  8
0
 10
249
 20
-4
 11
253
 21
-4
  0
LINE
  8
0
 10
253
 20
-4
 11
253
 21
0
  0
LINE
  8
0
 10
253
 20
0
 11
257
 21
0
  0
LINE
  8
0
 10
257
 20
0
 11
257
 21
-4
  0
LINE
  8
0
 10
257
 20
-4
 11
261
 21
-4
  0
LINE
  8
0
 10
261
 20
-4
 11
261
 21
0
  0
LINE
  8
0
 10
261
 20
0
 11
265
 21
0
  0
LINE
  8
0
 10
265
 20
0
 11
265
 21
-4
  0
LINE
  8
0
 10
265
 20
-4
 11
269
 21
-4
  0
LINE
  8
0
 10
269
 20
-4
 11
269
 21
0
  0
LINE
  8
0
 10
269
 20
0
 11
273
 21
0
  0
LINE
  8
0
 10
273
 20
0
 11
273
 21
-4
  0
LINE
  8
0
 10
273
 20
-4
 11
277
 21
-4
  0
LINE
  8
0
 10
277
 20
-4
 11
277
 21
0
  0
LINE
  8
0
 10
277
 20
0
 11
281
 21
0
  0
LINE
  8
0
 10
281
 20
0
 11
281
 21
-4
  0
LINE
  8
0
 10
281
 20
-4
 11
285
 21
-4
  0
LINE
  8
0
 10
285
 20
-4
 11
285
 21
0
  0
LINE
  8
0
 10
285
 20
0
 11
286
 21
0
  0
LINE
  8
0
 10
286
 20
0
 11
286
 21
4
  0
LINE
  8
0
 10
286
 20
4
 11
290
 21
4
  0
LINE
  8
0
 10
290
 20
4
 11
290
 21
0
  0
LINE
  8
0
 10
290
 20
0
 11
289
 21
0
  0
LINE
  8
0
 10
289
 20
0
 11
289
 21
-4
  0
LINE
  8
0
 10
286
 20
120
 11
286
 21
124
  0
LINE
  8
0
 10
286
 20
124
 11
290
 21
124
  0
LINE
  8
0
 10
290
 20
124
 11
290
 21
120
  0
LINE
  8
0
 10
290
 20
120
 11
286
 21
120
  0
LINE
  8
0
 10
250.402
 20
99.5575
 11
248.255
 21
100.014
  0
LINE
  8
0
 10
248.255
 20
100.014
 11
246.25
 21
100.907
  0
LINE
  8
0
 10
246.25
 20
100.907
 11
244.474
 21
102.197
  0
LINE
  8
0
 10
244.474
 20
102.197
 11
243.005
 21
103.828
  0
LINE
  8
0
 10
243.005
 20
103.828
 11
241.908
 21
105.729
  0
LINE
  8
0
 10
241.908
 20
105.729
 11
241.229
 21
107.817
  0
LINE
  8
0
 10
241.229
 20
107.817
 11
241
 21
110
  0
LINE
  8
0
 10
241
 20
110
 11
241.229
 21
112.183
  0
LINE
  8
0
 10
241.229
 20
112.183
 11
241.908
 21
114.271
  0
LINE
  8
0
 10
241.908
 20
114.271
 11
243.005
 21
116.172
  0
LINE
  8
0
 10
243.005
 20
116.172
 11
244.474
 21
117.803
  0
LINE
  8
0
 10
244.474
 20
117.803
 11
246.25
 21
119.093
  0
LINE
  8
0
 10
246.25
 20
119.093
 11
248.255
 21
119.986
  0
LINE
  8
0
 10
248.255
 20
119.986
 11
250.402
 21
120.442
  0
LINE
  8
0
 10
250.402
 20
120.442
 11
252.598
 21
120.442
  0
LINE
  8
0
 10
252.598
 20
120.442
 11
254.745
 21
119.986
  0
LINE
  8
0
 10
254.745
 20
119.986
 11
256.75
 21
119.093
  0
LINE
  8
0
 10
256.75
 20
119.093
 11
258.526
 21
117.803
  0
LINE
  8
0
 10
258.526
 20
117.803
 11
259.995
 21
116.172
  0
LINE
  8
0
 10
259.995
 20
116.172
 11
261.092
 21
114.271
  0
LINE
  8
0
 10
261.092
 20
114.271
 11
261.771
 21
112.183
  0
LINE
  8
0
 10
261.771
 20
112.183
 11
262
 21
110
  0
LINE
  8
0
 10
262
 20
110
 11
261.771
 21
107.817
  0
LINE
  8
0
 10
261.771
 20
107.817
 11
261.092
 21
105.729
  0
LINE
  8
0
 10
261.092
 20
105.729
 11
259.995
 21
103.828
  0
LINE
  8
0
 10
259.995
 20
103.828
 11
258.526
 21
102.197
  0
LINE
  8
0
 10
258.526
 20
102.197
 11
256.75
 21
100.907
  0
LINE
  8
0
 10
256.75
 20
100.907
 11
254.745
 21
100.014
  0
LINE
  8
0
 10
254.745
 20
100.014
 11
252.598
 21
99.5575
  0
LINE
  8
0
 10
252.598
 20
99.5575
 11
250.402
 21
99.5575
  0
LINE
  8
0
 10
286
 20
112
 11
286
 21
116
  0
LINE
  8
0
 10
286
 20
116
 11
290
 21
116
  0
LINE
  8
0
 10
290
 20
116
 11
290
 21
112
  0
LINE
  8
0
 10
290
 20
112
 11
286
 21
112
  0
LINE
  8
0
 10
286
 20
104
 11
286
 21
108
  0
LINE
  8
0
 10
286
 20
108
 11
290
 21
108
  0
LINE
  8
0
 10
290
 20
108
 11
290
 21
104
  0
LINE
  8
0
 10
290
 20
104
 11
286
 21
104
  0
LINE
  8
0
 10
286
 20
96
 11
286
 21
100
  0
LINE
  8
0
 10
286
 20
100
 11
290
 21
100
  0
LINE
  8
0
 10
290
 20
100
 11
290
 21
96
  0
LINE
  8
0
 10
290
 20
96
 11
286
 21
96
  0
LINE
  8
0
 10
271.114
 20
96.8112
 11
270.765
 21
96.9887
  0
LINE
  8
0
 10
270.765
 20
96.9887
 11
270.489
 21
97.2653
  0
LINE
  8
0
 10
270.489
 20
97.2653
 11
270.311
 21
97.6137
  0
LINE
  8
0
 10
270.311
 20
97.6137
 11
270.25
 21
98
  0
LINE
  8
0
 10
270.25
 20
98
 11
270.311
 21
98.3863
  0
LINE
  8
0
 10
270.311
 20
98.3863
 11
270.489
 21
98.7347
  0
LINE
  8
0
 10
270.489
 20
98.7347
 11
270.765
 21
99.0113
  0
LINE
  8
0
 10
270.765
 20
99.0113
 11
271.114
 21
99.1888
  0
LINE
  8
0
 10
271.114
 20
99.1888
 11
271.5
 21
99.25
  0
LINE
  8
0
 10
271.5
 20
99.25
 11
271.886
 21
99.1888
  0
LINE
  8
0
 10
271.886
 20
99.1888
 11
272.235
 21
99.0113
  0
LINE
  8
0
 10
272.235
 20
99.0113
 11
272.511
 21
98.7347
  0
LINE
  8
0
 10
272.511
 20
98.7347
 11
272.689
 21
98.3863
  0
LINE
  8
0
 10
272.689
 20
98.3863
 11
272.75
 21
98
  0
LINE
  8
0
 10
272.75
 20
98
 11
272.689
 21
97.6137
  0
LINE
  8
0
 10
272.689
 20
97.6137
 11
272.511
 21
97.2653
  0
LINE
  8
0
 10
272.511
 20
97.2653
 11
272.235
 21
96.9887
  0
LINE
  8
0
 10
272.235
 20
96.9887
 11
271.886
 21
96.8112
  0
LINE
  8
0
 10
271.886
 20
96.8112
 11
271.5
 21
96.75
  0
LINE
  8
0
 10
271.5
 20
96.75
 11
271.114
 21
96.8112
  0
LINE
  8
0
 10
231.114
 20
96.8112
 11
230.765
 21
96.9887
  0
LINE
  8
0
 10
230.765
 20
96.9887
 11
230.489
 21
97.2653
  0
LINE
  8
0
 10
230.489
 20
97.2653
 11
230.311
 21
97.6137
  0
LINE
  8
0
 10
230.311
 20
97.6137
 11
230.25
 21
98
  0
LINE
  8
0
 10
230.25
 20
98
 11
230.311
 21
98.3863
  0
LINE
  8
0
 10
230.311
 20
98.3863
 11
230.489
 21
98.7347
  0
LINE
  8
0
 10
230.489
 20
98.7347
 11
230.765
 21
99.0113
  0
LINE
  8
0
 10
230.765
 20
99.0113
 11
231.114
 21
99.1888
  0
LINE
  8
0
 10
231.114
 20
99.1888
 11
231.5
 21
99.25
  0
LINE
  8
0
 10
231.5
 20
99.25
 11
231.886
 21
99.1888
  0
LINE
  8
0
 10
231.886
 20
99.1888
 11
232.235
 21
99.0113
  0
LINE
  8
0
 10
232.235
 20
99.0113
 11
232.511
 21
98.7347
  0
LINE
  8
0
 10
232.511
 20
98.7347
 11
232.689
 21
98.3863
  0
LINE
  8
0
 10
232.689
 20
98.3863
 11
232.75
 21
98
  0
LINE
  8
0
 10
232.75
 20
98
 11
232.689
 21
97.6137
  0
LINE
  8
0
 10
232.689
 20
97.6137
 11
232.511
 21
97.2653
  0
LINE
  8
0
 10
232.511
 20
97.2653
 11
232.235
 21
96.9887
  0
LINE
  8
0
 10
232.235
 20
96.9887
 11
231.886
 21
96.8112
  0
LINE
  8
0
 10
231.886
 20
96.8112
 11
231.5
 21
96.75
  0
LINE
  8
0
 10
231.5
 20
96.75
 11
231.114
 21
96.8112
  0
LINE
  8
0
 10
232.5
 20
32
 11
232.5
 21
96
  0
LINE
  8
0
 10
232.5
 20
96
 11
270.5
 21
96
  0
LINE
  8
0
 10
270.5
 20
96
 11
270.5
 21
32
  0
LINE
  8
0
 10
270.5
 20
32
 11
232.5
 21
32
  0
LINE
  8
0
 10
286
 20
88
 11
286
 21
92
  0
LINE
  8
0
 10
286
 20
92
 11
290
 21
92
  0
LINE
  8
0
 10
290
 20
92
 11
290
 21
88
  0
LINE
  8
0
 10
290
 20
88
 11
286
 21
88
  0
LINE
  8
0
 10
286
 20
80
 11
286
 21
84
  0
LINE
  8
0
 10
286
 20
84
 11
290
 21
84
  0
LINE
  8
0
 10
290
 20
84
 11
290
 21
80
  0
LINE
  8
0
 10
290
 20
80
 11
286
 21
80
  0
LINE
  8
0
 10
286
 20
72
 11
286
 21
76
  0
LINE
  8
0
 10
286
 20
76
 11
290
 21
76
  0
LINE
  8
0
 10
290
 20
76
 11
290
 21
72
  0
LINE
  8
0
 10
290
 20
72
 11
286
 21
72
  0
LINE
  8
0
 10
286
 20
64
 11
286
 21
68
  0
LINE
  8
0
 10
286
 20
68
 11
290
 21
68
  0
LINE
  8
0
 10
290
 20
68
 11
290
 21
64
  0
LINE
  8
0
 10
290
 20
64
 11
286
 21
64
  0
LINE
  8
0
 10
286
 20
56
 11
286
 21
60
  0
LINE
  8
0
 10
286
 20
60
 11
290
 21
60
  0
LINE
  8
0
 10
290
 20
60
 11
290
 21
56
  0
LINE
  8
0
 10
290
 20
56
 11
286
 21
56
  0
LINE
  8
0
 10
286
 20
48
 11
286
 21
52
  0
LINE
  8
0
 10
286
 20
52
 11
290
 21
52
  0
LINE
  8
0
 10
290
 20
52
 11
290
 21
48
  0
LINE
  8
0
 10
290
 20
48
 11
286
 21
48
  0
LINE
  8
0
 10
286
 20
40
 11
286
 21
44
  0
LINE
  8
0
 10
286
 20
44
 11
290
 21
44
  0
LINE
  8
0
 10
290
 20
44
 11
290
 21
40
  0
LINE
  8
0
 10
290
 20
40
 11
286
 21
40
  0
LINE
  8
0
 10
286
 20
32
 11
286
 21
36
  0
LINE
  8
0
 10
286
 20
36
 11
290
 21
36
  0
LINE
  8
0
 10
290
 20
36
 11
290
 21
32
  0
LINE
  8
0
 10
290
 20
32
 11
286
 21
32
  0
LINE
  8
0
 10
231.114
 20
28.8112
 11
230.765
 21
28.9887
  0
LINE
  8
0
 10
230.765
 20
28.9887
 11
230.489
 21
29.2653
  0
LINE
  8
0
 10
230.489
 20
29.2653
 11
230.311
 21
29.6137
  0
LINE
  8
0
 10
230.311
 20
29.6137
 11
230.25
 21
30
  0
LINE
  8
0
 10
230.25
 20
30
 11
230.311
 21
30.3863
  0
LINE
  8
0
 10
230.311
 20
30.3863
 11
230.489
 21
30.7347
  0
LINE
  8
0
 10
230.489
 20
30.7347
 11
230.765
 21
31.0113
  0
LINE
  8
0
 10
230.765
 20
31.0113
 11
231.114
 21
31.1888
  0
LINE
  8
0
 10
231.114
 20
31.1888
 11
231.5
 21
31.25
  0
LINE
  8
0
 10
231.5
 20
31.25
 11
231.886
 21
31.1888
  0
LINE
  8
0
 10
231.886
 20
31.1888
 11
232.235
 21
31.0113
  0
LINE
  8
0
 10
232.235
 20
31.0113
 11
232.511
 21
30.7347
  0
LINE
  8
0
 10
232.511
 20
30.7347
 11
232.689
 21
30.3863
  0
LINE
  8
0
 10
232.689
 20
30.3863
 11
232.75
 21
30
  0
LINE
  8
0
 10
232.75
 20
30
 11
232.689
 21
29.6137
  0
LINE
  8
0
 10
232.689
 20
29.6137
 11
232.511
 21
29.2653
  0
LINE
  8
0
 10
232.511
 20
29.2653
 11
232.235
 21
28.9887
  0
LINE
  8
0
 10
232.235
 20
28.9887
 11
231.886
 21
28.8112
  0
LINE
  8
0
 10
231.886
 20
28.8112
 11
231.5
 21
28.75
  0
LINE
  8
0
 10
231.5
 20
28.75
 11
231.114
 21
28.8112
  0
LINE
  8
0
 10
271.114
 20
28.8112
 11
270.765
 21
28.9887
  0
LINE
  8
0
 10
270.765
 20
28.9887
 11
270.489
 21
29.2653
  0
LINE
  8
0
 10
270.489
 20
29.2653
 11
270.311
 21
29.6137
  0
LINE
  8
0
 10
270.311
 20
29.6137
 11
270.25
 21
30
  0
LINE
  8
0
 10
270.25
 20
30
 11
270.311
 21
30.3863
  0
LINE
  8
0
 10
270.311
 20
30.3863
 11
270.489
 21
30.7347
  0
LINE
  8
0
 10
270.489
 20
30.7347
 11
270.765
 21
31.0113
  0
LINE
  8
0
 10
270.765
 20
31.0113
 11
271.114
 21
31.1888
  0
LINE
  8
0
 10
271.114
 20
31.1888
 11
271.5
 21
31.25
  0
LINE
  8
0
 10
271.5
 20
31.25
 11
271.886
 21
31.1888
  0
LINE
  8
0
 10
271.886
 20
31.1888
 11
272.235
 21
31.0113
  0
LINE
  8
0
 10
272.235
 20
31.0113
 11
272.511
 21
30.7347
  0
LINE
  8
0
 10
272.511
 20
30.7347
 11
272.689
 21
30.3863
  0
LINE
  8
0
 10
272.689
 20
30.3863
 11
272.75
 21
30
  0
LINE
  8
0
 10
272.75
 20
30
 11
272.689
 21
29.6137
  0
LINE
  8
0
 10
272.689
 20
29.6137
 11
272.511
 21
29.2653
  0
LINE
  8
0
 10
272.511
 20
29.2653
 11
272.235
 21
28.9887
  0
LINE
  8
0
 10
272.235
 20
28.9887
 11
271.886
 21
28.8112
  0
LINE
  8
0
 10
271.886
 20
28.8112
 11
271.5
 21
28.75
  0
LINE
  8
0
 10
271.5
 20
28.75
 11
271.114
 21
28.8112
  0
LINE
  8
0
 10
286
 20
24
 11
286
 21
28
  0
LINE
  8
0
 10
286
 20
28
 11
290
 21
28
  0
LINE
  8
0
 10
290
 20
28
 11
290
 21
24
  0
LINE
  8
0
 10
290
 20
24
 11
286
 21
24
  0
LINE
  8
0
 10
286
 20
16
 11
286
 21
20
  0
LINE
  8
0
 10
286
 20
20
 11
290
 21
20
  0
LINE
  8
0
 10
290
 20
20
 11
290
 21
16
  0
LINE
  8
0
 10
290
 20
16
 11
286
 21
16
  0
LINE
  8
0
 10
286
 20
8
 11
286
 21
12
  0
LINE
  8
0
 10
286
 20
12
 11
290
 21
12
  0
LINE
  8
0
 10
290
 20
12
 11
290
 21
8
  0
LINE
  8
0
 10
290
 20
8
 11
286
 21
8
  0
LINE
  8
0
 10
212
 20
-109
 11
208
 21
-109
  0
LINE
  8
0
 10
208
 20
-109
 11
208
 21
-105
  0
LINE
  8
0
 10
208
 20
-105
 11
212
 21
-105
  0
LINE
  8
0
 10
212
 20
-105
 11
212
 21
-101
  0
LINE
  8
0
 10
212
 20
-101
 11
208
 21
-101
  0
LINE
  8
0
 10
208
 20
-101
 11
208
 21
-97
  0
LINE
  8
0
 10
208
 20
-97
 11
212
 21
-97
  0
LINE
  8
0
 10
212
 20
-97
 11
212
 21
-93
  0
LINE
  8
0
 10
212
 20
-93
 11
208
 21
-93
  0
LINE
  8
0
 10
208
 20
-93
 11
208
 21
-89
  0
LINE
  8
0
 10
208
 20
-89
 11
212
 21
-89
  0
LINE
  8
0
 10
212
 20
-89
 11
212
 21
-85
  0
LINE
  8
0
 10
212
 20
-85
 11
208
 21
-85
  0
LINE
  8
0
 10
208
 20
-85
 11
208
 21
-81
  0
LINE
  8
0
 10
208
 20
-81
 11
212
 21
-81
  0
LINE
  8
0
 10
212
 20
-81
 11
212
 21
-77
  0
LINE
  8
0
 10
212
 20
-77
 11
208
 21
-77
  0
LINE
  8
0
 10
208
 20
-77
 11
208
 21
-73
  0
LINE
  8
0
 10
208
 20
-73
 11
212
 21
-73
  0
LINE
  8
0
 10
212
 20
-73
 11
212
 21
-69
  0
LINE
  8
0
 10
212
 20
-69
 11
208
 21
-69
  0
LINE
  8
0
 10
208
 20
-69
 11
208
 21
-65
  0
LINE
  8
0
 10
208
 20
-65
 11
212
 21
-65
  0
LINE
  8
0
 10
212
 20
-65
 11
212
 21
-61
  0
LINE
  8
0
 10
212
 20
-61
 11
208
 21
-61
  0
LINE
  8
0
 10
208
 20
-61
 11
208
 21
-57
  0
LINE
  8
0
 10
208
 20
-57
 11
212
 21
-57
  0
LINE
  8
0
 10
212
 20
-57
 11
212
 21
-53
  0
LINE
  8
0
 10
212
 20
-53
 11
208
 21
-53
  0
LINE
  8
0
 10
208
 20
-53
 11
208
 21
-49
  0
LINE
  8
0
 10
208
 20
-49
 11
212
 21
-49
  0
LINE
  8
0
 10
212
 20
-49
 11
212
 21
-45
  0
LINE
  8
0
 10
212
 20
-45
 11
208
 21
-45
  0
LINE
  8
0
 10
208
 20
-45
 11
208
 21
-41
  0
LINE
  8
0
 10
208
 20
-41
 11
212
 21
-41
  0
LINE
  8
0
 10
212
 20
-41
 11
212
 21
-37
  0
LINE
  8
0
 10
212
 20
-37
 11
208
 21
-37
  0
LINE
  8
0
 10
208
 20
-37
 11
208
 21
-33
  0
LINE
  8
0
 10
208
 20
-33
 11
212
 21
-33
  0
LINE
  8
0
 10
212
 20
-33
 11
212
 21
-29
  0
LINE
  8
0
 10
212
 20
-29
 11
208
 21
-29
  0
LINE
  8
0
 10
208
 20
-29
 11
208
 21
-25
  0
LINE
  8
0
 10
208
 20
-25
 11
212
 21
-25
  0
LINE
  8
0
 10
212
 20
-25
 11
212
 21
-21
  0
LINE
  8
0
 10
212
 20
-21
 11
208
 21
-21
  0
LINE
  8
0
 10
208
 20
-21
 11
208
 21
-17
  0
LINE
  8
0
 10
208
 20
-17
 11
212
 21
-17
  0
LINE
  8
0
 10
212
 20
-17
 11
212
 21
-13
  0
LINE
  8
0
 10
212
 20
-13
 11
208
 21
-13
  0
LINE
  8
0
 10
208
 20
-13
 11
208
 21
-5
  0
LINE
  8
0
 10
208
 20
-5
 11
204
 21
-5
  0
LINE
  8
0
 10
204
 20
-5
 11
204
 21
-9
  0
LINE
  8
0
 10
204
 20
-9
 11
200
 21
-9
  0
LINE
  8
0
 10
200
 20
-9
 11
200
 21
-5
  0
LINE
  8
0
 10
200
 20
-5
 11
196
 21
-5
  0
LINE
  8
0
 10
196
 20
-5
 11
196
 21
-9
  0
LINE
  8
0
 10
196
 20
-9
 11
192
 21
-9
  0
LINE
  8
0
 10
192
 20
-9
 11
192
 21
-5
  0
LINE
  8
0
 10
192
 20
-5
 11
188
 21
-5
  0
LINE
  8
0
 10
188
 20
-5
 11
188
 21
-9
  0
LINE
  8
0
 10
188
 20
-9
 11
184
 21
-9
  0
LINE
  8
0
 10
184
 20
-9
 11
184
 21
-5
  0
LINE
  8
0
 10
184
 20
-5
 11
180
 21
-5
  0
LINE
  8
0
 10
180
 20
-5
 11
180
 21
-9
  0
LINE
  8
0
 10
180
 20
-9
 11
176
 21
-9
  0
LINE
  8
0
 10
176
 20
-9
 11
176
 21
-5
  0
LINE
  8
0
 10
176
 20
-5
 11
172
 21
-5
  0
LINE
  8
0
 10
172
 20
-5
 11
172
 21
-9
  0
LINE
  8
0
 10
172
 20
-9
 11
168
 21
-9
  0
LINE
  8
0
 10
168
 20
-9
 11
168
 21
-5
  0
LINE
  8
0
 10
168
 20
-5
 11
164
 21
-5
  0
LINE
  8
0
 10
164
 20
-5
 11
164
 21
-9
  0
LINE
  8
0
 10
164
 20
-9
 11
160
 21
-9
  0
LINE
  8
0
 10
160
 20
-9
 11
160
 21
-5
  0
LINE
  8
0
 10
160
 20
-5
 11
156
 21
-5
  0
LINE
  8
0
 10
156
 20
-5
 11
156
 21
-9
  0
LINE
  8
0
 10
156
 20
-9
 11
152
 21
-9
  0
LINE
  8
0
 10
152
 20
-9
 11
152
 21
-5
  0
LINE
  8
0
 10
152
 20
-5
 11
148
 21
-5
  0
LINE
  8
0
 10
148
 20
-5
 11
148
 21
-9
  0
LINE
  8
0
 10
148
 20
-9
 11
144
 21
-9
  0
LINE
  8
0
 10
144
 20
-9
 11
144
 21
-5
  0
LINE
  8
0
 10
144
 20
-5
 11
140
 21
-5
  0
LINE
  8
0
 10
140
 20
-5
 11
140
 21
-9
  0
LINE
  8
0
 10
140
 20
-9
 11
136
 21
-9
  0
LINE
  8
0
 10
136
 20
-9
 11
136
 21
-5
  0
LINE
  8
0
 10
136
 20
-5
 11
132
 21
-5
  0
LINE
  8
0
 10
132
 20
-5
 11
132
 21
-9
  0
LINE
  8
0
 10
132
 20
-9
 11
128
 21
-9
  0
LINE
  8
0
 10
128
 20
-9
 11
128
 21
-5
  0
LINE
  8
0
 10
128
 20
-5
 11
124
 21
-5
  0
LINE
  8
0
 10
124
 20
-5
 11
124
 21
-9
  0
LINE
  8
0
 10
124
 20
-9
 11
120
 21
-9
  0
LINE
  8
0
 10
120
 20
-9
 11
120
 21
-5
  0
LINE
  8
0
 10
120
 20
-5
 11
116
 21
-5
  0
LINE
  8
0
 10
116
 20
-5
 11
116
 21
-9
  0
LINE
  8
0
 10
116
 20
-9
 11
112
 21
-9
  0
LINE
  8
0
 10
112
 20
-9
 11
112
 21
-5
  0
LINE
  8
0
 10
112
 20
-5
 11
108
 21
-5
  0
LINE
  8
0
 10
108
 20
-5
 11
108
 21
-9
  0
LINE
  8
0
 10
108
 20
-9
 11
104
 21
-9
  0
LINE
  8
0
 10
104
 20
-9
 11
104
 21
-5
  0
LINE
  8
0
 10
104
 20
-5
 11
100
 21
-5
  0
LINE
  8
0
 10
100
 20
-5
 11
100
 21
-9
  0
LINE
  8
0
 10
100
 20
-9
 11
96
 21
-9
  0
LINE
  8
0
 10
96
 20
-9
 11
96
 21
-5
  0
LINE
  8
0
 10
96
 20
-5
 11
92
 21
-5
  0
LINE
  8
0
 10
92
 20
-5
 11
92
 21
-9
  0
LINE
  8
0
 10
92
 20
-9
 11
88
 21
-9
  0
LINE
  8
0
 10
88
 20
-9
 11
88
 21
-5
  0
LINE
  8
0
 10
88
 20
-5
 11
84
 21
-5
  0
LINE
  8
0
 10
84
 20
-5
 11
84
 21
-9
  0
LINE
  8
0
 10
84
 20
-9
 11
80
 21
-9
  0
LINE
  8
0
 10
80
 20
-9
 11
80
 21
-5
  0
LINE
  8
0
 10
80
 20
-5
 11
76
 21
-5
  0
LINE
  8
0
 10
76
 20
-5
 11
76
 21
-9
  0
LINE
  8
0
 10
76
 20
-9
 11
72
 21
-9
  0
LINE
  8
0
 10
72
 20
-9
 11
72
 21
-5
  0
LINE
  8
0
 10
72
 20
-5
 11
68
 21
-5
  0
LINE
  8
0
 10
68
 20
-5
 11
68
 21
-9
  0
LINE
  8
0
 10
68
 20
-9
 11
64
 21
-9
  0
LINE
  8
0
 10
64
 20
-9
 11
64
 21
-5
  0
LINE
  8
0
 10
64
 20
-5
 11
60
 21
-5
  0
LINE
  8
0
 10
60
 20
-5
 11
60
 21
-9
  0
LINE
  8
0
 10
60
 20
-9
 11
56
 21
-9
  0
LINE
  8
0
 10
56
 20
-9
 11
56
 21
-5
  0
LINE
  8
0
 10
56
 20
-5
 11
52
 21
-5
  0
LINE
  8
0
 10
52
 20
-5
 11
52
 21
-9
  0
LINE
  8
0
 10
52
 20
-9
 11
48
 21
-9
  0
LINE
  8
0
 10
48
 20
-9
 11
48
 21
-5
  0
LINE
  8
0
 10
48
 20
-5
 11
44
 21
-5
  0
LINE
  8
0
 10
44
 20
-5
 11
44
 21
-9
  0
LINE
  8
0
 10
44
 20
-9
 11
40
 21
-9
  0
LINE
  8
0
 10
40
 20
-9
 11
40
 21
-5
  0
LINE
  8
0
 10
40
 20
-5
 11
36
 21
-5
  0
LINE
  8
0
 10
36
 20
-5
 11
36
 21
-9
  0
LINE
  8
0
 10
36
 20
-9
 11
32
 21
-9
  0
LINE
  8
0
 10
32
 20
-9
 11
32
 21
-5
  0
LINE
  8
0
 10
32
 20
-5
 11
28
 21
-5
  0
LINE
  8
0
 10
28
 20
-5
 11
28
 21
-9
  0
LINE
  8
0
 10
28
 20
-9
 11
24
 21
-9
  0
LINE
  8
0
 10
24
 20
-9
 11
24
 21
-5
  0
LINE
  8
0
 10
24
 20
-5
 11
20
 21
-5
  0
LINE
  8
0
 10
20
 20
-5
 11
20
 21
-9
  0
LINE
  8
0
 10
20
 20
-9
 11
16
 21
-9
  0
LINE
  8
0
 10
16
 20
-9
 11
16
 21
-5
  0
LINE
  8
0
 10
16
 20
-5
 11
12
 21
-5
  0
LINE
  8
0
 10
12
 20
-5
 11
12
 21
-9
  0
LINE
  8
0
 10
12
 20
-9
 11
8
 21
-9
  0
LINE
  8
0
 10
8
 20
-9
 11
8
 21
-5
  0
LINE
  8
0
 10
8
 20
-5
 11
4
 21
-5
  0
LINE
  8
0
 10
4
 20
-5
 11
4
 21
-9
  0
LINE
  8
0
 10
4
 20
-9
 11
-4
 21
-9
  0
LINE
  8
0
 10
-4
 20
-9
 11
-4
 21
-10
  0
LINE
  8
0
 10
-4
 20
-10
 11
0
 21
-10
  0
LINE
  8
0
 10
0
 20
-10
 11
0
 21
-14
  0
LINE
  8
0
 10
0
 20
-14
 11
-4
 21
-14
  0
LINE
  8
0
 10
-4
 20
-14
 11
-4
 21
-18
  0
LINE
  8
0
 10
-4
 20
-18
 11
0
 21
-18
  0
LINE
  8
0
 10
0
 20
-18
 11
0
 21
-22
  0
LINE
  8
0
 10
0
 20
-22
 11
-4
 21
-22
  0
LINE
  8
0
 10
-4
 20
-22
 11
-4
 21
-26
  0
LINE
  8
0
 10
-4
 20
-26
 11
0
 21
-26
  0
LINE
  8
0
 10
0
 20
-26
 11
0
 21
-30
  0
LINE
  8
0
 10
0
 20
-30
 11
-4
 21
-30
  0
LINE
  8
0
 10
-4
 20
-30
 11
-4
 21
-34
  0
LINE
  8
0
 10
-4
 20
-34
 11
0
 21
-34
  0
LINE
  8
0
 10
0
 20
-34
 11
0
 21
-38
  0
LINE
  8
0
 10
0
 20
-38
 11
-4
 21
-38
  0
LINE
  8
0
 10
-4
 20
-38
 11
-4
 21
-42
  0
LINE
  8
0
 10
-4
 20
-42
 11
0
 21
-42
  0
LINE
  8
0
 10
0
 20
-42
 11
0
 21
-46
  0
LINE
  8
0
 10
0
 20
-46
 11
-4
 21
-46
  0
LINE
  8
0
 10
-4
 20
-46
 11
-4
 21
-50
  0
LINE
  8
0
 10
-4
 20
-50
 11
0
 21
-50
  0
LINE
  8
0
 10
0
 20
-50
 11
0
 21
-54
  0
LINE
  8
0
 10
0
 20
-54
 11
-4
 21
-54
  0
LINE
  8
0
 10
-4
 20
-54
 11
-4
 21
-58
  0
LINE
  8
0
 10
-4
 20
-58
 11
0
 21
-58
  0
LINE
  8
0
 10
0
 20
-58
 11
0
 21
-62
  0
LINE
  8
0
 10
0
 20
-62
 11
-4
 21
-62
  0
LINE
  8
0
 10
-4
 20
-62
 11
-4
 21
-66
  0
LINE
  8
0
 10
-4
 20
-66
 11
0
 21
-66
  0
LINE
  8
0
 10
0
 20
-66
 11
0
 21
-70
  0
LINE
  8
0
 10
0
 20
-70
 11
-4
 21
-70
  0
LINE
  8
0
 10
-4
 20
-70
 11
-4
 21
-74
  0
LINE
  8
0
 10
-4
 20
-74
 11
0
 21
-74
  0
LINE
  8
0
 10
0
 20
-74
 11
0
 21
-78
  0
LINE
  8
0
 10
0
 20
-78
 11
-4
 21
-78
  0
LINE
  8
0
 10
-4
 20
-78
 11
-4
 21
-82
  0
LINE
  8
0
 10
-4
 20
-82
 11
0
 21
-82
  0
LINE
  8
0
 10
0
 20
-82
 11
0
 21
-86
  0
LINE
  8
0
 10
0
 20
-86
 11
-4
 21
-86
  0
LINE
  8
0
 10
-4
 20
-86
 11
-4
 21
-90
  0
LINE
  8
0
 10
-4
 20
-90
 11
0
 21
-90
  0
LINE
  8
0
 10
0
 20
-90
 11
0
 21
-94
  0
LINE
  8
0
 10
0
 20
-94
 11
-4
 21
-94
  0
LINE
  8
0
 10
-4
 20
-94
 11
-4
 21
-98
  0
LINE
  8
0
 10
-4
 20
-98
 11
0
 21
-98
  0
LINE
  8
0
 10
0
 20
-98
 11
0
 21
-102
  0
LINE
  8
0
 10
0
 20
-102
 11
-4
 21
-102
  0
LINE
  8
0
 10
-4
 20
-102
 11
-4
 21
-106
  0
LINE
  8
0
 10
-4
 20
-106
 11
0
 21
-106
  0
LINE
  8
0
 10
0
 20
-106
 11
0
 21
-110
  0
LINE
  8
0
 10
0
 20
-110
 11
-4
 21
-110
  0
LINE
  8
0
 10
-4
 20
-110
 11
-4
 21
-114
  0
LINE
  8
0
 10
-4
 20
-114
 11
0
 21
-114
  0
LINE
  8
0
 10
0
 20
-114
 11
0
 21
-118
  0
LINE
  8
0
 10
0
 20
-118
 11
-4
 21
-118
  0
LINE
  8
0
 10
-4
 20
-118
 11
-4
 21
-122
  0
LINE
  8
0
 10
-4
 20
-122
 11
0
 21
-122
  0
LINE
  8
0
 10
0
 20
-122
 11
0
 21
-126
  0
LINE
  8
0
 10
0
 20
-126
 11
-4
 21
-126
  0
LINE
  8
0
 10
-4
 20
-126
 11
-4
 21
-130
  0
LINE
  8
0
 10
-4
 20
-130
 11
0
 21
-130
  0
LINE
  8
0
 10
0
 20
-130
 11
0
 21
-134
  0
LINE
  8
0
 10
0
 20
-134
 11
-4
 21
-134
  0
LINE
  8
0
 10
-4
 20
-134
 11
-4
 21
-138
  0
LINE
  8
0
 10
-4
 20
-138
 11
0
 21
-138
  0
LINE
  8
0
 10
0
 20
-138
 11
0
 21
-142
  0
LINE
  8
0
 10
0
 20
-142
 11
-4
 21
-142
  0
LINE
  8
0
 10
-4
 20
-142
 11
-4
 21
-146
  0
LINE
  8
0
 10
-4
 20
-146
 11
0
 21
-146
  0
LINE
  8
0
 10
0
 20
-146
 11
0
 21
-150
  0
LINE
  8
0
 10
0
 20
-150
 11
-4
 21
-150
  0
LINE
  8
0
 10
-4
 20
-150
 11
-4
 21
-154
  0
LINE
  8
0
 10
-4
 20
-154
 11
0
 21
-154
  0
LINE
  8
0
 10
0
 20
-154
 11
0
 21
-158
  0
LINE
  8
0
 10
0
 20
-158
 11
-4
 21
-158
  0
LINE
  8
0
 10
-4
 20
-158
 11
-4
 21
-162
  0
LINE
  8
0
 10
-4
 20
-162
 11
0
 21
-162
  0
LINE
  8
0
 10
0
 20
-162
 11
0
 21
-166
  0
LINE
  8
0
 10
0
 20
-166
 11
-4
 21
-166
  0
LINE
  8
0
 10
-4
 20
-166
 11
-4
 21
-170
  0
LINE
  8
0
 10
-4
 20
-170
 11
0
 21
-170
  0
LINE
  8
0
 10
0
 20
-170
 11
0
 21
-174
  0
LINE
  8
0
 10
0
 20
-174
 11
-4
 21
-174
  0
LINE
  8
0
 10
-4
 20
-174
 11
-4
 21
-178
  0
LINE
  8
0
 10
-4
 20
-178
 11
0
 21
-178
  0
LINE
  8
0
 10
0
 20
-178
 11
0
 21
-182
  0
LINE
  8
0
 10
0
 20
-182
 11
212
 21
-182
  0
LINE
  8
0
 10
212
 20
-182
 11
212
 21
-181
  0
LINE
  8
0
 10
212
 20
-181
 11
208
 21
-181
  0
LINE
  8
0
 10
208
 20
-181
 11
208
 21
-177
  0
LINE
  8
0
 10
208
 20
-177
 11
212
 21
-177
  0
LINE
  8
0
 10
212
 20
-177
 11
212
 21
-173
  0
LINE
  8
0
 10
212
 20
-173
 11
208
 21
-173
  0
LINE
  8
0
 10
208
 20
-173
 11
208
 21
-169
  0
LINE
  8
0
 10
208
 20
-169
 11
212
 21
-169
  0
LINE
  8
0
 10
212
 20
-169
 11
212
 21
-165
  0
LINE
  8
0
 10
212
 20
-165
 11
208
 21
-165
  0
LINE
  8
0
 10
208
 20
-165
 11
208
 21
-161
  0
LINE
  8
0
 10
208
 20
-161
 11
212
 21
-161
  0
LINE
  8
0
 10
212
 20
-161
 11
212
 21
-157
  0
LINE
  8
0
 10
212
 20
-157
 11
208
 21
-157
  0
LINE
  8
0
 10
208
 20
-157
 11
208
 21
-153
  0
LINE
  8
0
 10
208
 20
-153
 11
212
 21
-153
  0
LINE
  8
0
 10
212
 20
-153
 11
212
 21
-149
  0
LINE
  8
0
 10
212
 20
-149
 11
208
 21
-149
  0
LINE
  8
0
 10
208
 20
-149
 11
208
 21
-145
  0
LINE
  8
0
 10
208
 20
-145
 11
212
 21
-145
  0
LINE
  8
0
 10
212
 20
-145
 11
212
 21
-141
  0
LINE
  8
0
 10
212
 20
-141
 11
208
 21
-141
  0
LINE
  8
0
 10
208
 20
-141
 11
208
 21
-137
  0
LINE
  8
0
 10
208
 20
-137
 11
212
 21
-137
  0
LINE
  8
0
 10
212
 20
-137
 11
212
 21
-133
  0
LINE
  8
0
 10
212
 20
-133
 11
208
 21
-133
  0
LINE
  8
0
 10
208
 20
-133
 11
208
 21
-129
  0
LINE
  8
0
 10
208
 20
-129
 11
212
 21
-129
  0
LINE
  8
0
 10
212
 20
-129
 11
212
 21
-125
  0
LINE
  8
0
 10
212
 20
-125
 11
208
 21
-125
  0
LINE
  8
0
 10
208
 20
-125
 11
208
 21
-121
  0
LINE
  8
0
 10
208
 20
-121
 11
212
 21
-121
  0
LINE
  8
0
 10
212
 20
-121
 11
212
 21
-117
  0
LINE
  8
0
 10
212
 20
-117
 11
208
 21
-117
  0
LINE
  8
0
 10
208
 20
-117
 11
208
 21
-113
  0
LINE
  8
0
 10
208
 20
-113
 11
204
 21
-113
  0
LINE
  8
0
 10
204
 20
-113
 11
204
 21
-109
  0
LINE
  8
0
 10
204
 20
-109
 11
208
 21
-109
  0
LINE
  8
0
 10
208
 20
-109
 11
208
 21
-113
  0
LINE
  8
0
 10
208
 20
-113
 11
212
 21
-113
  0
LINE
  8
0
 10
212
 20
-113
 11
212
 21
-109
  0
LINE
  8
0
 10
132
 20
-113
 11
132
 21
-109
  0
LINE
  8
0
 10
132
 20
-109
 11
136
 21
-109
  0
LINE
  8
0
 10
136
 20
-109
 11
136
 21
-113
  0
LINE
  8
0
 10
136
 20
-113
 11
132
 21
-113
  0
LINE
  8
0
 10
196
 20
-113
 11
196
 21
-109
  0
LINE
  8
0
 10
196
 20
-109
 11
200
 21
-109
  0
LINE
  8
0
 10
200
 20
-109
 11
200
 21
-113
  0
LINE
  8
0
 10
200
 20
-113
 11
196
 21
-113
  0
LINE
  8
0
 10
188
 20
-113
 11
188
 21
-109
  0
LINE
  8
0
 10
188
 20
-109
 11
192
 21
-109
  0
LINE
  8
0
 10
192
 20
-109
 11
192
 21
-113
  0
LINE
  8
0
 10
192
 20
-113
 11
188
 21
-113
  0
LINE
  8
0
 10
180
 20
-113
 11
180
 21
-109
  0
LINE
  8
0
 10
180
 20
-109
 11
184
 21
-109
  0
LINE
  8
0
 10
184
 20
-109
 11
184
 21
-113
  0
LINE
  8
0
 10
184
 20
-113
 11
180
 21
-113
  0
LINE
  8
0
 10
172
 20
-113
 11
172
 21
-109
  0
LINE
  8
0
 10
172
 20
-109
 11
176
 21
-109
  0
LINE
  8
0
 10
176
 20
-109
 11
176
 21
-113
  0
LINE
  8
0
 10
176
 20
-113
 11
172
 21
-113
  0
LINE
  8
0
 10
164
 20
-113
 11
164
 21
-109
  0
LINE
  8
0
 10
164
 20
-109
 11
168
 21
-109
  0
LINE
  8
0
 10
168
 20
-109
 11
168
 21
-113
  0
LINE
  8
0
 10
168
 20
-113
 11
164
 21
-113
  0
LINE
  8
0
 10
156
 20
-113
 11
156
 21
-109
  0
LINE
  8
0
 10
156
 20
-109
 11
160
 21
-109
  0
LINE
  8
0
 10
160
 20
-109
 11
160
 21
-113
  0
LINE
  8
0
 10
160
 20
-113
 11
156
 21
-113
  0
LINE
  8
0
 10
148
 20
-113
 11
148
 21
-109
  0
LINE
  8
0
 10
148
 20
-109
 11
152
 21
-109
  0
LINE
  8
0
 10
152
 20
-109
 11
152
 21
-113
  0
LINE
  8
0
 10
152
 20
-113
 11
148
 21
-113
  0
LINE
  8
0
 10
140
 20
-113
 11
140
 21
-109
  0
LINE
  8
0
 10
140
 20
-109
 11
144
 21
-109
  0
LINE
  8
0
 10
144
 20
-109
 11
144
 21
-113
  0
LINE
  8
0
 10
144
 20
-113
 11
140
 21
-113
  0
LINE
  8
0
 10
44
 20
-113
 11
44
 21
-109
  0
LINE
  8
0
 10
44
 20
-109
 11
48
 21
-109
  0
LINE
  8
0
 10
48
 20
-109
 11
48
 21
-113
  0
LINE
  8
0
 10
48
 20
-113
 11
44
 21
-113
  0
LINE
  8
0
 10
124
 20
-113
 11
124
 21
-109
  0
LINE
  8
0
 10
124
 20
-109
 11
128
 21
-109
  0
LINE
  8
0
 10
128
 20
-109
 11
128
 21
-113
  0
LINE
  8
0
 10
128
 20
-113
 11
124
 21
-113
  0
LINE
  8
0
 10
116
 20
-113
 11
116
 21
-109
  0
LINE
  8
0
 10
116
 20
-109
 11
120
 21
-109
  0
LINE
  8
0
 10
120
 20
-109
 11
120
 21
-113
  0
LINE
  8
0
 10
120
 20
-113
 11
116
 21
-113
  0
LINE
  8
0
 10
108
 20
-113
 11
108
 21
-109
  0
LINE
  8
0
 10
108
 20
-109
 11
112
 21
-109
  0
LINE
  8
0
 10
112
 20
-109
 11
112
 21
-113
  0
LINE
  8
0
 10
112
 20
-113
 11
108
 21
-113
  0
LINE
  8
0
 10
100
 20
-113
 11
100
 21
-109
  0
LINE
  8
0
 10
100
 20
-109
 11
104
 21
-109
  0
LINE
  8
0
 10
104
 20
-109
 11
104
 21
-113
  0
LINE
  8
0
 10
104
 20
-113
 11
100
 21
-113
  0
LINE
  8
0
 10
92
 20
-113
 11
92
 21
-109
  0
LINE
  8
0
 10
92
 20
-109
 11
96
 21
-109
  0
LINE
  8
0
 10
96
 20
-109
 11
96
 21
-113
  0
LINE
  8
0
 10
96
 20
-113
 11
92
 21
-113
  0
LINE
  8
0
 10
84
 20
-113
 11
84
 21
-109
  0
LINE
  8
0
 10
84
 20
-109
 11
88
 21
-109
  0
LINE
  8
0
 10
88
 20
-109
 11
88
 21
-113
  0
LINE
  8
0
 10
88
 20
-113
 11
84
 21
-113
  0
LINE
  8
0
 10
76
 20
-113
 11
76
 21
-109
  0
LINE
  8
0
 10
76
 20
-109
 11
80
 21
-109
  0
LINE
  8
0
 10
80
 20
-109
 11
80
 21
-113
  0
LINE
  8
0
 10
80
 20
-113
 11
76
 21
-113
  0
LINE
  8
0
 10
68
 20
-113
 11
68
 21
-109
  0
LINE
  8
0
 10
68
 20
-109
 11
72
 21
-109
  0
LINE
  8
0
 10
72
 20
-109
 11
72
 21
-113
  0
LINE
  8
0
 10
72
 20
-113
 11
68
 21
-113
  0
LINE
  8
0
 10
60
 20
-113
 11
60
 21
-109
  0
LINE
  8
0
 10
60
 20
-109
 11
64
 21
-109
  0
LINE
  8
0
 10
64
 20
-109
 11
64
 21
-113
  0
LINE
  8
0
 10
64
 20
-113
 11
60
 21
-113
  0
LINE
  8
0
 10
52
 20
-113
 11
52
 21
-109
  0
LINE
  8
0
 10
52
 20
-109
 11
56
 21
-109
  0
LINE
  8
0
 10
56
 20
-109
 11
56
 21
-113
  0
LINE
  8
0
 10
56
 20
-113
 11
52
 21
-113
  0
LINE
  8
0
 10
4
 20
-113
 11
4
 21
-109
  0
LINE
  8
0
 10
4
 20
-109
 11
8
 21
-109
  0
LINE
  8
0
 10
8
 20
-109
 11
8
 21
-113
  0
LINE
  8
0
 10
8
 20
-113
 11
4
 21
-113
  0
LINE
  8
0
 10
12
 20
-113
 11
12
 21
-109
  0
LINE
  8
0
 10
12
 20
-109
 11
16
 21
-109
  0
LINE
  8
0
 10
16
 20
-109
 11
16
 21
-113
  0
LINE
  8
0
 10
16
 20
-113
 11
12
 21
-113
  0
LINE
  8
0
 10
20
 20
-113
 11
20
 21
-109
  0
LINE
  8
0
 10
20
 20
-109
 11
24
 21
-109
  0
LINE
  8
0
 10
24
 20
-109
 11
24
 21
-113
  0
LINE
  8
0
 10
24
 20
-113
 11
20
 21
-113
  0
LINE
  8
0
 10
28
 20
-113
 11
28
 21
-109
  0
LINE
  8
0
 10
28
 20
-109
 11
32
 21
-109
  0
LINE
  8
0
 10
32
 20
-109
 11
32
 21
-113
  0
LINE
  8
0
 10
32
 20
-113
 11
28
 21
-113
  0
LINE
  8
0
 10
36
 20
-113
 11
36
 21
-109
  0
LINE
  8
0
 10
36
 20
-109
 11
40
 21
-109
  0
LINE
  8
0
 10
40
 20
-109
 11
40
 21
-113
  0
LINE
  8
0
 10
40
 20
-113
 11
36
 21
-113
  0
LINE
  8
0
 10
964
 20
-6
 11
924
 21
-6
  0
LINE
  8
0
 10
924
 20
-6
 11
924
 21
-10
  0
LINE
  8
0
 10
924
 20
-10
 11
964
 21
-10
  0
LINE
  8
0
 10
964
 20
-10
 11
964
 21
-6
  0
ENDSEC
  0
SECTION
  2
OBJECTS
  0
DICTIONARY
  0
ENDSEC
  0
EOF
