<svg xmlns="http://www.w3.org/2000/svg" xmlns:xlink="http://www.w3.org/1999/xlink" xmlns:inkscape="http://www.inkscape.org/namespaces/inkscape" version="1.1" width="1500" height="335.535" viewBox="0 0 1500 335.535">
<defs>
<clipPath id="clip_1">
<path transform="matrix(1,0,0,-1,0,335.535)" d="M0 335.535H1500V0H0Z"/>
</clipPath>
</defs>
<g inkscape:groupmode="layer" inkscape:label="Layer 1">
<path transform="matrix(1,0,0,-1,768.6549,11.7752079)" d="M0 0V-55.245H-93.347V-311.985H-158.955V-55.245H-252.723V0Z" fill="#0b1e41"/>
<path transform="matrix(1,0,0,-1,920.7115,11.7752079)" d="M0 0H64.134V-128.544L184.675 0H268.909L140.881-128.312 275.473-311.985H191.654L95.532-175.802 64.134-207.636V-311.985H0Z" fill="#0b1e41"/>
<path transform="matrix(1,0,0,-1,1315.854,11.775299)" d="M0 0-111.37-311.985H-43.177L-22.03-247.851H92.862L113.448-311.985H184.146V-311.983L73.764 0ZM36.192-71.329 75.608-194.093H-4.298Z" fill="#0b1e41"/>
<path transform="matrix(1,0,0,-1,0,335.535)" d="M812.394 268.514H877.068V323.759H812.394Z" fill="#0b1e41"/>
<path transform="matrix(1,0,0,-1,0,335.535)" d="M877.07 11.775H812.396V244.06999H877.07Z" fill="#0b1e41"/>
<g clip-path="url(#clip_1)">
<path transform="matrix(1,0,0,-1,0,167.7675)" d="M0 0C0 92.656 75.11 167.768 167.768 167.768 227.465 167.768 279.879 136.589 309.615 89.626 285.042 116.998 249.387 134.216 209.708 134.216 135.583 134.216 75.494 74.125 75.494 0 75.494-74.125 135.583-134.216 209.708-134.216 249.387-134.216 285.042-116.998 309.614-89.627 279.879-136.589 227.465-167.768 167.768-167.768 75.11-167.768 0-92.656 0 0" fill="#ea252a"/>
<path transform="matrix(1,0,0,-1,461.3643,126.0966)" d="M0 0-57.962-18.833-93.786 30.473V-30.471L-151.749-49.304-93.787-68.138V-129.084L-57.963-79.778-.002-98.61-35.823-49.306Z" fill="#ea252a"/>
</g>
</g>
</svg>
